<?xml version="1.0" encoding="UTF-8" standalone="no"?>
<!-- Created with Inkscape (http://www.inkscape.org/) -->

<svg
   width="700"
   height="900"
   viewBox="0 0 185.20833 238.125"
   version="1.1"
   id="svg5"
   inkscape:version="1.3 (0e150ed, 2023-07-21)"
   sodipodi:docname="SevenSeg.svg"
   xmlns:inkscape="http://www.inkscape.org/namespaces/inkscape"
   xmlns:sodipodi="http://sodipodi.sourceforge.net/DTD/sodipodi-0.dtd"
   xmlns="http://www.w3.org/2000/svg"
   xmlns:svg="http://www.w3.org/2000/svg">
  <sodipodi:namedview
     id="namedview7"
     pagecolor="#ffffff"
     bordercolor="#666666"
     borderopacity="1.0"
     inkscape:showpageshadow="2"
     inkscape:pageopacity="0.0"
     inkscape:pagecheckerboard="0"
     inkscape:deskcolor="#d1d1d1"
     inkscape:document-units="mm"
     showgrid="true"
     inkscape:zoom="1.1761631"
     inkscape:cx="338.38845"
     inkscape:cy="449.76757"
     inkscape:window-width="1688"
     inkscape:window-height="1277"
     inkscape:window-x="2881"
     inkscape:window-y="59"
     inkscape:window-maximized="0"
     inkscape:current-layer="layer1">
    <inkscape:grid
       type="xygrid"
       id="grid182"
       spacingx="2.6458333"
       spacingy="2.6458333"
       empspacing="10"
       originx="0"
       originy="0"
       units="mm"
       visible="true" />
  </sodipodi:namedview>
  <defs
     id="defs2" />
  <g
     inkscape:label="Layer 1"
     inkscape:groupmode="layer"
     id="layer1"
     transform="translate(0,-117.74998)">
    <path
       style="fill:#000000;stroke-width:4.26415;stroke-linecap:square;stroke-linejoin:round"
       d="M 30.200741,329.41665 9.6991496,349.91824 c 4.5572754,3.72513 10.3873864,5.95674 16.7591834,5.95674 h 79.374997 c 6.37166,0 12.20144,-2.23176 16.75867,-5.95674 l -20.50159,-20.50159 z"
       id="d" />
    <path
       style="fill:#000000;stroke-width:4.26415;stroke-linecap:square;stroke-linejoin:round"
       d="m 130.01119,239.29192 -1.38597,0.79219 -22.79189,13.01937 v 72.57179 l 20.50108,20.50108 c 3.72541,-4.55736 5.95726,-10.38764 5.95726,-16.7597 v -79.375 c 0,-3.83565 -0.82299,-7.46674 -2.28048,-10.74973 z"
       id="c" />
    <path
       style="fill:#000000;stroke-width:4.26415;stroke-linecap:square;stroke-linejoin:round"
       d="M 2.2846151,239.28261 C 0.82452188,242.56804 0,246.20238 0,250.04165 v 79.375 c 0,6.3718 2.2316064,12.20191 5.9567424,16.75918 L 26.458333,325.67476 V 253.50087 L 3.6364705,240.07791 Z"
       id="e" />
    <path
       style="fill:#000000;stroke-width:4.26415;stroke-linecap:square;stroke-linejoin:round"
       d="M 31.015161,223.58331 8.5235107,236.81248 31.015161,250.04165 h 69.511519 l 1.34824,-0.76998 21.58369,-12.33103 -21.45088,-12.76098 -1.00253,-0.59635 z"
       id="g" />
    <path
       style="fill:#000000;stroke-width:4.26415;stroke-linecap:square;stroke-linejoin:round"
       d="m 126.33441,127.44913 -20.50108,20.50107 v 72.34753 l 22.52008,13.39763 1.53324,0.91105 c 1.53503,-3.35412 2.40502,-7.08046 2.40502,-11.0231 v -79.375 c 0,-6.37191 -2.23201,-12.20187 -5.95726,-16.75918 z"
       id="b" />
    <path
       style="fill:#000000;stroke-width:4.26415;stroke-linecap:square;stroke-linejoin:round"
       d="M 5.9567424,127.44913 C 2.2316064,132.0064 0,137.83652 0,144.20831 v 79.375 c 0,3.8391 0.82464201,7.47321 2.2846151,10.75852 l 1.3503051,-0.79478 22.8234128,-13.42347 v -72.17286 z"
       id="f" />
    <path
       style="fill:#000000;stroke-width:4.26415;stroke-linecap:square;stroke-linejoin:round"
       d="m 26.458333,117.74998 c -6.371797,0 -12.201908,2.23161 -16.7591834,5.95674 L 30.200741,144.20831 H 102.09041 L 122.592,123.70672 c -4.55723,-3.72498 -10.38701,-5.95674 -16.75867,-5.95674 z"
       id="a" />
    <circle
       style="fill:#000000;fill-opacity:1;stroke:none;stroke-width:5.29167;stroke-linecap:square;stroke-linejoin:round;stroke-dasharray:none;stroke-opacity:1"
       id="i"
       cx="158.75"
       cy="183.89581"
       r="13.229166" />
    <circle
       style="fill:#000000;fill-opacity:1;stroke:none;stroke-width:5.29167;stroke-linecap:square;stroke-linejoin:round;stroke-dasharray:none;stroke-opacity:1"
       id="h"
       cx="158.75"
       cy="289.72916"
       r="13.229166" />
    <circle
       style="fill:#000000;fill-opacity:1;stroke:none;stroke-width:5.29167;stroke-linecap:square;stroke-linejoin:round;stroke-dasharray:none;stroke-opacity:1"
       id="j"
       cx="158.75"
       cy="342.64581"
       r="13.229166" />
  </g>
</svg>
