<?xml version="1.0" encoding="UTF-8" standalone="no"?>
<!-- Created with Inkscape (http://www.inkscape.org/) -->

<svg
   width="840"
   height="1080"
   viewBox="0 0 222.25 285.75"
   version="1.1"
   id="svg5"
   inkscape:version="1.3 (0e150ed, 2023-07-21)"
   sodipodi:docname="SevenSeg.svg"
   xmlns:inkscape="http://www.inkscape.org/namespaces/inkscape"
   xmlns:sodipodi="http://sodipodi.sourceforge.net/DTD/sodipodi-0.dtd"
   xmlns="http://www.w3.org/2000/svg"
   xmlns:svg="http://www.w3.org/2000/svg">
  <sodipodi:namedview
     id="namedview7"
     pagecolor="#ffffff"
     bordercolor="#666666"
     borderopacity="1.0"
     inkscape:showpageshadow="2"
     inkscape:pageopacity="0.0"
     inkscape:pagecheckerboard="0"
     inkscape:deskcolor="#d1d1d1"
     inkscape:document-units="mm"
     showgrid="true"
     inkscape:zoom="0.95"
     inkscape:cx="420"
     inkscape:cy="540"
     inkscape:window-width="1688"
     inkscape:window-height="1277"
     inkscape:window-x="2881"
     inkscape:window-y="25"
     inkscape:window-maximized="0"
     inkscape:current-layer="layer1">
    <inkscape:grid
       type="xygrid"
       id="grid182"
       spacingx="3.175"
       spacingy="3.175"
       empspacing="10"
       originx="0"
       originy="0"
       units="px"
       visible="true" />
  </sodipodi:namedview>
  <defs
     id="defs2" />
  <g
     inkscape:label="Layer 1"
     inkscape:groupmode="layer"
     id="layer1"
     transform="translate(0,-70.12498)">
    <path
       style="fill:#000000;stroke-width:4.26415;stroke-linecap:square;stroke-linejoin:round"
       d="M 36.240889,324.12498 11.63898,348.72689 c 5.46873,4.47016 12.464863,7.14809 20.11102,7.14809 H 127 c 7.64599,0 14.64172,-2.67811 20.1104,-7.14809 l -24.60191,-24.60191 z"
       id="d" />
    <path
       style="fill:#000000;stroke-width:4.26415;stroke-linecap:square;stroke-linejoin:round"
       d="m 156.01343,215.97531 -1.66317,0.95063 L 127,232.54918 v 87.08615 l 24.60129,24.60129 c 4.47049,-5.46883 7.14871,-12.46516 7.14871,-20.11164 v -95.25 c 0,-4.60278 -0.98758,-8.96008 -2.73657,-12.89967 z"
       id="c" />
    <path
       style="fill:#000000;stroke-width:4.26415;stroke-linecap:square;stroke-linejoin:round"
       d="M 2.7415381,215.96414 C 0.98942626,219.90665 0,224.26786 0,228.87498 v 95.25 c 0,7.64616 2.6779277,14.6423 7.1480909,20.11102 L 31.75,319.63472 V 233.02605 L 4.3637646,216.9185 Z"
       id="e" />
    <path
       style="fill:#000000;stroke-width:4.26415;stroke-linecap:square;stroke-linejoin:round"
       d="m 37.218193,197.12498 -26.98998,15.875 26.98998,15.875 h 83.413827 l 1.61788,-0.92397 25.90043,-14.79724 -25.74105,-15.31317 -1.20304,-0.71562 z"
       id="g" />
    <path
       style="fill:#000000;stroke-width:4.26415;stroke-linecap:square;stroke-linejoin:round"
       d="M 151.60129,81.76396 127,106.36524 v 86.81704 l 27.02409,16.07716 1.83989,1.09326 c 1.84204,-4.02495 2.88602,-8.49656 2.88602,-13.22772 v -95.25 c 0,-7.646296 -2.67841,-14.642248 -7.14871,-20.11102 z"
       id="b" />
    <path
       style="fill:#000000;stroke-width:4.26415;stroke-linecap:square;stroke-linejoin:round"
       d="M 7.1480909,81.76396 C 2.6779277,87.232684 0,94.228828 0,101.87498 v 95.25 c 0,4.60692 0.98957041,8.96785 2.7415381,12.91022 L 4.3619042,209.08146 31.75,192.9733 v -86.60743 z"
       id="f" />
    <path
       style="fill:#000000;stroke-width:4.26415;stroke-linecap:square;stroke-linejoin:round"
       d="m 31.75,70.12498 c -7.646157,0 -14.64229,2.677932 -20.11102,7.148088 L 36.240889,101.87498 H 122.50849 L 147.1104,77.273068 C 141.64172,72.803092 134.64599,70.12498 127,70.12498 Z"
       id="a" />
    <circle
       style="fill:#000000;fill-opacity:1;stroke:none;stroke-width:5.29166;stroke-linecap:square;stroke-linejoin:round;stroke-dasharray:none;stroke-opacity:1"
       id="i"
       cx="190.5"
       cy="149.49998"
       r="15.874999" />
    <circle
       style="fill:#000000;fill-opacity:1;stroke:none;stroke-width:5.29166;stroke-linecap:square;stroke-linejoin:round;stroke-dasharray:none;stroke-opacity:1"
       id="h"
       cx="190.5"
       cy="276.5"
       r="15.874999" />
    <circle
       style="fill:#000000;fill-opacity:1;stroke:none;stroke-width:5.29166;stroke-linecap:square;stroke-linejoin:round;stroke-dasharray:none;stroke-opacity:1"
       id="j"
       cx="190.5"
       cy="339.99997"
       r="15.874999" />
  </g>
</svg>
