%TF.GenerationSoftware,KiCad,Pcbnew,(6.0.2-0)*%
%TF.CreationDate,2022-03-18T09:49:45+00:00*%
%TF.ProjectId,Epaper154,45706170-6572-4313-9534-2e6b69636164,1*%
%TF.SameCoordinates,Original*%
%TF.FileFunction,Copper,L2,Bot*%
%TF.FilePolarity,Positive*%
%FSLAX46Y46*%
G04 Gerber Fmt 4.6, Leading zero omitted, Abs format (unit mm)*
G04 Created by KiCad (PCBNEW (6.0.2-0)) date 2022-03-18 09:49:45*
%MOMM*%
%LPD*%
G01*
G04 APERTURE LIST*
G04 Aperture macros list*
%AMRoundRect*
0 Rectangle with rounded corners*
0 $1 Rounding radius*
0 $2 $3 $4 $5 $6 $7 $8 $9 X,Y pos of 4 corners*
0 Add a 4 corners polygon primitive as box body*
4,1,4,$2,$3,$4,$5,$6,$7,$8,$9,$2,$3,0*
0 Add four circle primitives for the rounded corners*
1,1,$1+$1,$2,$3*
1,1,$1+$1,$4,$5*
1,1,$1+$1,$6,$7*
1,1,$1+$1,$8,$9*
0 Add four rect primitives between the rounded corners*
20,1,$1+$1,$2,$3,$4,$5,0*
20,1,$1+$1,$4,$5,$6,$7,0*
20,1,$1+$1,$6,$7,$8,$9,0*
20,1,$1+$1,$8,$9,$2,$3,0*%
G04 Aperture macros list end*
%ADD10C,0.100000*%
%TA.AperFunction,NonConductor*%
%ADD11C,0.100000*%
%TD*%
%TA.AperFunction,EtchedComponent*%
%ADD12C,0.250000*%
%TD*%
%TA.AperFunction,EtchedComponent*%
%ADD13C,0.080000*%
%TD*%
%TA.AperFunction,ComponentPad*%
%ADD14C,2.700000*%
%TD*%
%TA.AperFunction,ComponentPad*%
%ADD15C,0.670000*%
%TD*%
%TA.AperFunction,ComponentPad*%
%ADD16C,1.250000*%
%TD*%
%TA.AperFunction,ComponentPad*%
%ADD17C,1.500000*%
%TD*%
%TA.AperFunction,ComponentPad*%
%ADD18RoundRect,0.250000X0.675000X-0.600000X0.675000X0.600000X-0.675000X0.600000X-0.675000X-0.600000X0*%
%TD*%
%TA.AperFunction,ComponentPad*%
%ADD19O,1.850000X1.700000*%
%TD*%
%TA.AperFunction,ComponentPad*%
%ADD20R,1.700000X1.700000*%
%TD*%
%TA.AperFunction,ComponentPad*%
%ADD21O,1.700000X1.700000*%
%TD*%
%TA.AperFunction,SMDPad,CuDef*%
%ADD22R,0.400000X0.200000*%
%TD*%
%TA.AperFunction,SMDPad,CuDef*%
%ADD23R,0.200000X0.400000*%
%TD*%
%TA.AperFunction,SMDPad,CuDef*%
%ADD24R,0.200000X0.200000*%
%TD*%
%TA.AperFunction,SMDPad,CuDef*%
%ADD25R,0.200000X1.400000*%
%TD*%
%TA.AperFunction,SMDPad,CuDef*%
%ADD26R,0.200000X1.000000*%
%TD*%
%TA.AperFunction,SMDPad,CuDef*%
%ADD27R,1.200000X0.200000*%
%TD*%
%TA.AperFunction,SMDPad,CuDef*%
%ADD28R,0.400000X0.400000*%
%TD*%
%TA.AperFunction,SMDPad,CuDef*%
%ADD29R,0.200000X0.600000*%
%TD*%
%TA.AperFunction,SMDPad,CuDef*%
%ADD30R,0.600000X0.200000*%
%TD*%
%TA.AperFunction,SMDPad,CuDef*%
%ADD31R,0.200000X0.800000*%
%TD*%
%TA.AperFunction,SMDPad,CuDef*%
%ADD32R,0.800000X0.200000*%
%TD*%
%TA.AperFunction,SMDPad,CuDef*%
%ADD33R,0.600000X0.600000*%
%TD*%
%TA.AperFunction,SMDPad,CuDef*%
%ADD34R,1.000000X0.200000*%
%TD*%
%TA.AperFunction,ViaPad*%
%ADD35C,0.800000*%
%TD*%
%TA.AperFunction,Conductor*%
%ADD36C,0.250000*%
%TD*%
%TA.AperFunction,Conductor*%
%ADD37C,0.500000*%
%TD*%
G04 APERTURE END LIST*
D10*
%TO.C,U4*%
D11*
X159368809Y-80121428D02*
X159345000Y-80145238D01*
X159321190Y-80192857D01*
X159321190Y-80311904D01*
X159345000Y-80359523D01*
X159368809Y-80383333D01*
X159416428Y-80407142D01*
X159464047Y-80407142D01*
X159535476Y-80383333D01*
X159821190Y-80097619D01*
X159821190Y-80407142D01*
X159321190Y-80716666D02*
X159321190Y-80764285D01*
X159345000Y-80811904D01*
X159368809Y-80835714D01*
X159416428Y-80859523D01*
X159511666Y-80883333D01*
X159630714Y-80883333D01*
X159725952Y-80859523D01*
X159773571Y-80835714D01*
X159797380Y-80811904D01*
X159821190Y-80764285D01*
X159821190Y-80716666D01*
X159797380Y-80669047D01*
X159773571Y-80645238D01*
X159725952Y-80621428D01*
X159630714Y-80597619D01*
X159511666Y-80597619D01*
X159416428Y-80621428D01*
X159368809Y-80645238D01*
X159345000Y-80669047D01*
X159321190Y-80716666D01*
X159368809Y-81073809D02*
X159345000Y-81097619D01*
X159321190Y-81145238D01*
X159321190Y-81264285D01*
X159345000Y-81311904D01*
X159368809Y-81335714D01*
X159416428Y-81359523D01*
X159464047Y-81359523D01*
X159535476Y-81335714D01*
X159821190Y-81050000D01*
X159821190Y-81359523D01*
X159368809Y-81550000D02*
X159345000Y-81573809D01*
X159321190Y-81621428D01*
X159321190Y-81740476D01*
X159345000Y-81788095D01*
X159368809Y-81811904D01*
X159416428Y-81835714D01*
X159464047Y-81835714D01*
X159535476Y-81811904D01*
X159821190Y-81526190D01*
X159821190Y-81835714D01*
X159630714Y-82050000D02*
X159630714Y-82430952D01*
X159321190Y-82764285D02*
X159321190Y-82811904D01*
X159345000Y-82859523D01*
X159368809Y-82883333D01*
X159416428Y-82907142D01*
X159511666Y-82930952D01*
X159630714Y-82930952D01*
X159725952Y-82907142D01*
X159773571Y-82883333D01*
X159797380Y-82859523D01*
X159821190Y-82811904D01*
X159821190Y-82764285D01*
X159797380Y-82716666D01*
X159773571Y-82692857D01*
X159725952Y-82669047D01*
X159630714Y-82645238D01*
X159511666Y-82645238D01*
X159416428Y-82669047D01*
X159368809Y-82692857D01*
X159345000Y-82716666D01*
X159321190Y-82764285D01*
X159321190Y-83097619D02*
X159321190Y-83407142D01*
X159511666Y-83240476D01*
X159511666Y-83311904D01*
X159535476Y-83359523D01*
X159559285Y-83383333D01*
X159606904Y-83407142D01*
X159725952Y-83407142D01*
X159773571Y-83383333D01*
X159797380Y-83359523D01*
X159821190Y-83311904D01*
X159821190Y-83169047D01*
X159797380Y-83121428D01*
X159773571Y-83097619D01*
X159630714Y-83621428D02*
X159630714Y-84002380D01*
X159821190Y-84502380D02*
X159821190Y-84216666D01*
X159821190Y-84359523D02*
X159321190Y-84359523D01*
X159392619Y-84311904D01*
X159440238Y-84264285D01*
X159464047Y-84216666D01*
X159321190Y-84669047D02*
X159321190Y-85002380D01*
X159821190Y-84788095D01*
D12*
%TO.C,Logo2*%
X149098000Y-86360000D02*
X151198000Y-88160000D01*
X149098000Y-86360000D02*
X149098000Y-84860000D01*
X147098000Y-88160000D02*
X149098000Y-86360000D01*
D13*
X151048000Y-85510000D02*
X151348000Y-85510000D01*
X151048000Y-85510000D02*
X151048000Y-85610000D01*
D12*
X146998000Y-86360000D02*
X151198000Y-86360000D01*
D13*
X151208000Y-85610000D02*
X151348000Y-85710000D01*
X151208000Y-85510000D02*
X151208000Y-85610000D01*
D12*
X146998000Y-86360000D02*
X151198000Y-83360000D01*
X151198000Y-86360000D02*
G75*
G03*
X151198000Y-84860000I0J750000D01*
G01*
D13*
X151048000Y-85610000D02*
G75*
G03*
X151208000Y-85610000I80000J0D01*
G01*
X151508000Y-85590000D02*
G75*
G03*
X151508000Y-85590000I-300000J0D01*
G01*
%TD*%
D14*
%TO.P,H2,*%
%TO.N,*%
X132080000Y-63500000D03*
%TD*%
D15*
%TO.P,J1,S1,SHIELD*%
%TO.N,GND*%
X160580000Y-79660000D03*
D16*
X164260000Y-86870000D03*
D17*
X160090000Y-86870000D03*
D15*
X160580000Y-85440000D03*
D16*
X164260000Y-78230000D03*
D17*
X160090000Y-78230000D03*
%TD*%
D14*
%TO.P,H4,*%
%TO.N,*%
X170180000Y-101600000D03*
%TD*%
%TO.P,H3,*%
%TO.N,*%
X132080000Y-101600000D03*
%TD*%
D18*
%TO.P,J3,1,Pin_1*%
%TO.N,GND*%
X159402000Y-74128000D03*
D19*
%TO.P,J3,2,Pin_2*%
%TO.N,BUTTON1*%
X159402000Y-71628000D03*
%TO.P,J3,3,Pin_3*%
%TO.N,BUTTON2*%
X159402000Y-69128000D03*
%TD*%
D18*
%TO.P,J2,1,GND*%
%TO.N,GND*%
X159275000Y-94595000D03*
D19*
%TO.P,J2,2,DC*%
%TO.N,DC*%
X159275000Y-92095000D03*
%TD*%
D14*
%TO.P,H1,*%
%TO.N,*%
X170180000Y-63500000D03*
%TD*%
D20*
%TO.P,M1,1,VIN*%
%TO.N,unconnected-(M1-Pad1)*%
X135890000Y-101600000D03*
D21*
%TO.P,M1,2,3V3*%
%TO.N,+3V3*%
X138430000Y-101600000D03*
%TO.P,M1,3,GND*%
%TO.N,GND*%
X140970000Y-101600000D03*
%TO.P,M1,4,SCK*%
%TO.N,SCK*%
X143510000Y-101600000D03*
%TO.P,M1,5,MISO*%
%TO.N,MISO*%
X146050000Y-101600000D03*
%TO.P,M1,6,MOSI*%
%TO.N,MOSI*%
X148590000Y-101600000D03*
%TO.P,M1,7,ECS*%
%TO.N,CS*%
X151130000Y-101600000D03*
%TO.P,M1,8,D/C*%
%TO.N,D{slash}C*%
X153670000Y-101600000D03*
%TO.P,M1,9,SRCS*%
%TO.N,SRCS*%
X156210000Y-101600000D03*
%TO.P,M1,10,SDCS*%
%TO.N,SDCS*%
X158750000Y-101600000D03*
%TO.P,M1,11,RST*%
%TO.N,RST*%
X161290000Y-101600000D03*
%TO.P,M1,12,BUSY*%
%TO.N,BUSY*%
X163830000Y-101600000D03*
%TO.P,M1,13,ENA*%
%TO.N,ENA*%
X166370000Y-101600000D03*
%TD*%
D22*
%TO.P,U4,*%
%TO.N,*%
X165095000Y-81350000D03*
D23*
X163395000Y-84050000D03*
D24*
X163595000Y-83750000D03*
D25*
X163995000Y-83950000D03*
D22*
X165095000Y-81950000D03*
D26*
X162395000Y-81150000D03*
D24*
X164595000Y-80550000D03*
D27*
X161895000Y-84550000D03*
D24*
X162995000Y-83550000D03*
D28*
X161895000Y-82850000D03*
D29*
X164595000Y-82550000D03*
D30*
X164995000Y-81750000D03*
D24*
X165195000Y-82950000D03*
D27*
X161895000Y-81750000D03*
D22*
X165095000Y-80550000D03*
D27*
X161895000Y-80550000D03*
D24*
X162795000Y-80550000D03*
X162995000Y-80750000D03*
D29*
X161195000Y-82750000D03*
D31*
X163795000Y-81850000D03*
D23*
X163795000Y-81050000D03*
D27*
X163495000Y-82550000D03*
X161895000Y-83350000D03*
D22*
X163495000Y-80750000D03*
D26*
X162795000Y-81550000D03*
D24*
X163595000Y-80550000D03*
D32*
X162295000Y-82150000D03*
D22*
X163295000Y-82750000D03*
D24*
X164195000Y-80550000D03*
D30*
X164995000Y-82750000D03*
D24*
X162595000Y-82750000D03*
D23*
X163195000Y-81050000D03*
D24*
X161395000Y-82150000D03*
D27*
X164695000Y-83350000D03*
D23*
X163195000Y-83250000D03*
X163995000Y-81850000D03*
D30*
X162795000Y-82350000D03*
D22*
X164095000Y-82350000D03*
D33*
X164595000Y-83950000D03*
D24*
X164795000Y-80950000D03*
D23*
X163195000Y-81650000D03*
D24*
X162995000Y-83950000D03*
D23*
X164595000Y-81650000D03*
D22*
X163095000Y-84350000D03*
D29*
X163395000Y-81950000D03*
D24*
X165195000Y-81550000D03*
D23*
X164395000Y-82850000D03*
D24*
X163195000Y-80550000D03*
D23*
X163595000Y-81450000D03*
D24*
X162995000Y-82150000D03*
D33*
X161795000Y-81150000D03*
D24*
X164195000Y-81550000D03*
D23*
X163595000Y-84450000D03*
D24*
X162795000Y-83750000D03*
D22*
X162895000Y-84550000D03*
D32*
X164895000Y-81150000D03*
D33*
X161795000Y-83950000D03*
D34*
X162595000Y-82950000D03*
D28*
X161695000Y-82450000D03*
D27*
X164695000Y-84550000D03*
D28*
X164495000Y-80850000D03*
D23*
X162795000Y-83250000D03*
D26*
X162395000Y-83950000D03*
D25*
X161195000Y-83950000D03*
D24*
X165195000Y-80750000D03*
D25*
X161195000Y-81150000D03*
D23*
X163595000Y-82250000D03*
D22*
X162295000Y-82550000D03*
D26*
X165195000Y-83950000D03*
D23*
X162995000Y-81450000D03*
D24*
X165195000Y-82550000D03*
D22*
X163895000Y-82950000D03*
D30*
X164995000Y-82150000D03*
D29*
X163595000Y-83150000D03*
%TD*%
D35*
%TO.N,VBUS*%
X156845000Y-85090000D03*
X156845000Y-80010000D03*
%TO.N,SCK*%
X140208000Y-85852000D03*
%TO.N,GND*%
X146558000Y-75184000D03*
X151892000Y-71120000D03*
X151892000Y-68072000D03*
%TO.N,+3V3*%
X137451500Y-91804396D03*
X137160000Y-66294000D03*
X151825749Y-74949919D03*
X155575000Y-78740000D03*
%TO.N,MOSI*%
X139446000Y-78232000D03*
%TO.N,CS*%
X141986000Y-78232000D03*
%TO.N,D{slash}C*%
X143256000Y-78232000D03*
%TO.N,R*%
X144018000Y-73914000D03*
X140970000Y-65786000D03*
%TO.N,B*%
X142240000Y-65786000D03*
X142742271Y-73919119D03*
%TO.N,DC*%
X146685000Y-67945000D03*
%TO.N,O*%
X150114000Y-75438000D03*
X140716000Y-78232000D03*
%TO.N,EN*%
X150876000Y-74638500D03*
X144272000Y-87376000D03*
%TO.N,BUTTON1*%
X146558000Y-73914000D03*
%TO.N,BUTTON2*%
X145288000Y-73914000D03*
%TD*%
D36*
%TO.N,VBUS*%
X156845000Y-80010000D02*
X156845000Y-85090000D01*
%TO.N,SCK*%
X140208000Y-85852000D02*
X140431184Y-86075184D01*
X140970000Y-87376000D02*
X140970000Y-88058319D01*
X143510000Y-94190420D02*
X143510000Y-101600000D01*
X140970000Y-87376000D02*
G75*
G03*
X140431184Y-86075184I-1839632J-1D01*
G01*
X143510000Y-94190420D02*
G75*
G03*
X143002000Y-92964000I-1734419J0D01*
G01*
X143002000Y-92964000D02*
G75*
G02*
X140970000Y-88058319I4905686J4905684D01*
G01*
%TO.N,+3V3*%
X136652000Y-67520420D02*
X136652000Y-89456255D01*
X137249947Y-91340644D02*
X137451500Y-91542197D01*
X155575000Y-78740000D02*
X151825749Y-74990749D01*
X137451500Y-91542197D02*
X137451500Y-91804396D01*
X151825749Y-74990749D02*
X151825749Y-74949919D01*
X136652000Y-67520420D02*
G75*
G02*
X137160000Y-66294000I1734419J0D01*
G01*
X137249948Y-91340643D02*
G75*
G02*
X136652001Y-89456255I2684223J1888810D01*
G01*
%TO.N,MOSI*%
X143764000Y-92964000D02*
X145895923Y-95095923D01*
X141478000Y-81788000D02*
X141478000Y-87445108D01*
X140400369Y-79186370D02*
X139446000Y-78232000D01*
X148590000Y-101600000D02*
G75*
G03*
X145895923Y-95095923I-9198156J-1D01*
G01*
X143764000Y-92964000D02*
G75*
G02*
X141478000Y-87445108I5518895J5518893D01*
G01*
X140400369Y-79186370D02*
G75*
G02*
X141478000Y-81788000I-2601627J-2601629D01*
G01*
%TO.N,CS*%
X141986000Y-78232000D02*
X141986000Y-87191108D01*
X144272000Y-92710000D02*
X149693159Y-98131159D01*
X144272000Y-92710000D02*
G75*
G02*
X141986000Y-87191108I5518895J5518893D01*
G01*
X151129999Y-101600000D02*
G75*
G03*
X149693158Y-98131160I-4905684J-1D01*
G01*
%TO.N,D{slash}C*%
X142494000Y-80071630D02*
X142494000Y-87296319D01*
X144526000Y-92202000D02*
X153490394Y-101166394D01*
X142494000Y-80071630D02*
G75*
G02*
X143256000Y-78232000I2601623J2D01*
G01*
X153670000Y-101600000D02*
G75*
G03*
X153490394Y-101166394I-613209J0D01*
G01*
X144526000Y-92202000D02*
G75*
G02*
X142494000Y-87296319I4905686J4905684D01*
G01*
%TO.N,R*%
X144018000Y-73914000D02*
X143974421Y-73870421D01*
X141372790Y-65383210D02*
X140970000Y-65786000D01*
X143256000Y-72136000D02*
X143256000Y-66040000D01*
X141372790Y-65383210D02*
G75*
G02*
X142240000Y-65024000I867211J-867213D01*
G01*
X143256001Y-72136000D02*
G75*
G03*
X143974421Y-73870421I2452834J-3D01*
G01*
X142240000Y-65024000D02*
G75*
G02*
X143256000Y-66040000I-2J-1016002D01*
G01*
%TO.N,B*%
X142748000Y-73914000D02*
X142742881Y-73919119D01*
X142748000Y-66294000D02*
X142748000Y-73914000D01*
X142742881Y-73919119D02*
X142742271Y-73919119D01*
X142748000Y-66294000D02*
G75*
G03*
X142240000Y-65786000I-508001J-1D01*
G01*
D37*
%TO.N,DC*%
X158594980Y-91414980D02*
X158594980Y-77879020D01*
X159208111Y-92094112D02*
X159076904Y-92068014D01*
X159076904Y-92068014D02*
X158953310Y-92016819D01*
X161759160Y-74714840D02*
X161759160Y-68033160D01*
X158621966Y-91613076D02*
X158595868Y-91481869D01*
X160274000Y-66548000D02*
X148082000Y-66548000D01*
X158953310Y-92016819D02*
X158842078Y-91942497D01*
X158842078Y-91942497D02*
X158747483Y-91847902D01*
X158595868Y-91481869D02*
X158594980Y-91414980D01*
X159275000Y-92095000D02*
X159208111Y-92094112D01*
X158673161Y-91736670D02*
X158621966Y-91613076D01*
X158747483Y-91847902D02*
X158673161Y-91736670D01*
X160274000Y-66548000D02*
G75*
G02*
X161759160Y-68033160I1J-1485159D01*
G01*
X161759160Y-74714840D02*
G75*
G02*
X160020000Y-76454000I-1739159J-1D01*
G01*
X160020000Y-76454000D02*
G75*
G03*
X158594980Y-77879020I1J-1425021D01*
G01*
X146685000Y-67945000D02*
G75*
G02*
X148082000Y-66548000I1397001J-1D01*
G01*
D36*
%TO.N,O*%
X149606000Y-75946000D02*
X143002000Y-75946000D01*
X149606000Y-75946000D02*
G75*
G03*
X150114000Y-75438000I-1J508001D01*
G01*
X140716000Y-78232000D02*
G75*
G02*
X143002000Y-75946000I2286000J0D01*
G01*
%TO.N,EN*%
X150873997Y-74640503D02*
X150876000Y-74638500D01*
X150873997Y-75777631D02*
X150873997Y-74640503D01*
X144272000Y-87376000D02*
X144272000Y-81026000D01*
X148844000Y-76454000D02*
X150114000Y-76454000D01*
X148844000Y-76454000D02*
G75*
G03*
X144272000Y-81026000I1J-4572001D01*
G01*
X150873996Y-75777631D02*
G75*
G02*
X150114000Y-76453999I-762114J91178D01*
G01*
%TO.N,BUTTON1*%
X150114000Y-69596000D02*
X154496319Y-69596000D01*
X146558000Y-73914000D02*
X146558000Y-73152000D01*
X150114000Y-69596000D02*
G75*
G03*
X146558000Y-73152000I-1J-3555999D01*
G01*
X159402000Y-71628000D02*
G75*
G03*
X154496319Y-69596000I-4905684J-4905686D01*
G01*
%TO.N,BUTTON2*%
X159402000Y-69128000D02*
X150074000Y-69128000D01*
X145288000Y-73914000D02*
G75*
G02*
X150074000Y-69128000I4786000J0D01*
G01*
%TD*%
%TA.AperFunction,Conductor*%
%TO.N,GND*%
G36*
X170167153Y-61216421D02*
G01*
X170180000Y-61218976D01*
X170192172Y-61216555D01*
X170204579Y-61216555D01*
X170204579Y-61216950D01*
X170215391Y-61216227D01*
X170301344Y-61221635D01*
X170458602Y-61231528D01*
X170474294Y-61233510D01*
X170571531Y-61252060D01*
X170740718Y-61284334D01*
X170756044Y-61288269D01*
X171013995Y-61372082D01*
X171028707Y-61377907D01*
X171274117Y-61493388D01*
X171287983Y-61501011D01*
X171516981Y-61646338D01*
X171529782Y-61655638D01*
X171738766Y-61828524D01*
X171750301Y-61839356D01*
X171935967Y-62037071D01*
X171946053Y-62049263D01*
X172105477Y-62268690D01*
X172113948Y-62282038D01*
X172173156Y-62389737D01*
X172244616Y-62519723D01*
X172251353Y-62534040D01*
X172351199Y-62786222D01*
X172356088Y-62801270D01*
X172414272Y-63027878D01*
X172423538Y-63063968D01*
X172426500Y-63079489D01*
X172460497Y-63348608D01*
X172461489Y-63364385D01*
X172461489Y-63635615D01*
X172460497Y-63651392D01*
X172426500Y-63920511D01*
X172423539Y-63936026D01*
X172362963Y-64171954D01*
X172356088Y-64198729D01*
X172351199Y-64213778D01*
X172251353Y-64465960D01*
X172244616Y-64480277D01*
X172113948Y-64717962D01*
X172105477Y-64731310D01*
X172031880Y-64832607D01*
X171946053Y-64950737D01*
X171935967Y-64962929D01*
X171750301Y-65160644D01*
X171738766Y-65171476D01*
X171529782Y-65344362D01*
X171516981Y-65353662D01*
X171287983Y-65498989D01*
X171274117Y-65506612D01*
X171028707Y-65622093D01*
X171013995Y-65627918D01*
X170756044Y-65711731D01*
X170740718Y-65715666D01*
X170585798Y-65745219D01*
X170474294Y-65766490D01*
X170458602Y-65768472D01*
X170301344Y-65778365D01*
X170215391Y-65783773D01*
X170204579Y-65783050D01*
X170204579Y-65783445D01*
X170192172Y-65783445D01*
X170180000Y-65781024D01*
X170167153Y-65783579D01*
X170142575Y-65786000D01*
X167677425Y-65786000D01*
X167652847Y-65783579D01*
X167640000Y-65781024D01*
X167631498Y-65782715D01*
X167622295Y-65783373D01*
X167622294Y-65783373D01*
X167427046Y-65797338D01*
X167422558Y-65797659D01*
X167369897Y-65809115D01*
X167213940Y-65843040D01*
X167213933Y-65843042D01*
X167209543Y-65843997D01*
X167205328Y-65845569D01*
X167205325Y-65845570D01*
X167009502Y-65918608D01*
X167005290Y-65920179D01*
X166813958Y-66024654D01*
X166639443Y-66155295D01*
X166485295Y-66309443D01*
X166354654Y-66483958D01*
X166352495Y-66487912D01*
X166288535Y-66605047D01*
X166250179Y-66675290D01*
X166248608Y-66679502D01*
X166189410Y-66838220D01*
X166173997Y-66879543D01*
X166173042Y-66883933D01*
X166173040Y-66883940D01*
X166148271Y-66997805D01*
X166127659Y-67092558D01*
X166127338Y-67097046D01*
X166114567Y-67275611D01*
X166112715Y-67301498D01*
X166111024Y-67310000D01*
X166113445Y-67322170D01*
X166113579Y-67322844D01*
X166116000Y-67347425D01*
X166116000Y-79474000D01*
X166095998Y-79542121D01*
X166042342Y-79588614D01*
X165990000Y-79600000D01*
X164454814Y-79600000D01*
X164386693Y-79579998D01*
X164340200Y-79526342D01*
X164330096Y-79456068D01*
X164359590Y-79391488D01*
X164419316Y-79353104D01*
X164436734Y-79349304D01*
X164519905Y-79337245D01*
X164531101Y-79334557D01*
X164717343Y-79271336D01*
X164727840Y-79266662D01*
X164846401Y-79200266D01*
X164856264Y-79190189D01*
X164853309Y-79182519D01*
X164272812Y-78602022D01*
X164258868Y-78594408D01*
X164257035Y-78594539D01*
X164250420Y-78598790D01*
X163671237Y-79177973D01*
X163665041Y-79189319D01*
X163674923Y-79201809D01*
X163712259Y-79226756D01*
X163722371Y-79232247D01*
X163903081Y-79309885D01*
X163914014Y-79313437D01*
X164080488Y-79351107D01*
X164142515Y-79385650D01*
X164176019Y-79448244D01*
X164170365Y-79519015D01*
X164127346Y-79575494D01*
X164060621Y-79599750D01*
X164052680Y-79600000D01*
X160697057Y-79600000D01*
X160628936Y-79579998D01*
X160582443Y-79526342D01*
X160572339Y-79456068D01*
X160601833Y-79391488D01*
X160643807Y-79359805D01*
X160716416Y-79325947D01*
X160725912Y-79320464D01*
X160767148Y-79291590D01*
X160775523Y-79281113D01*
X160768455Y-79267667D01*
X159819884Y-78319095D01*
X159785859Y-78256783D01*
X159787694Y-78231132D01*
X160454408Y-78231132D01*
X160454539Y-78232966D01*
X160458790Y-78239580D01*
X161128391Y-78909180D01*
X161140161Y-78915607D01*
X161152176Y-78906311D01*
X161180466Y-78865907D01*
X161185946Y-78856417D01*
X161274326Y-78666887D01*
X161278072Y-78656595D01*
X161332196Y-78454599D01*
X161334099Y-78443804D01*
X161352326Y-78235475D01*
X161352326Y-78224525D01*
X161350703Y-78205980D01*
X163122914Y-78205980D01*
X163135777Y-78402233D01*
X163137577Y-78413601D01*
X163185991Y-78604228D01*
X163189829Y-78615066D01*
X163272173Y-78793685D01*
X163277922Y-78803642D01*
X163287850Y-78817690D01*
X163298439Y-78826078D01*
X163311740Y-78819050D01*
X163887978Y-78242812D01*
X163894356Y-78231132D01*
X164624408Y-78231132D01*
X164624539Y-78232965D01*
X164628790Y-78239580D01*
X165208603Y-78819393D01*
X165220983Y-78826153D01*
X165227563Y-78821227D01*
X165296662Y-78697840D01*
X165301336Y-78687343D01*
X165364557Y-78501101D01*
X165367245Y-78489905D01*
X165395762Y-78293224D01*
X165396392Y-78285843D01*
X165397757Y-78233704D01*
X165397514Y-78226305D01*
X165379330Y-78028397D01*
X165377233Y-78017083D01*
X165323846Y-77827789D01*
X165319724Y-77817050D01*
X165232736Y-77640656D01*
X165231577Y-77638765D01*
X165222732Y-77632126D01*
X165210312Y-77638898D01*
X164632022Y-78217188D01*
X164624408Y-78231132D01*
X163894356Y-78231132D01*
X163895592Y-78228868D01*
X163895461Y-78227035D01*
X163891210Y-78220420D01*
X163310031Y-77639241D01*
X163297651Y-77632481D01*
X163291685Y-77636947D01*
X163211452Y-77789445D01*
X163207047Y-77800079D01*
X163148724Y-77987910D01*
X163146332Y-77999164D01*
X163123215Y-78194479D01*
X163122914Y-78205980D01*
X161350703Y-78205980D01*
X161334099Y-78016196D01*
X161332196Y-78005401D01*
X161278072Y-77803405D01*
X161274326Y-77793113D01*
X161185946Y-77603583D01*
X161180466Y-77594093D01*
X161151589Y-77552851D01*
X161141113Y-77544477D01*
X161127666Y-77551545D01*
X160462021Y-78217189D01*
X160454408Y-78231132D01*
X159787694Y-78231132D01*
X159790924Y-78185967D01*
X159819885Y-78140905D01*
X160090000Y-77870790D01*
X160690353Y-77270436D01*
X163664547Y-77270436D01*
X163668033Y-77278823D01*
X164247188Y-77857978D01*
X164261132Y-77865592D01*
X164262965Y-77865461D01*
X164269580Y-77861210D01*
X164848407Y-77282383D01*
X164855167Y-77270003D01*
X164849137Y-77261948D01*
X164781459Y-77219246D01*
X164771211Y-77214025D01*
X164588531Y-77141143D01*
X164577504Y-77137876D01*
X164384605Y-77099506D01*
X164373159Y-77098303D01*
X164176507Y-77095730D01*
X164165027Y-77096633D01*
X163971199Y-77129938D01*
X163960079Y-77132918D01*
X163775557Y-77200992D01*
X163765179Y-77205942D01*
X163674146Y-77260101D01*
X163664547Y-77270436D01*
X160690353Y-77270436D01*
X160769176Y-77191613D01*
X160775606Y-77179838D01*
X160766310Y-77167824D01*
X160725912Y-77139536D01*
X160716411Y-77134050D01*
X160643684Y-77100137D01*
X160590400Y-77053220D01*
X160570939Y-76984943D01*
X160591481Y-76916983D01*
X160645504Y-76870917D01*
X160659445Y-76865650D01*
X160817067Y-76816533D01*
X161064587Y-76705134D01*
X161069965Y-76701883D01*
X161293609Y-76566685D01*
X161293612Y-76566683D01*
X161296874Y-76564711D01*
X161510542Y-76397314D01*
X161702474Y-76205382D01*
X161810725Y-76067209D01*
X161867517Y-75994719D01*
X161867519Y-75994716D01*
X161869871Y-75991714D01*
X161887407Y-75962707D01*
X162008324Y-75762686D01*
X162008325Y-75762684D01*
X162010294Y-75759427D01*
X162030874Y-75713701D01*
X162079519Y-75605614D01*
X162121693Y-75511907D01*
X162128947Y-75488630D01*
X162201313Y-75256397D01*
X162201313Y-75256396D01*
X162202445Y-75252764D01*
X162251372Y-74985777D01*
X162255495Y-74917626D01*
X162262598Y-74800192D01*
X162265655Y-74749649D01*
X162267172Y-74736353D01*
X162267889Y-74732092D01*
X162267889Y-74732087D01*
X162268696Y-74727293D01*
X162268848Y-74714840D01*
X162264933Y-74687502D01*
X162263660Y-74669641D01*
X162263660Y-68086073D01*
X162265406Y-68065168D01*
X162267889Y-68050407D01*
X162268696Y-68045613D01*
X162268848Y-68033160D01*
X162268158Y-68028344D01*
X162268158Y-68028337D01*
X162267839Y-68026111D01*
X162266838Y-68016501D01*
X162251141Y-67777015D01*
X162251140Y-67777011D01*
X162250871Y-67772900D01*
X162250067Y-67768857D01*
X162200793Y-67521138D01*
X162200791Y-67521132D01*
X162199988Y-67517093D01*
X162193793Y-67498841D01*
X162117477Y-67274022D01*
X162117476Y-67274021D01*
X162116151Y-67270116D01*
X162061579Y-67159455D01*
X162002621Y-67039899D01*
X162002618Y-67039894D01*
X162000794Y-67036195D01*
X161951557Y-66962507D01*
X161858184Y-66822764D01*
X161858180Y-66822759D01*
X161855891Y-66819333D01*
X161853177Y-66816239D01*
X161853173Y-66816233D01*
X161686630Y-66626328D01*
X161683921Y-66623239D01*
X161539287Y-66496398D01*
X161490927Y-66453987D01*
X161490921Y-66453983D01*
X161487827Y-66451269D01*
X161484401Y-66448980D01*
X161484396Y-66448976D01*
X161301909Y-66327042D01*
X161270965Y-66306366D01*
X161267266Y-66304542D01*
X161267261Y-66304539D01*
X161120711Y-66232269D01*
X161037044Y-66191009D01*
X161023157Y-66186295D01*
X160793974Y-66108498D01*
X160793971Y-66108497D01*
X160790067Y-66107172D01*
X160786028Y-66106369D01*
X160786022Y-66106367D01*
X160619987Y-66073341D01*
X160534260Y-66056289D01*
X160530152Y-66056020D01*
X160530146Y-66056019D01*
X160420652Y-66048843D01*
X160308234Y-66041475D01*
X160295573Y-66039999D01*
X160293096Y-66039582D01*
X160291256Y-66039272D01*
X160291254Y-66039272D01*
X160286453Y-66038464D01*
X160280063Y-66038386D01*
X160278860Y-66038371D01*
X160278856Y-66038371D01*
X160274000Y-66038312D01*
X160246662Y-66042227D01*
X160228801Y-66043500D01*
X148134913Y-66043500D01*
X148114008Y-66041754D01*
X148094453Y-66038464D01*
X148088325Y-66038389D01*
X148086864Y-66038371D01*
X148086859Y-66038371D01*
X148082000Y-66038312D01*
X148077183Y-66039002D01*
X148077180Y-66039002D01*
X148072514Y-66039670D01*
X148062895Y-66040672D01*
X147837387Y-66055453D01*
X147837383Y-66055454D01*
X147833272Y-66055723D01*
X147829232Y-66056527D01*
X147829229Y-66056527D01*
X147592849Y-66103545D01*
X147592843Y-66103547D01*
X147588799Y-66104351D01*
X147584893Y-66105677D01*
X147584889Y-66105678D01*
X147514327Y-66129631D01*
X147352766Y-66184474D01*
X147349075Y-66186294D01*
X147349073Y-66186295D01*
X147217568Y-66251147D01*
X147129210Y-66294720D01*
X147125777Y-66297014D01*
X147125775Y-66297015D01*
X146925388Y-66430909D01*
X146925383Y-66430913D01*
X146921957Y-66433202D01*
X146918863Y-66435916D01*
X146918857Y-66435920D01*
X146737641Y-66594843D01*
X146734552Y-66597552D01*
X146731843Y-66600641D01*
X146572920Y-66781857D01*
X146572916Y-66781863D01*
X146570202Y-66784957D01*
X146567913Y-66788383D01*
X146567909Y-66788388D01*
X146451567Y-66962507D01*
X146431720Y-66992210D01*
X146399825Y-67056887D01*
X146340178Y-67177839D01*
X146321474Y-67215766D01*
X146320150Y-67219667D01*
X146246647Y-67436197D01*
X146210165Y-67490642D01*
X146200766Y-67498841D01*
X146200762Y-67498846D01*
X146195039Y-67503838D01*
X146103950Y-67633444D01*
X146082772Y-67687763D01*
X146051155Y-67768857D01*
X146046406Y-67781037D01*
X146045414Y-67788570D01*
X146045414Y-67788571D01*
X146035633Y-67862870D01*
X146025729Y-67938096D01*
X146031764Y-67992754D01*
X146040791Y-68074517D01*
X146043113Y-68095553D01*
X146045723Y-68102684D01*
X146045723Y-68102686D01*
X146079258Y-68194324D01*
X146097553Y-68244319D01*
X146101789Y-68250622D01*
X146101789Y-68250623D01*
X146154487Y-68329045D01*
X146185908Y-68375805D01*
X146191527Y-68380918D01*
X146191528Y-68380919D01*
X146202903Y-68391269D01*
X146303076Y-68482419D01*
X146442293Y-68558008D01*
X146595522Y-68598207D01*
X146679477Y-68599526D01*
X146746319Y-68600576D01*
X146746322Y-68600576D01*
X146753916Y-68600695D01*
X146908332Y-68565329D01*
X146978742Y-68529917D01*
X147043072Y-68497563D01*
X147043075Y-68497561D01*
X147049855Y-68494151D01*
X147055626Y-68489222D01*
X147055629Y-68489220D01*
X147164536Y-68396204D01*
X147164536Y-68396203D01*
X147170314Y-68391269D01*
X147262755Y-68262624D01*
X147321842Y-68115641D01*
X147335951Y-68016501D01*
X147343581Y-67962891D01*
X147343581Y-67962888D01*
X147344162Y-67958807D01*
X147344307Y-67945000D01*
X147325276Y-67787733D01*
X147276601Y-67658920D01*
X147271233Y-67588127D01*
X147283343Y-67554990D01*
X147334065Y-67460096D01*
X147347786Y-67439562D01*
X147443034Y-67323501D01*
X147460501Y-67306034D01*
X147576562Y-67210786D01*
X147597099Y-67197064D01*
X147729512Y-67126287D01*
X147752332Y-67116835D01*
X147896006Y-67073252D01*
X147920232Y-67068433D01*
X148041999Y-67056440D01*
X148057916Y-67056887D01*
X148057925Y-67056159D01*
X148066902Y-67056269D01*
X148075773Y-67057650D01*
X148084675Y-67056486D01*
X148084678Y-67056486D01*
X148107019Y-67053564D01*
X148123357Y-67052500D01*
X160224946Y-67052500D01*
X160244331Y-67054000D01*
X160258901Y-67056269D01*
X160258904Y-67056269D01*
X160267773Y-67057650D01*
X160276675Y-67056486D01*
X160276678Y-67056486D01*
X160280239Y-67056020D01*
X160307552Y-67055436D01*
X160397368Y-67063293D01*
X160433311Y-67066437D01*
X160454940Y-67070252D01*
X160598759Y-67108789D01*
X160619397Y-67116300D01*
X160754340Y-67179225D01*
X160773361Y-67190207D01*
X160895330Y-67275611D01*
X160912154Y-67289729D01*
X161017431Y-67395006D01*
X161031549Y-67411830D01*
X161116953Y-67533799D01*
X161127935Y-67552820D01*
X161190860Y-67687763D01*
X161198371Y-67708401D01*
X161236908Y-67852220D01*
X161240723Y-67873851D01*
X161251125Y-67992754D01*
X161250576Y-68009081D01*
X161251002Y-68009086D01*
X161250892Y-68018056D01*
X161249510Y-68026933D01*
X161250675Y-68035840D01*
X161253596Y-68058179D01*
X161254660Y-68074517D01*
X161254660Y-74665786D01*
X161253160Y-74685171D01*
X161249510Y-74708613D01*
X161251321Y-74722464D01*
X161251997Y-74748677D01*
X161248536Y-74792652D01*
X161240237Y-74898099D01*
X161237144Y-74917626D01*
X161196547Y-75086729D01*
X161190439Y-75105529D01*
X161123883Y-75266207D01*
X161114913Y-75283812D01*
X161024040Y-75432104D01*
X161012418Y-75448099D01*
X160899477Y-75580336D01*
X160885496Y-75594317D01*
X160753259Y-75707258D01*
X160737266Y-75718879D01*
X160588972Y-75809753D01*
X160571367Y-75818723D01*
X160410689Y-75885279D01*
X160391891Y-75891386D01*
X160307338Y-75911685D01*
X160222786Y-75931984D01*
X160203260Y-75935077D01*
X160064353Y-75946009D01*
X160042159Y-75945029D01*
X160042098Y-75945706D01*
X160037251Y-75945271D01*
X160032453Y-75944464D01*
X160026492Y-75944391D01*
X160026227Y-75944350D01*
X160025961Y-75944385D01*
X160020000Y-75944312D01*
X160015184Y-75945002D01*
X160015178Y-75945002D01*
X160011297Y-75945558D01*
X160001682Y-75946560D01*
X159885973Y-75954145D01*
X159771721Y-75961633D01*
X159771717Y-75961634D01*
X159767606Y-75961903D01*
X159763566Y-75962707D01*
X159763563Y-75962707D01*
X159523577Y-76010443D01*
X159523571Y-76010445D01*
X159519532Y-76011248D01*
X159515628Y-76012573D01*
X159515625Y-76012574D01*
X159283935Y-76091222D01*
X159280020Y-76092551D01*
X159276324Y-76094374D01*
X159276316Y-76094377D01*
X159107308Y-76177724D01*
X159053170Y-76204422D01*
X158842863Y-76344945D01*
X158652696Y-76511716D01*
X158485925Y-76701883D01*
X158345402Y-76912190D01*
X158343576Y-76915893D01*
X158235357Y-77135336D01*
X158235354Y-77135344D01*
X158233531Y-77139040D01*
X158232202Y-77142954D01*
X158232202Y-77142955D01*
X158162944Y-77346985D01*
X158152228Y-77378552D01*
X158151425Y-77382591D01*
X158151423Y-77382597D01*
X158104193Y-77620039D01*
X158102883Y-77626626D01*
X158102614Y-77630737D01*
X158102613Y-77630741D01*
X158099120Y-77684035D01*
X158088742Y-77842381D01*
X158088667Y-77843521D01*
X158087190Y-77856188D01*
X158085444Y-77866567D01*
X158085292Y-77879020D01*
X158085982Y-77883835D01*
X158089207Y-77906356D01*
X158090480Y-77924219D01*
X158090480Y-91376775D01*
X158090387Y-91379674D01*
X158090003Y-91382377D01*
X158090068Y-91387242D01*
X158090469Y-91417490D01*
X158090480Y-91419162D01*
X158090480Y-91419950D01*
X158090238Y-91424769D01*
X158088745Y-91430802D01*
X158091346Y-91492840D01*
X158091451Y-91495356D01*
X158091550Y-91498942D01*
X158091893Y-91524789D01*
X158092587Y-91529217D01*
X158092919Y-91533140D01*
X158093117Y-91536267D01*
X158093190Y-91536879D01*
X158093394Y-91541742D01*
X158094345Y-91546523D01*
X158098358Y-91566702D01*
X158099258Y-91571763D01*
X158102277Y-91591014D01*
X158108609Y-91631402D01*
X158111323Y-91637165D01*
X158114933Y-91655268D01*
X158114625Y-91661930D01*
X158116744Y-91670654D01*
X158116744Y-91670657D01*
X158128784Y-91720236D01*
X158129922Y-91725389D01*
X158133885Y-91745313D01*
X158129334Y-91811226D01*
X158122043Y-91832222D01*
X158121182Y-91838160D01*
X158104249Y-91954949D01*
X158091801Y-92040800D01*
X158101545Y-92251333D01*
X158150924Y-92456226D01*
X158153406Y-92461684D01*
X158153407Y-92461688D01*
X158178435Y-92516734D01*
X158238157Y-92648084D01*
X158360096Y-92819986D01*
X158512340Y-92965728D01*
X158517375Y-92968979D01*
X158578664Y-93008553D01*
X158625042Y-93062308D01*
X158634995Y-93132604D01*
X158605363Y-93197121D01*
X158545555Y-93235377D01*
X158523319Y-93239732D01*
X158450794Y-93247257D01*
X158437400Y-93250149D01*
X158283216Y-93301588D01*
X158270038Y-93307761D01*
X158132193Y-93393063D01*
X158120792Y-93402099D01*
X158006261Y-93516829D01*
X157997249Y-93528240D01*
X157912184Y-93666243D01*
X157906037Y-93679424D01*
X157854862Y-93833710D01*
X157851995Y-93847086D01*
X157842328Y-93941438D01*
X157842000Y-93947855D01*
X157842000Y-94322885D01*
X157846475Y-94338124D01*
X157847865Y-94339329D01*
X157855548Y-94341000D01*
X160689884Y-94341000D01*
X160705123Y-94336525D01*
X160706328Y-94335135D01*
X160707999Y-94327452D01*
X160707999Y-93947905D01*
X160707662Y-93941386D01*
X160697743Y-93845794D01*
X160694851Y-93832400D01*
X160643412Y-93678216D01*
X160637239Y-93665038D01*
X160551937Y-93527193D01*
X160542901Y-93515792D01*
X160428171Y-93401261D01*
X160416760Y-93392249D01*
X160278757Y-93307184D01*
X160265576Y-93301037D01*
X160111290Y-93249862D01*
X160097914Y-93246995D01*
X160030919Y-93240131D01*
X159965192Y-93213290D01*
X159924410Y-93155176D01*
X159921520Y-93084238D01*
X159957442Y-93022999D01*
X159965928Y-93015701D01*
X160110431Y-92902192D01*
X160115149Y-92898486D01*
X160119081Y-92893955D01*
X160249350Y-92743835D01*
X160249354Y-92743830D01*
X160253281Y-92739304D01*
X160358819Y-92556874D01*
X160427957Y-92357778D01*
X160429286Y-92348616D01*
X160457338Y-92155140D01*
X160457338Y-92155137D01*
X160458199Y-92149200D01*
X160448455Y-91938667D01*
X160446441Y-91930308D01*
X160400482Y-91739607D01*
X160400481Y-91739605D01*
X160399076Y-91733774D01*
X160394086Y-91722798D01*
X160344484Y-91613706D01*
X160311843Y-91541916D01*
X160202125Y-91387242D01*
X160193370Y-91374900D01*
X160193369Y-91374899D01*
X160189904Y-91370014D01*
X160037660Y-91224272D01*
X159917228Y-91146510D01*
X159865640Y-91113200D01*
X159865637Y-91113199D01*
X159860603Y-91109948D01*
X159665122Y-91031166D01*
X159530901Y-91004955D01*
X159462717Y-90991639D01*
X159462714Y-90991639D01*
X159458271Y-90990771D01*
X159452730Y-90990500D01*
X159225480Y-90990500D01*
X159157359Y-90970498D01*
X159110866Y-90916842D01*
X159099480Y-90864500D01*
X159099480Y-87954208D01*
X159119482Y-87886087D01*
X159173138Y-87839594D01*
X159243412Y-87829490D01*
X159297751Y-87850995D01*
X159454089Y-87960464D01*
X159463584Y-87965947D01*
X159653113Y-88054326D01*
X159663405Y-88058072D01*
X159865401Y-88112196D01*
X159876196Y-88114099D01*
X160084525Y-88132326D01*
X160095475Y-88132326D01*
X160303804Y-88114099D01*
X160314599Y-88112196D01*
X160516595Y-88058072D01*
X160526887Y-88054326D01*
X160716416Y-87965947D01*
X160725912Y-87960464D01*
X160767148Y-87931590D01*
X160775523Y-87921113D01*
X160768455Y-87907667D01*
X160690107Y-87829319D01*
X163665041Y-87829319D01*
X163674923Y-87841809D01*
X163712259Y-87866756D01*
X163722371Y-87872247D01*
X163903081Y-87949885D01*
X163914014Y-87953437D01*
X164105844Y-87996845D01*
X164117253Y-87998347D01*
X164313783Y-88006068D01*
X164325265Y-88005466D01*
X164519905Y-87977245D01*
X164531101Y-87974557D01*
X164717343Y-87911336D01*
X164727840Y-87906662D01*
X164846401Y-87840266D01*
X164856264Y-87830189D01*
X164853309Y-87822519D01*
X164272812Y-87242022D01*
X164258868Y-87234408D01*
X164257035Y-87234539D01*
X164250420Y-87238790D01*
X163671237Y-87817973D01*
X163665041Y-87829319D01*
X160690107Y-87829319D01*
X159819884Y-86959095D01*
X159785859Y-86896783D01*
X159787694Y-86871132D01*
X160454408Y-86871132D01*
X160454539Y-86872966D01*
X160458790Y-86879580D01*
X161128391Y-87549180D01*
X161140161Y-87555607D01*
X161152176Y-87546311D01*
X161180466Y-87505907D01*
X161185946Y-87496417D01*
X161274326Y-87306887D01*
X161278072Y-87296595D01*
X161332196Y-87094599D01*
X161334099Y-87083804D01*
X161352326Y-86875475D01*
X161352326Y-86864525D01*
X161350703Y-86845980D01*
X163122914Y-86845980D01*
X163135777Y-87042233D01*
X163137577Y-87053601D01*
X163185991Y-87244228D01*
X163189829Y-87255066D01*
X163272173Y-87433685D01*
X163277922Y-87443642D01*
X163287850Y-87457690D01*
X163298439Y-87466078D01*
X163311740Y-87459050D01*
X163887978Y-86882812D01*
X163894356Y-86871132D01*
X164624408Y-86871132D01*
X164624539Y-86872965D01*
X164628790Y-86879580D01*
X165208603Y-87459393D01*
X165220983Y-87466153D01*
X165227563Y-87461227D01*
X165296662Y-87337840D01*
X165301336Y-87327343D01*
X165364557Y-87141101D01*
X165367245Y-87129905D01*
X165395762Y-86933224D01*
X165396392Y-86925843D01*
X165397757Y-86873704D01*
X165397514Y-86866305D01*
X165379330Y-86668397D01*
X165377233Y-86657083D01*
X165323846Y-86467789D01*
X165319724Y-86457050D01*
X165232736Y-86280656D01*
X165231577Y-86278765D01*
X165222732Y-86272126D01*
X165210312Y-86278898D01*
X164632022Y-86857188D01*
X164624408Y-86871132D01*
X163894356Y-86871132D01*
X163895592Y-86868868D01*
X163895461Y-86867035D01*
X163891210Y-86860420D01*
X163310031Y-86279241D01*
X163297651Y-86272481D01*
X163291685Y-86276947D01*
X163211452Y-86429445D01*
X163207047Y-86440079D01*
X163148724Y-86627910D01*
X163146332Y-86639164D01*
X163123215Y-86834479D01*
X163122914Y-86845980D01*
X161350703Y-86845980D01*
X161334099Y-86656196D01*
X161332196Y-86645401D01*
X161278072Y-86443405D01*
X161274326Y-86433113D01*
X161185946Y-86243583D01*
X161180466Y-86234093D01*
X161151589Y-86192851D01*
X161141113Y-86184477D01*
X161127666Y-86191545D01*
X160462021Y-86857189D01*
X160454408Y-86871132D01*
X159787694Y-86871132D01*
X159790924Y-86825967D01*
X159819885Y-86780905D01*
X160090000Y-86510790D01*
X160769176Y-85831613D01*
X160775606Y-85819838D01*
X160766310Y-85807824D01*
X160725912Y-85779536D01*
X160716416Y-85774053D01*
X160643807Y-85740195D01*
X160590522Y-85693277D01*
X160571061Y-85625000D01*
X160591603Y-85557040D01*
X160645626Y-85510975D01*
X160697057Y-85500000D01*
X164064849Y-85500000D01*
X164132970Y-85520002D01*
X164179463Y-85573658D01*
X164189567Y-85643932D01*
X164160073Y-85708512D01*
X164100347Y-85746896D01*
X164086187Y-85750180D01*
X163971199Y-85769938D01*
X163960079Y-85772918D01*
X163775557Y-85840992D01*
X163765179Y-85845942D01*
X163674146Y-85900101D01*
X163664547Y-85910436D01*
X163668033Y-85918823D01*
X164247188Y-86497978D01*
X164261132Y-86505592D01*
X164262965Y-86505461D01*
X164269580Y-86501210D01*
X164848407Y-85922383D01*
X164855167Y-85910003D01*
X164849137Y-85901948D01*
X164781459Y-85859246D01*
X164771211Y-85854025D01*
X164588531Y-85781143D01*
X164577504Y-85777876D01*
X164435244Y-85749579D01*
X164372334Y-85716671D01*
X164337202Y-85654976D01*
X164341002Y-85584082D01*
X164382528Y-85526496D01*
X164448595Y-85500501D01*
X164459825Y-85500000D01*
X165990000Y-85500000D01*
X166058121Y-85520002D01*
X166104614Y-85573658D01*
X166116000Y-85626000D01*
X166116000Y-97752575D01*
X166113579Y-97777153D01*
X166111024Y-97790000D01*
X166112715Y-97798502D01*
X166127659Y-98007442D01*
X166128615Y-98011836D01*
X166173040Y-98216060D01*
X166173042Y-98216067D01*
X166173997Y-98220457D01*
X166250179Y-98424710D01*
X166354654Y-98616042D01*
X166485295Y-98790557D01*
X166639443Y-98944705D01*
X166813958Y-99075346D01*
X167005290Y-99179821D01*
X167009502Y-99181392D01*
X167205325Y-99254430D01*
X167205328Y-99254431D01*
X167209543Y-99256003D01*
X167213933Y-99256958D01*
X167213940Y-99256960D01*
X167369897Y-99290885D01*
X167422558Y-99302341D01*
X167427046Y-99302662D01*
X167622185Y-99316619D01*
X167631498Y-99317285D01*
X167640000Y-99318976D01*
X167652847Y-99316421D01*
X167677425Y-99314000D01*
X170142575Y-99314000D01*
X170167153Y-99316421D01*
X170180000Y-99318976D01*
X170192172Y-99316555D01*
X170204579Y-99316555D01*
X170204579Y-99316950D01*
X170215391Y-99316227D01*
X170301344Y-99321635D01*
X170458602Y-99331528D01*
X170474294Y-99333510D01*
X170571531Y-99352060D01*
X170740718Y-99384334D01*
X170756044Y-99388269D01*
X171013995Y-99472082D01*
X171028707Y-99477907D01*
X171177299Y-99547829D01*
X171236928Y-99575888D01*
X171274117Y-99593388D01*
X171287983Y-99601011D01*
X171516981Y-99746338D01*
X171529782Y-99755638D01*
X171738766Y-99928524D01*
X171750301Y-99939356D01*
X171935967Y-100137071D01*
X171946053Y-100149263D01*
X172105477Y-100368690D01*
X172113948Y-100382038D01*
X172177063Y-100496844D01*
X172244616Y-100619723D01*
X172251353Y-100634040D01*
X172351199Y-100886222D01*
X172356088Y-100901270D01*
X172422741Y-101160863D01*
X172423538Y-101163968D01*
X172426500Y-101179489D01*
X172460497Y-101448608D01*
X172461489Y-101464385D01*
X172461489Y-101735615D01*
X172460497Y-101751392D01*
X172426500Y-102020511D01*
X172423539Y-102036026D01*
X172362963Y-102271954D01*
X172356088Y-102298729D01*
X172351199Y-102313778D01*
X172251353Y-102565960D01*
X172244616Y-102580277D01*
X172213356Y-102637139D01*
X172113948Y-102817962D01*
X172105477Y-102831310D01*
X172029986Y-102935214D01*
X171946053Y-103050737D01*
X171935967Y-103062929D01*
X171750301Y-103260644D01*
X171738766Y-103271476D01*
X171529782Y-103444362D01*
X171516981Y-103453662D01*
X171287983Y-103598989D01*
X171274117Y-103606612D01*
X171028707Y-103722093D01*
X171013995Y-103727918D01*
X170756044Y-103811731D01*
X170740718Y-103815666D01*
X170571531Y-103847940D01*
X170474294Y-103866490D01*
X170458602Y-103868472D01*
X170301344Y-103878365D01*
X170215391Y-103883773D01*
X170204579Y-103883050D01*
X170204579Y-103883445D01*
X170192172Y-103883445D01*
X170180000Y-103881024D01*
X170167153Y-103883579D01*
X170142575Y-103886000D01*
X132117425Y-103886000D01*
X132092847Y-103883579D01*
X132080000Y-103881024D01*
X132067828Y-103883445D01*
X132055421Y-103883445D01*
X132055421Y-103883050D01*
X132044609Y-103883773D01*
X131958656Y-103878365D01*
X131801398Y-103868472D01*
X131785706Y-103866490D01*
X131688469Y-103847940D01*
X131519282Y-103815666D01*
X131503956Y-103811731D01*
X131246005Y-103727918D01*
X131231293Y-103722093D01*
X130985883Y-103606612D01*
X130972017Y-103598989D01*
X130743019Y-103453662D01*
X130730218Y-103444362D01*
X130521234Y-103271476D01*
X130509699Y-103260644D01*
X130324033Y-103062929D01*
X130313947Y-103050737D01*
X130230014Y-102935214D01*
X130154523Y-102831310D01*
X130146052Y-102817962D01*
X130046644Y-102637139D01*
X130015384Y-102580277D01*
X130008647Y-102565960D01*
X129908801Y-102313778D01*
X129903912Y-102298729D01*
X129897037Y-102271954D01*
X129836461Y-102036026D01*
X129833500Y-102020511D01*
X129799503Y-101751392D01*
X129798511Y-101735615D01*
X129798511Y-101563827D01*
X130599885Y-101563827D01*
X130600182Y-101568979D01*
X130600182Y-101568983D01*
X130609790Y-101735615D01*
X130613852Y-101806054D01*
X130614989Y-101811100D01*
X130614990Y-101811106D01*
X130625771Y-101858945D01*
X130667193Y-102042747D01*
X130669135Y-102047529D01*
X130669136Y-102047533D01*
X130710610Y-102149670D01*
X130758476Y-102267550D01*
X130885249Y-102474425D01*
X131044109Y-102657818D01*
X131230787Y-102812801D01*
X131440272Y-102935214D01*
X131666938Y-103021770D01*
X131672004Y-103022801D01*
X131672005Y-103022801D01*
X131730326Y-103034666D01*
X131904696Y-103070142D01*
X132041350Y-103075153D01*
X132141998Y-103078844D01*
X132142002Y-103078844D01*
X132147162Y-103079033D01*
X132152282Y-103078377D01*
X132152284Y-103078377D01*
X132228754Y-103068581D01*
X132387825Y-103048203D01*
X132392774Y-103046718D01*
X132392780Y-103046717D01*
X132615278Y-102979964D01*
X132620221Y-102978481D01*
X132624855Y-102976211D01*
X132833474Y-102874010D01*
X132833477Y-102874008D01*
X132838109Y-102871739D01*
X132925371Y-102809496D01*
X133031433Y-102733843D01*
X133031435Y-102733841D01*
X133035637Y-102730844D01*
X133207501Y-102559578D01*
X133349085Y-102362543D01*
X133377021Y-102306020D01*
X133420130Y-102218794D01*
X133456587Y-102145029D01*
X133486768Y-102045693D01*
X133525616Y-101917830D01*
X133525617Y-101917824D01*
X133527120Y-101912878D01*
X133558789Y-101672325D01*
X133559229Y-101654344D01*
X133560475Y-101603364D01*
X133560475Y-101603360D01*
X133560557Y-101600000D01*
X133542068Y-101375115D01*
X133541100Y-101363338D01*
X133541099Y-101363332D01*
X133540676Y-101358187D01*
X133494085Y-101172698D01*
X133482827Y-101127878D01*
X133482826Y-101127874D01*
X133481568Y-101122867D01*
X133468911Y-101093758D01*
X133386880Y-100905099D01*
X133386878Y-100905096D01*
X133384820Y-100900362D01*
X133271330Y-100724933D01*
X134785500Y-100724933D01*
X134785501Y-102475066D01*
X134800266Y-102549301D01*
X134807161Y-102559620D01*
X134807162Y-102559622D01*
X134847516Y-102620015D01*
X134856516Y-102633484D01*
X134940699Y-102689734D01*
X135014933Y-102704500D01*
X135889858Y-102704500D01*
X136765066Y-102704499D01*
X136800818Y-102697388D01*
X136827126Y-102692156D01*
X136827128Y-102692155D01*
X136839301Y-102689734D01*
X136849621Y-102682839D01*
X136849622Y-102682838D01*
X136913168Y-102640377D01*
X136923484Y-102633484D01*
X136968603Y-102565960D01*
X136972839Y-102559620D01*
X136979734Y-102549301D01*
X136994500Y-102475067D01*
X136994499Y-101570964D01*
X137321148Y-101570964D01*
X137334424Y-101773522D01*
X137335845Y-101779118D01*
X137335846Y-101779123D01*
X137356119Y-101858945D01*
X137384392Y-101970269D01*
X137386809Y-101975512D01*
X137464957Y-102145029D01*
X137469377Y-102154616D01*
X137586533Y-102320389D01*
X137731938Y-102462035D01*
X137900720Y-102574812D01*
X137906023Y-102577090D01*
X137906026Y-102577092D01*
X138081921Y-102652662D01*
X138087228Y-102654942D01*
X138160244Y-102671464D01*
X138279579Y-102698467D01*
X138279584Y-102698468D01*
X138285216Y-102699742D01*
X138290987Y-102699969D01*
X138290989Y-102699969D01*
X138350756Y-102702317D01*
X138488053Y-102707712D01*
X138595348Y-102692155D01*
X138683231Y-102679413D01*
X138683236Y-102679412D01*
X138688945Y-102678584D01*
X138694409Y-102676729D01*
X138694414Y-102676728D01*
X138875693Y-102615192D01*
X138875698Y-102615190D01*
X138881165Y-102613334D01*
X138940193Y-102580277D01*
X138970639Y-102563226D01*
X139058276Y-102514147D01*
X139097969Y-102481135D01*
X139192292Y-102402686D01*
X139214345Y-102384345D01*
X139311483Y-102267550D01*
X139340453Y-102232718D01*
X139340455Y-102232715D01*
X139344147Y-102228276D01*
X139443334Y-102051165D01*
X139445720Y-102044135D01*
X139446170Y-102043496D01*
X139447541Y-102040416D01*
X139448146Y-102040685D01*
X139486553Y-101986059D01*
X139552305Y-101959278D01*
X139622098Y-101972295D01*
X139673773Y-102020980D01*
X139681777Y-102037229D01*
X139751770Y-102209603D01*
X139756413Y-102218794D01*
X139867694Y-102400388D01*
X139873777Y-102408699D01*
X140013213Y-102569667D01*
X140020580Y-102576883D01*
X140184434Y-102712916D01*
X140192881Y-102718831D01*
X140376756Y-102826279D01*
X140386042Y-102830729D01*
X140585001Y-102906703D01*
X140594899Y-102909579D01*
X140698250Y-102930606D01*
X140712299Y-102929410D01*
X140716000Y-102919065D01*
X140716000Y-100283102D01*
X140712082Y-100269758D01*
X140697806Y-100267771D01*
X140659324Y-100273660D01*
X140649288Y-100276051D01*
X140446868Y-100342212D01*
X140437359Y-100346209D01*
X140248463Y-100444542D01*
X140239738Y-100450036D01*
X140069433Y-100577905D01*
X140061726Y-100584748D01*
X139914590Y-100738717D01*
X139908104Y-100746727D01*
X139788098Y-100922649D01*
X139783000Y-100931623D01*
X139693338Y-101124783D01*
X139689777Y-101134464D01*
X139685291Y-101150640D01*
X139647813Y-101210939D01*
X139583684Y-101241403D01*
X139513266Y-101232360D01*
X139458915Y-101186682D01*
X139450867Y-101172698D01*
X139378331Y-101025609D01*
X139375776Y-101020428D01*
X139254320Y-100857779D01*
X139105258Y-100719987D01*
X139100375Y-100716906D01*
X139100371Y-100716903D01*
X138938464Y-100614748D01*
X138933581Y-100611667D01*
X138745039Y-100536446D01*
X138739379Y-100535320D01*
X138739375Y-100535319D01*
X138551613Y-100497971D01*
X138551610Y-100497971D01*
X138545946Y-100496844D01*
X138540171Y-100496768D01*
X138540167Y-100496768D01*
X138438793Y-100495441D01*
X138342971Y-100494187D01*
X138337274Y-100495166D01*
X138337273Y-100495166D01*
X138148607Y-100527585D01*
X138142910Y-100528564D01*
X137952463Y-100598824D01*
X137778010Y-100702612D01*
X137773670Y-100706418D01*
X137773666Y-100706421D01*
X137629733Y-100832648D01*
X137625392Y-100836455D01*
X137499720Y-100995869D01*
X137497031Y-101000980D01*
X137497029Y-101000983D01*
X137484073Y-101025609D01*
X137405203Y-101175515D01*
X137345007Y-101369378D01*
X137321148Y-101570964D01*
X136994499Y-101570964D01*
X136994499Y-100724934D01*
X136979734Y-100650699D01*
X136963678Y-100626669D01*
X136930377Y-100576832D01*
X136923484Y-100566516D01*
X136839301Y-100510266D01*
X136765067Y-100495500D01*
X135890142Y-100495500D01*
X135014934Y-100495501D01*
X134979182Y-100502612D01*
X134952874Y-100507844D01*
X134952872Y-100507845D01*
X134940699Y-100510266D01*
X134930379Y-100517161D01*
X134930378Y-100517162D01*
X134881256Y-100549985D01*
X134856516Y-100566516D01*
X134800266Y-100650699D01*
X134785500Y-100724933D01*
X133271330Y-100724933D01*
X133253030Y-100696645D01*
X133231086Y-100672528D01*
X133093215Y-100521011D01*
X133093213Y-100521010D01*
X133089737Y-100517189D01*
X133085686Y-100513990D01*
X133085682Y-100513986D01*
X132903386Y-100370018D01*
X132899328Y-100366813D01*
X132686914Y-100249554D01*
X132548765Y-100200633D01*
X132463077Y-100170289D01*
X132463073Y-100170288D01*
X132458202Y-100168563D01*
X132453109Y-100167656D01*
X132453106Y-100167655D01*
X132224422Y-100126920D01*
X132224416Y-100126919D01*
X132219333Y-100126014D01*
X132139558Y-100125039D01*
X131981892Y-100123113D01*
X131981890Y-100123113D01*
X131976722Y-100123050D01*
X131736884Y-100159750D01*
X131506261Y-100235129D01*
X131291046Y-100347163D01*
X131286913Y-100350266D01*
X131286910Y-100350268D01*
X131101154Y-100489737D01*
X131097019Y-100492842D01*
X131093447Y-100496580D01*
X130962088Y-100634040D01*
X130929391Y-100668255D01*
X130926477Y-100672527D01*
X130926476Y-100672528D01*
X130910025Y-100696645D01*
X130792663Y-100868691D01*
X130690508Y-101088766D01*
X130625668Y-101322571D01*
X130599885Y-101563827D01*
X129798511Y-101563827D01*
X129798511Y-101464385D01*
X129799503Y-101448608D01*
X129833500Y-101179489D01*
X129836462Y-101163968D01*
X129837260Y-101160863D01*
X129903912Y-100901270D01*
X129908801Y-100886222D01*
X130008647Y-100634040D01*
X130015384Y-100619723D01*
X130082937Y-100496844D01*
X130146052Y-100382038D01*
X130154523Y-100368690D01*
X130313947Y-100149263D01*
X130324033Y-100137071D01*
X130509699Y-99939356D01*
X130521234Y-99928524D01*
X130730218Y-99755638D01*
X130743019Y-99746338D01*
X130972017Y-99601011D01*
X130985883Y-99593388D01*
X131023073Y-99575888D01*
X131082701Y-99547829D01*
X131231293Y-99477907D01*
X131246005Y-99472082D01*
X131503956Y-99388269D01*
X131519282Y-99384334D01*
X131688469Y-99352060D01*
X131785706Y-99333510D01*
X131801398Y-99331528D01*
X131958656Y-99321635D01*
X132044609Y-99316227D01*
X132055421Y-99316950D01*
X132055421Y-99316555D01*
X132067828Y-99316555D01*
X132080000Y-99318976D01*
X132092847Y-99316421D01*
X132117425Y-99314000D01*
X134582575Y-99314000D01*
X134607153Y-99316421D01*
X134620000Y-99318976D01*
X134628502Y-99317285D01*
X134637705Y-99316627D01*
X134637706Y-99316627D01*
X134832954Y-99302662D01*
X134837442Y-99302341D01*
X134890103Y-99290885D01*
X135046060Y-99256960D01*
X135046067Y-99256958D01*
X135050457Y-99256003D01*
X135054672Y-99254431D01*
X135054675Y-99254430D01*
X135250498Y-99181392D01*
X135254710Y-99179821D01*
X135446042Y-99075346D01*
X135620557Y-98944705D01*
X135774705Y-98790557D01*
X135905346Y-98616042D01*
X136009821Y-98424710D01*
X136086003Y-98220457D01*
X136086958Y-98216067D01*
X136086960Y-98216060D01*
X136131385Y-98011836D01*
X136132341Y-98007442D01*
X136147285Y-97798502D01*
X136148976Y-97790000D01*
X136146421Y-97777153D01*
X136144000Y-97752575D01*
X136144000Y-90422496D01*
X136164002Y-90354375D01*
X136217658Y-90307882D01*
X136287932Y-90297778D01*
X136352512Y-90327272D01*
X136390896Y-90386998D01*
X136392967Y-90395017D01*
X136395576Y-90406691D01*
X136396403Y-90409297D01*
X136396404Y-90409301D01*
X136459087Y-90606841D01*
X136492438Y-90711945D01*
X136493496Y-90714485D01*
X136493500Y-90714496D01*
X136559073Y-90871923D01*
X136615577Y-91007578D01*
X136616859Y-91010028D01*
X136762770Y-91288882D01*
X136762775Y-91288891D01*
X136764053Y-91291333D01*
X136765537Y-91293651D01*
X136765540Y-91293656D01*
X136844446Y-91416900D01*
X136864331Y-91485055D01*
X136855724Y-91530608D01*
X136815667Y-91633350D01*
X136815666Y-91633354D01*
X136812906Y-91640433D01*
X136811914Y-91647966D01*
X136811914Y-91647967D01*
X136795373Y-91773613D01*
X136792229Y-91797492D01*
X136796719Y-91838160D01*
X136808477Y-91944656D01*
X136809613Y-91954949D01*
X136812223Y-91962080D01*
X136812223Y-91962082D01*
X136841030Y-92040800D01*
X136864053Y-92103715D01*
X136952408Y-92235201D01*
X136958027Y-92240314D01*
X136958028Y-92240315D01*
X137063960Y-92336705D01*
X137069576Y-92341815D01*
X137208793Y-92417404D01*
X137362022Y-92457603D01*
X137445977Y-92458922D01*
X137512819Y-92459972D01*
X137512822Y-92459972D01*
X137520416Y-92460091D01*
X137674832Y-92424725D01*
X137745242Y-92389313D01*
X137809572Y-92356959D01*
X137809575Y-92356957D01*
X137816355Y-92353547D01*
X137822126Y-92348618D01*
X137822129Y-92348616D01*
X137931036Y-92255600D01*
X137931036Y-92255599D01*
X137936814Y-92250665D01*
X138029255Y-92122020D01*
X138088342Y-91975037D01*
X138110662Y-91818203D01*
X138110807Y-91804396D01*
X138091776Y-91647129D01*
X138035780Y-91498942D01*
X138020013Y-91476001D01*
X137950355Y-91374647D01*
X137950354Y-91374645D01*
X137946053Y-91368388D01*
X137827775Y-91263007D01*
X137687774Y-91188880D01*
X137680412Y-91187031D01*
X137680410Y-91187030D01*
X137650905Y-91179619D01*
X137592507Y-91146510D01*
X137556781Y-91110784D01*
X137539269Y-91088853D01*
X137477476Y-90990771D01*
X137406025Y-90877360D01*
X137399742Y-90866160D01*
X137398919Y-90864500D01*
X137274040Y-90612590D01*
X137268933Y-90600814D01*
X137208469Y-90439320D01*
X137169705Y-90335787D01*
X137165820Y-90323546D01*
X137094081Y-90049775D01*
X137091463Y-90037202D01*
X137047966Y-89757562D01*
X137046641Y-89744787D01*
X137033372Y-89491463D01*
X137034693Y-89465943D01*
X137034692Y-89465537D01*
X137036231Y-89455737D01*
X137033078Y-89436001D01*
X137031500Y-89416124D01*
X137031500Y-78225096D01*
X138786729Y-78225096D01*
X138793436Y-78285843D01*
X138796131Y-78310251D01*
X138804113Y-78382553D01*
X138806723Y-78389684D01*
X138806723Y-78389686D01*
X138846893Y-78499455D01*
X138858553Y-78531319D01*
X138862789Y-78537622D01*
X138862789Y-78537623D01*
X138883866Y-78568988D01*
X138946908Y-78662805D01*
X138952527Y-78667918D01*
X138952528Y-78667919D01*
X139051407Y-78757891D01*
X139064076Y-78769419D01*
X139203293Y-78845008D01*
X139356522Y-78885207D01*
X139448973Y-78886659D01*
X139514770Y-78887693D01*
X139582568Y-78908762D01*
X139601887Y-78924582D01*
X139853223Y-79175919D01*
X140103894Y-79426590D01*
X140116734Y-79441624D01*
X140128677Y-79458062D01*
X140136697Y-79463889D01*
X140136698Y-79463890D01*
X140136808Y-79463970D01*
X140156099Y-79481284D01*
X140345336Y-79690073D01*
X140353181Y-79699632D01*
X140538700Y-79949776D01*
X140545570Y-79960057D01*
X140705686Y-80227193D01*
X140711515Y-80238098D01*
X140844674Y-80519640D01*
X140849406Y-80531064D01*
X140954330Y-80824306D01*
X140957919Y-80836136D01*
X141033596Y-81138258D01*
X141036005Y-81150373D01*
X141081703Y-81458444D01*
X141082915Y-81470750D01*
X141096740Y-81752180D01*
X141095341Y-81778071D01*
X141095320Y-81778204D01*
X141095320Y-81778208D01*
X141093769Y-81788000D01*
X141095320Y-81797792D01*
X141096949Y-81808077D01*
X141098500Y-81827788D01*
X141098500Y-85676082D01*
X141078498Y-85744203D01*
X141024842Y-85790696D01*
X140954568Y-85800800D01*
X140889988Y-85771306D01*
X140850137Y-85706135D01*
X140849188Y-85702273D01*
X140848276Y-85694733D01*
X140792280Y-85546546D01*
X140778500Y-85526496D01*
X140706855Y-85422251D01*
X140706854Y-85422249D01*
X140702553Y-85415992D01*
X140584275Y-85310611D01*
X140576889Y-85306700D01*
X140450988Y-85240039D01*
X140450989Y-85240039D01*
X140444274Y-85236484D01*
X140290633Y-85197892D01*
X140283034Y-85197852D01*
X140283033Y-85197852D01*
X140217181Y-85197507D01*
X140132221Y-85197062D01*
X140124841Y-85198834D01*
X140124839Y-85198834D01*
X139985563Y-85232271D01*
X139985560Y-85232272D01*
X139978184Y-85234043D01*
X139837414Y-85306700D01*
X139718039Y-85410838D01*
X139626950Y-85540444D01*
X139609936Y-85584082D01*
X139587136Y-85642563D01*
X139569406Y-85688037D01*
X139568414Y-85695570D01*
X139568414Y-85695571D01*
X139549786Y-85837068D01*
X139548729Y-85845096D01*
X139554802Y-85900101D01*
X139564982Y-85992306D01*
X139566113Y-86002553D01*
X139568723Y-86009684D01*
X139568723Y-86009686D01*
X139617661Y-86143415D01*
X139620553Y-86151319D01*
X139624789Y-86157622D01*
X139624789Y-86157623D01*
X139701971Y-86272481D01*
X139708908Y-86282805D01*
X139826076Y-86389419D01*
X139965293Y-86465008D01*
X140118522Y-86505207D01*
X140236708Y-86507063D01*
X140304506Y-86528132D01*
X140339494Y-86563045D01*
X140390291Y-86639068D01*
X140398532Y-86653342D01*
X140475702Y-86809827D01*
X140482008Y-86825051D01*
X140538094Y-86990275D01*
X140542358Y-87006188D01*
X140576397Y-87177317D01*
X140578548Y-87193657D01*
X140588194Y-87340824D01*
X140587320Y-87359906D01*
X140587320Y-87366207D01*
X140585769Y-87376000D01*
X140587320Y-87385792D01*
X140588949Y-87396077D01*
X140590500Y-87415788D01*
X140590500Y-88018531D01*
X140588949Y-88038241D01*
X140585769Y-88058319D01*
X140586791Y-88064773D01*
X140586965Y-88070090D01*
X140602156Y-88534109D01*
X140602255Y-88537142D01*
X140602456Y-88539180D01*
X140602456Y-88539184D01*
X140616910Y-88685932D01*
X140649213Y-89013914D01*
X140727253Y-89486595D01*
X140836041Y-89953159D01*
X140836635Y-89955118D01*
X140836639Y-89955132D01*
X140974506Y-90409616D01*
X140975111Y-90411610D01*
X141143866Y-90859983D01*
X141341586Y-91296359D01*
X141449869Y-91498942D01*
X141536988Y-91661930D01*
X141567422Y-91718869D01*
X141820409Y-92125704D01*
X141821610Y-92127380D01*
X141821612Y-92127383D01*
X141894355Y-92228896D01*
X142099462Y-92515122D01*
X142100785Y-92516734D01*
X142345647Y-92815100D01*
X142403386Y-92885456D01*
X142726469Y-93230407D01*
X142730308Y-93235692D01*
X142738333Y-93241522D01*
X142742803Y-93245993D01*
X142756895Y-93258849D01*
X142845064Y-93359387D01*
X142855097Y-93372462D01*
X142944387Y-93506094D01*
X142952628Y-93520368D01*
X143023711Y-93664510D01*
X143030018Y-93679737D01*
X143055847Y-93755828D01*
X143079918Y-93826736D01*
X143081677Y-93831919D01*
X143085943Y-93847839D01*
X143117297Y-94005469D01*
X143119448Y-94021809D01*
X143128194Y-94155244D01*
X143127320Y-94174326D01*
X143127320Y-94180627D01*
X143125769Y-94190420D01*
X143127320Y-94200212D01*
X143128949Y-94210497D01*
X143130500Y-94230208D01*
X143130500Y-100474839D01*
X143110498Y-100542960D01*
X143056842Y-100589453D01*
X143048118Y-100593049D01*
X143032463Y-100598824D01*
X142858010Y-100702612D01*
X142853670Y-100706418D01*
X142853666Y-100706421D01*
X142709733Y-100832648D01*
X142705392Y-100836455D01*
X142579720Y-100995869D01*
X142577031Y-101000980D01*
X142577029Y-101000983D01*
X142487589Y-101170980D01*
X142438170Y-101221952D01*
X142369037Y-101238115D01*
X142302141Y-101214336D01*
X142262003Y-101159973D01*
X142259955Y-101160863D01*
X142172972Y-100960814D01*
X142168105Y-100951739D01*
X142052426Y-100772926D01*
X142046136Y-100764757D01*
X141902806Y-100607240D01*
X141895273Y-100600215D01*
X141728139Y-100468222D01*
X141719552Y-100462517D01*
X141533117Y-100359599D01*
X141523705Y-100355369D01*
X141322959Y-100284280D01*
X141312988Y-100281646D01*
X141241837Y-100268972D01*
X141228540Y-100270432D01*
X141224000Y-100284989D01*
X141224000Y-102918517D01*
X141228064Y-102932359D01*
X141241478Y-102934393D01*
X141248184Y-102933534D01*
X141258262Y-102931392D01*
X141462255Y-102870191D01*
X141471842Y-102866433D01*
X141663095Y-102772739D01*
X141671945Y-102767464D01*
X141845328Y-102643792D01*
X141853200Y-102637139D01*
X142004052Y-102486812D01*
X142010730Y-102478965D01*
X142135003Y-102306020D01*
X142140313Y-102297183D01*
X142234670Y-102106267D01*
X142238469Y-102096672D01*
X142255066Y-102042047D01*
X142294007Y-101982683D01*
X142358862Y-101953796D01*
X142429038Y-101964558D01*
X142482256Y-102011551D01*
X142490048Y-102025922D01*
X142549377Y-102154616D01*
X142666533Y-102320389D01*
X142811938Y-102462035D01*
X142980720Y-102574812D01*
X142986023Y-102577090D01*
X142986026Y-102577092D01*
X143161921Y-102652662D01*
X143167228Y-102654942D01*
X143240244Y-102671464D01*
X143359579Y-102698467D01*
X143359584Y-102698468D01*
X143365216Y-102699742D01*
X143370987Y-102699969D01*
X143370989Y-102699969D01*
X143430756Y-102702317D01*
X143568053Y-102707712D01*
X143675348Y-102692155D01*
X143763231Y-102679413D01*
X143763236Y-102679412D01*
X143768945Y-102678584D01*
X143774409Y-102676729D01*
X143774414Y-102676728D01*
X143955693Y-102615192D01*
X143955698Y-102615190D01*
X143961165Y-102613334D01*
X144020193Y-102580277D01*
X144050639Y-102563226D01*
X144138276Y-102514147D01*
X144177969Y-102481135D01*
X144272292Y-102402686D01*
X144294345Y-102384345D01*
X144391483Y-102267550D01*
X144420453Y-102232718D01*
X144420455Y-102232715D01*
X144424147Y-102228276D01*
X144523334Y-102051165D01*
X144525190Y-102045698D01*
X144525192Y-102045693D01*
X144586728Y-101864414D01*
X144586729Y-101864409D01*
X144588584Y-101858945D01*
X144589412Y-101853236D01*
X144589413Y-101853231D01*
X144615161Y-101675647D01*
X144617712Y-101658053D01*
X144619232Y-101600000D01*
X144616564Y-101570964D01*
X144941148Y-101570964D01*
X144954424Y-101773522D01*
X144955845Y-101779118D01*
X144955846Y-101779123D01*
X144976119Y-101858945D01*
X145004392Y-101970269D01*
X145006809Y-101975512D01*
X145084957Y-102145029D01*
X145089377Y-102154616D01*
X145206533Y-102320389D01*
X145351938Y-102462035D01*
X145520720Y-102574812D01*
X145526023Y-102577090D01*
X145526026Y-102577092D01*
X145701921Y-102652662D01*
X145707228Y-102654942D01*
X145780244Y-102671464D01*
X145899579Y-102698467D01*
X145899584Y-102698468D01*
X145905216Y-102699742D01*
X145910987Y-102699969D01*
X145910989Y-102699969D01*
X145970756Y-102702317D01*
X146108053Y-102707712D01*
X146215348Y-102692155D01*
X146303231Y-102679413D01*
X146303236Y-102679412D01*
X146308945Y-102678584D01*
X146314409Y-102676729D01*
X146314414Y-102676728D01*
X146495693Y-102615192D01*
X146495698Y-102615190D01*
X146501165Y-102613334D01*
X146560193Y-102580277D01*
X146590639Y-102563226D01*
X146678276Y-102514147D01*
X146717969Y-102481135D01*
X146812292Y-102402686D01*
X146834345Y-102384345D01*
X146931483Y-102267550D01*
X146960453Y-102232718D01*
X146960455Y-102232715D01*
X146964147Y-102228276D01*
X147063334Y-102051165D01*
X147065190Y-102045698D01*
X147065192Y-102045693D01*
X147126728Y-101864414D01*
X147126729Y-101864409D01*
X147128584Y-101858945D01*
X147129412Y-101853236D01*
X147129413Y-101853231D01*
X147155161Y-101675647D01*
X147157712Y-101658053D01*
X147159232Y-101600000D01*
X147140658Y-101397859D01*
X147139090Y-101392299D01*
X147087125Y-101208046D01*
X147087124Y-101208044D01*
X147085557Y-101202487D01*
X147074978Y-101181033D01*
X146998331Y-101025609D01*
X146995776Y-101020428D01*
X146874320Y-100857779D01*
X146725258Y-100719987D01*
X146720375Y-100716906D01*
X146720371Y-100716903D01*
X146558464Y-100614748D01*
X146553581Y-100611667D01*
X146365039Y-100536446D01*
X146359379Y-100535320D01*
X146359375Y-100535319D01*
X146171613Y-100497971D01*
X146171610Y-100497971D01*
X146165946Y-100496844D01*
X146160171Y-100496768D01*
X146160167Y-100496768D01*
X146058793Y-100495441D01*
X145962971Y-100494187D01*
X145957274Y-100495166D01*
X145957273Y-100495166D01*
X145768607Y-100527585D01*
X145762910Y-100528564D01*
X145572463Y-100598824D01*
X145398010Y-100702612D01*
X145393670Y-100706418D01*
X145393666Y-100706421D01*
X145249733Y-100832648D01*
X145245392Y-100836455D01*
X145119720Y-100995869D01*
X145117031Y-101000980D01*
X145117029Y-101000983D01*
X145104073Y-101025609D01*
X145025203Y-101175515D01*
X144965007Y-101369378D01*
X144941148Y-101570964D01*
X144616564Y-101570964D01*
X144600658Y-101397859D01*
X144599090Y-101392299D01*
X144547125Y-101208046D01*
X144547124Y-101208044D01*
X144545557Y-101202487D01*
X144534978Y-101181033D01*
X144458331Y-101025609D01*
X144455776Y-101020428D01*
X144334320Y-100857779D01*
X144185258Y-100719987D01*
X144180375Y-100716906D01*
X144180371Y-100716903D01*
X144018464Y-100614748D01*
X144013581Y-100611667D01*
X143968810Y-100593805D01*
X143912951Y-100549985D01*
X143889500Y-100476775D01*
X143889500Y-94230208D01*
X143891051Y-94210497D01*
X143892680Y-94200212D01*
X143894231Y-94190420D01*
X143892680Y-94180627D01*
X143892680Y-94179482D01*
X143891705Y-94170369D01*
X143879716Y-93956892D01*
X143879518Y-93953363D01*
X143876727Y-93936937D01*
X143885036Y-93866429D01*
X143930145Y-93811605D01*
X143997734Y-93789872D01*
X144066342Y-93808130D01*
X144090042Y-93826736D01*
X145599442Y-95336136D01*
X145612283Y-95351170D01*
X145618402Y-95359593D01*
X145618404Y-95359595D01*
X145624231Y-95367615D01*
X145632251Y-95373442D01*
X145635201Y-95375585D01*
X145652885Y-95391156D01*
X145777707Y-95523757D01*
X145990094Y-95749380D01*
X145995141Y-95755077D01*
X146331311Y-96158449D01*
X146336000Y-96164434D01*
X146647200Y-96587368D01*
X146651519Y-96593624D01*
X146794071Y-96814106D01*
X146936617Y-97034579D01*
X146940554Y-97041092D01*
X147198505Y-97498450D01*
X147202042Y-97505189D01*
X147431907Y-97977287D01*
X147435031Y-97984228D01*
X147614202Y-98416781D01*
X147635975Y-98469346D01*
X147638670Y-98476452D01*
X147757286Y-98820189D01*
X147809958Y-98972828D01*
X147812222Y-98980094D01*
X147953221Y-99485882D01*
X147955043Y-99493272D01*
X148065249Y-100006668D01*
X148066621Y-100014154D01*
X148139260Y-100491419D01*
X148129735Y-100561774D01*
X148079116Y-100618663D01*
X147942982Y-100699653D01*
X147942974Y-100699658D01*
X147938010Y-100702612D01*
X147933670Y-100706418D01*
X147933666Y-100706421D01*
X147789733Y-100832648D01*
X147785392Y-100836455D01*
X147659720Y-100995869D01*
X147657031Y-101000980D01*
X147657029Y-101000983D01*
X147644073Y-101025609D01*
X147565203Y-101175515D01*
X147505007Y-101369378D01*
X147481148Y-101570964D01*
X147494424Y-101773522D01*
X147495845Y-101779118D01*
X147495846Y-101779123D01*
X147516119Y-101858945D01*
X147544392Y-101970269D01*
X147546809Y-101975512D01*
X147624957Y-102145029D01*
X147629377Y-102154616D01*
X147746533Y-102320389D01*
X147891938Y-102462035D01*
X148060720Y-102574812D01*
X148066023Y-102577090D01*
X148066026Y-102577092D01*
X148241921Y-102652662D01*
X148247228Y-102654942D01*
X148320244Y-102671464D01*
X148439579Y-102698467D01*
X148439584Y-102698468D01*
X148445216Y-102699742D01*
X148450987Y-102699969D01*
X148450989Y-102699969D01*
X148510756Y-102702317D01*
X148648053Y-102707712D01*
X148755348Y-102692155D01*
X148843231Y-102679413D01*
X148843236Y-102679412D01*
X148848945Y-102678584D01*
X148854409Y-102676729D01*
X148854414Y-102676728D01*
X149035693Y-102615192D01*
X149035698Y-102615190D01*
X149041165Y-102613334D01*
X149100193Y-102580277D01*
X149130639Y-102563226D01*
X149218276Y-102514147D01*
X149257969Y-102481135D01*
X149352292Y-102402686D01*
X149374345Y-102384345D01*
X149471483Y-102267550D01*
X149500453Y-102232718D01*
X149500455Y-102232715D01*
X149504147Y-102228276D01*
X149603334Y-102051165D01*
X149605190Y-102045698D01*
X149605192Y-102045693D01*
X149666728Y-101864414D01*
X149666729Y-101864409D01*
X149668584Y-101858945D01*
X149669412Y-101853236D01*
X149669413Y-101853231D01*
X149695161Y-101675647D01*
X149697712Y-101658053D01*
X149699232Y-101600000D01*
X149680658Y-101397859D01*
X149679090Y-101392299D01*
X149627125Y-101208046D01*
X149627124Y-101208044D01*
X149625557Y-101202487D01*
X149614978Y-101181033D01*
X149538331Y-101025609D01*
X149535776Y-101020428D01*
X149414320Y-100857779D01*
X149265258Y-100719987D01*
X149260375Y-100716906D01*
X149260371Y-100716903D01*
X149098464Y-100614748D01*
X149093581Y-100611667D01*
X149082485Y-100607240D01*
X148984386Y-100568102D01*
X148928527Y-100524281D01*
X148905594Y-100462478D01*
X148904177Y-100446889D01*
X148904007Y-100445015D01*
X148891867Y-100365247D01*
X148817201Y-99874665D01*
X148816916Y-99872792D01*
X148700728Y-99331528D01*
X148695835Y-99308734D01*
X148695834Y-99308731D01*
X148695435Y-99306871D01*
X148540005Y-98749318D01*
X148351195Y-98202167D01*
X148129693Y-97667414D01*
X148050706Y-97505189D01*
X147924348Y-97245676D01*
X147912510Y-97175673D01*
X147940399Y-97110383D01*
X147999158Y-97070535D01*
X148070133Y-97068781D01*
X148126728Y-97101422D01*
X149396678Y-98371372D01*
X149409518Y-98386405D01*
X149421467Y-98402851D01*
X149430374Y-98409323D01*
X149449205Y-98426129D01*
X149687865Y-98686580D01*
X149694917Y-98694983D01*
X149866195Y-98918198D01*
X149928603Y-98999530D01*
X149934907Y-99008534D01*
X150045030Y-99181392D01*
X150126157Y-99308734D01*
X150141152Y-99332272D01*
X150146647Y-99341791D01*
X150304041Y-99644141D01*
X150323888Y-99682267D01*
X150328530Y-99692220D01*
X150475434Y-100046877D01*
X150479190Y-100057198D01*
X150576811Y-100366813D01*
X150594619Y-100423292D01*
X150597464Y-100433909D01*
X150615927Y-100517189D01*
X150616450Y-100519550D01*
X150611666Y-100590385D01*
X150569346Y-100647389D01*
X150557860Y-100655106D01*
X150482978Y-100699656D01*
X150482977Y-100699657D01*
X150478010Y-100702612D01*
X150473670Y-100706418D01*
X150473666Y-100706421D01*
X150329733Y-100832648D01*
X150325392Y-100836455D01*
X150199720Y-100995869D01*
X150197031Y-101000980D01*
X150197029Y-101000983D01*
X150184073Y-101025609D01*
X150105203Y-101175515D01*
X150045007Y-101369378D01*
X150021148Y-101570964D01*
X150034424Y-101773522D01*
X150035845Y-101779118D01*
X150035846Y-101779123D01*
X150056119Y-101858945D01*
X150084392Y-101970269D01*
X150086809Y-101975512D01*
X150164957Y-102145029D01*
X150169377Y-102154616D01*
X150286533Y-102320389D01*
X150431938Y-102462035D01*
X150600720Y-102574812D01*
X150606023Y-102577090D01*
X150606026Y-102577092D01*
X150781921Y-102652662D01*
X150787228Y-102654942D01*
X150860244Y-102671464D01*
X150979579Y-102698467D01*
X150979584Y-102698468D01*
X150985216Y-102699742D01*
X150990987Y-102699969D01*
X150990989Y-102699969D01*
X151050756Y-102702317D01*
X151188053Y-102707712D01*
X151295348Y-102692155D01*
X151383231Y-102679413D01*
X151383236Y-102679412D01*
X151388945Y-102678584D01*
X151394409Y-102676729D01*
X151394414Y-102676728D01*
X151575693Y-102615192D01*
X151575698Y-102615190D01*
X151581165Y-102613334D01*
X151640193Y-102580277D01*
X151670639Y-102563226D01*
X151758276Y-102514147D01*
X151797969Y-102481135D01*
X151892292Y-102402686D01*
X151914345Y-102384345D01*
X152011483Y-102267550D01*
X152040453Y-102232718D01*
X152040455Y-102232715D01*
X152044147Y-102228276D01*
X152143334Y-102051165D01*
X152145190Y-102045698D01*
X152145192Y-102045693D01*
X152206728Y-101864414D01*
X152206729Y-101864409D01*
X152208584Y-101858945D01*
X152209412Y-101853236D01*
X152209413Y-101853231D01*
X152235161Y-101675647D01*
X152237712Y-101658053D01*
X152239232Y-101600000D01*
X152220658Y-101397859D01*
X152219090Y-101392299D01*
X152167125Y-101208046D01*
X152167124Y-101208044D01*
X152165557Y-101202487D01*
X152154978Y-101181033D01*
X152078331Y-101025609D01*
X152075776Y-101020428D01*
X151954320Y-100857779D01*
X151805258Y-100719987D01*
X151800375Y-100716906D01*
X151800371Y-100716903D01*
X151638464Y-100614748D01*
X151633581Y-100611667D01*
X151461276Y-100542924D01*
X151405416Y-100499103D01*
X151384387Y-100450476D01*
X151368383Y-100370018D01*
X151367434Y-100365247D01*
X151363210Y-100350268D01*
X151299963Y-100126014D01*
X151254702Y-99965529D01*
X151162268Y-99714975D01*
X151157456Y-99644141D01*
X151191703Y-99581951D01*
X151254137Y-99548149D01*
X151324934Y-99553466D01*
X151369575Y-99582269D01*
X152689074Y-100901768D01*
X152723100Y-100964080D01*
X152718035Y-101034895D01*
X152711488Y-101049529D01*
X152645203Y-101175515D01*
X152585007Y-101369378D01*
X152561148Y-101570964D01*
X152574424Y-101773522D01*
X152575845Y-101779118D01*
X152575846Y-101779123D01*
X152596119Y-101858945D01*
X152624392Y-101970269D01*
X152626809Y-101975512D01*
X152704957Y-102145029D01*
X152709377Y-102154616D01*
X152826533Y-102320389D01*
X152971938Y-102462035D01*
X153140720Y-102574812D01*
X153146023Y-102577090D01*
X153146026Y-102577092D01*
X153321921Y-102652662D01*
X153327228Y-102654942D01*
X153400244Y-102671464D01*
X153519579Y-102698467D01*
X153519584Y-102698468D01*
X153525216Y-102699742D01*
X153530987Y-102699969D01*
X153530989Y-102699969D01*
X153590756Y-102702317D01*
X153728053Y-102707712D01*
X153835348Y-102692155D01*
X153923231Y-102679413D01*
X153923236Y-102679412D01*
X153928945Y-102678584D01*
X153934409Y-102676729D01*
X153934414Y-102676728D01*
X154115693Y-102615192D01*
X154115698Y-102615190D01*
X154121165Y-102613334D01*
X154180193Y-102580277D01*
X154210639Y-102563226D01*
X154298276Y-102514147D01*
X154337969Y-102481135D01*
X154432292Y-102402686D01*
X154454345Y-102384345D01*
X154551483Y-102267550D01*
X154580453Y-102232718D01*
X154580455Y-102232715D01*
X154584147Y-102228276D01*
X154683334Y-102051165D01*
X154685190Y-102045698D01*
X154685192Y-102045693D01*
X154746728Y-101864414D01*
X154746729Y-101864409D01*
X154748584Y-101858945D01*
X154749412Y-101853236D01*
X154749413Y-101853231D01*
X154775161Y-101675647D01*
X154777712Y-101658053D01*
X154779232Y-101600000D01*
X154776564Y-101570964D01*
X155101148Y-101570964D01*
X155114424Y-101773522D01*
X155115845Y-101779118D01*
X155115846Y-101779123D01*
X155136119Y-101858945D01*
X155164392Y-101970269D01*
X155166809Y-101975512D01*
X155244957Y-102145029D01*
X155249377Y-102154616D01*
X155366533Y-102320389D01*
X155511938Y-102462035D01*
X155680720Y-102574812D01*
X155686023Y-102577090D01*
X155686026Y-102577092D01*
X155861921Y-102652662D01*
X155867228Y-102654942D01*
X155940244Y-102671464D01*
X156059579Y-102698467D01*
X156059584Y-102698468D01*
X156065216Y-102699742D01*
X156070987Y-102699969D01*
X156070989Y-102699969D01*
X156130756Y-102702317D01*
X156268053Y-102707712D01*
X156375348Y-102692155D01*
X156463231Y-102679413D01*
X156463236Y-102679412D01*
X156468945Y-102678584D01*
X156474409Y-102676729D01*
X156474414Y-102676728D01*
X156655693Y-102615192D01*
X156655698Y-102615190D01*
X156661165Y-102613334D01*
X156720193Y-102580277D01*
X156750639Y-102563226D01*
X156838276Y-102514147D01*
X156877969Y-102481135D01*
X156972292Y-102402686D01*
X156994345Y-102384345D01*
X157091483Y-102267550D01*
X157120453Y-102232718D01*
X157120455Y-102232715D01*
X157124147Y-102228276D01*
X157223334Y-102051165D01*
X157225190Y-102045698D01*
X157225192Y-102045693D01*
X157286728Y-101864414D01*
X157286729Y-101864409D01*
X157288584Y-101858945D01*
X157289412Y-101853236D01*
X157289413Y-101853231D01*
X157315161Y-101675647D01*
X157317712Y-101658053D01*
X157319232Y-101600000D01*
X157316564Y-101570964D01*
X157641148Y-101570964D01*
X157654424Y-101773522D01*
X157655845Y-101779118D01*
X157655846Y-101779123D01*
X157676119Y-101858945D01*
X157704392Y-101970269D01*
X157706809Y-101975512D01*
X157784957Y-102145029D01*
X157789377Y-102154616D01*
X157906533Y-102320389D01*
X158051938Y-102462035D01*
X158220720Y-102574812D01*
X158226023Y-102577090D01*
X158226026Y-102577092D01*
X158401921Y-102652662D01*
X158407228Y-102654942D01*
X158480244Y-102671464D01*
X158599579Y-102698467D01*
X158599584Y-102698468D01*
X158605216Y-102699742D01*
X158610987Y-102699969D01*
X158610989Y-102699969D01*
X158670756Y-102702317D01*
X158808053Y-102707712D01*
X158915348Y-102692155D01*
X159003231Y-102679413D01*
X159003236Y-102679412D01*
X159008945Y-102678584D01*
X159014409Y-102676729D01*
X159014414Y-102676728D01*
X159195693Y-102615192D01*
X159195698Y-102615190D01*
X159201165Y-102613334D01*
X159260193Y-102580277D01*
X159290639Y-102563226D01*
X159378276Y-102514147D01*
X159417969Y-102481135D01*
X159512292Y-102402686D01*
X159534345Y-102384345D01*
X159631483Y-102267550D01*
X159660453Y-102232718D01*
X159660455Y-102232715D01*
X159664147Y-102228276D01*
X159763334Y-102051165D01*
X159765190Y-102045698D01*
X159765192Y-102045693D01*
X159826728Y-101864414D01*
X159826729Y-101864409D01*
X159828584Y-101858945D01*
X159829412Y-101853236D01*
X159829413Y-101853231D01*
X159855161Y-101675647D01*
X159857712Y-101658053D01*
X159859232Y-101600000D01*
X159856564Y-101570964D01*
X160181148Y-101570964D01*
X160194424Y-101773522D01*
X160195845Y-101779118D01*
X160195846Y-101779123D01*
X160216119Y-101858945D01*
X160244392Y-101970269D01*
X160246809Y-101975512D01*
X160324957Y-102145029D01*
X160329377Y-102154616D01*
X160446533Y-102320389D01*
X160591938Y-102462035D01*
X160760720Y-102574812D01*
X160766023Y-102577090D01*
X160766026Y-102577092D01*
X160941921Y-102652662D01*
X160947228Y-102654942D01*
X161020244Y-102671464D01*
X161139579Y-102698467D01*
X161139584Y-102698468D01*
X161145216Y-102699742D01*
X161150987Y-102699969D01*
X161150989Y-102699969D01*
X161210756Y-102702317D01*
X161348053Y-102707712D01*
X161455348Y-102692155D01*
X161543231Y-102679413D01*
X161543236Y-102679412D01*
X161548945Y-102678584D01*
X161554409Y-102676729D01*
X161554414Y-102676728D01*
X161735693Y-102615192D01*
X161735698Y-102615190D01*
X161741165Y-102613334D01*
X161800193Y-102580277D01*
X161830639Y-102563226D01*
X161918276Y-102514147D01*
X161957969Y-102481135D01*
X162052292Y-102402686D01*
X162074345Y-102384345D01*
X162171483Y-102267550D01*
X162200453Y-102232718D01*
X162200455Y-102232715D01*
X162204147Y-102228276D01*
X162303334Y-102051165D01*
X162305190Y-102045698D01*
X162305192Y-102045693D01*
X162366728Y-101864414D01*
X162366729Y-101864409D01*
X162368584Y-101858945D01*
X162369412Y-101853236D01*
X162369413Y-101853231D01*
X162395161Y-101675647D01*
X162397712Y-101658053D01*
X162399232Y-101600000D01*
X162396564Y-101570964D01*
X162721148Y-101570964D01*
X162734424Y-101773522D01*
X162735845Y-101779118D01*
X162735846Y-101779123D01*
X162756119Y-101858945D01*
X162784392Y-101970269D01*
X162786809Y-101975512D01*
X162864957Y-102145029D01*
X162869377Y-102154616D01*
X162986533Y-102320389D01*
X163131938Y-102462035D01*
X163300720Y-102574812D01*
X163306023Y-102577090D01*
X163306026Y-102577092D01*
X163481921Y-102652662D01*
X163487228Y-102654942D01*
X163560244Y-102671464D01*
X163679579Y-102698467D01*
X163679584Y-102698468D01*
X163685216Y-102699742D01*
X163690987Y-102699969D01*
X163690989Y-102699969D01*
X163750756Y-102702317D01*
X163888053Y-102707712D01*
X163995348Y-102692155D01*
X164083231Y-102679413D01*
X164083236Y-102679412D01*
X164088945Y-102678584D01*
X164094409Y-102676729D01*
X164094414Y-102676728D01*
X164275693Y-102615192D01*
X164275698Y-102615190D01*
X164281165Y-102613334D01*
X164340193Y-102580277D01*
X164370639Y-102563226D01*
X164458276Y-102514147D01*
X164497969Y-102481135D01*
X164592292Y-102402686D01*
X164614345Y-102384345D01*
X164711483Y-102267550D01*
X164740453Y-102232718D01*
X164740455Y-102232715D01*
X164744147Y-102228276D01*
X164843334Y-102051165D01*
X164845190Y-102045698D01*
X164845192Y-102045693D01*
X164906728Y-101864414D01*
X164906729Y-101864409D01*
X164908584Y-101858945D01*
X164909412Y-101853236D01*
X164909413Y-101853231D01*
X164935161Y-101675647D01*
X164937712Y-101658053D01*
X164939232Y-101600000D01*
X164936564Y-101570964D01*
X165261148Y-101570964D01*
X165274424Y-101773522D01*
X165275845Y-101779118D01*
X165275846Y-101779123D01*
X165296119Y-101858945D01*
X165324392Y-101970269D01*
X165326809Y-101975512D01*
X165404957Y-102145029D01*
X165409377Y-102154616D01*
X165526533Y-102320389D01*
X165671938Y-102462035D01*
X165840720Y-102574812D01*
X165846023Y-102577090D01*
X165846026Y-102577092D01*
X166021921Y-102652662D01*
X166027228Y-102654942D01*
X166100244Y-102671464D01*
X166219579Y-102698467D01*
X166219584Y-102698468D01*
X166225216Y-102699742D01*
X166230987Y-102699969D01*
X166230989Y-102699969D01*
X166290756Y-102702317D01*
X166428053Y-102707712D01*
X166535348Y-102692155D01*
X166623231Y-102679413D01*
X166623236Y-102679412D01*
X166628945Y-102678584D01*
X166634409Y-102676729D01*
X166634414Y-102676728D01*
X166815693Y-102615192D01*
X166815698Y-102615190D01*
X166821165Y-102613334D01*
X166880193Y-102580277D01*
X166910639Y-102563226D01*
X166998276Y-102514147D01*
X167037969Y-102481135D01*
X167132292Y-102402686D01*
X167154345Y-102384345D01*
X167251483Y-102267550D01*
X167280453Y-102232718D01*
X167280455Y-102232715D01*
X167284147Y-102228276D01*
X167383334Y-102051165D01*
X167385190Y-102045698D01*
X167385192Y-102045693D01*
X167446728Y-101864414D01*
X167446729Y-101864409D01*
X167448584Y-101858945D01*
X167449412Y-101853236D01*
X167449413Y-101853231D01*
X167475161Y-101675647D01*
X167477712Y-101658053D01*
X167479232Y-101600000D01*
X167475908Y-101563827D01*
X168699885Y-101563827D01*
X168700182Y-101568979D01*
X168700182Y-101568983D01*
X168709790Y-101735615D01*
X168713852Y-101806054D01*
X168714989Y-101811100D01*
X168714990Y-101811106D01*
X168725771Y-101858945D01*
X168767193Y-102042747D01*
X168769135Y-102047529D01*
X168769136Y-102047533D01*
X168810610Y-102149670D01*
X168858476Y-102267550D01*
X168985249Y-102474425D01*
X169144109Y-102657818D01*
X169330787Y-102812801D01*
X169540272Y-102935214D01*
X169766938Y-103021770D01*
X169772004Y-103022801D01*
X169772005Y-103022801D01*
X169830326Y-103034666D01*
X170004696Y-103070142D01*
X170141350Y-103075153D01*
X170241998Y-103078844D01*
X170242002Y-103078844D01*
X170247162Y-103079033D01*
X170252282Y-103078377D01*
X170252284Y-103078377D01*
X170328754Y-103068581D01*
X170487825Y-103048203D01*
X170492774Y-103046718D01*
X170492780Y-103046717D01*
X170715278Y-102979964D01*
X170720221Y-102978481D01*
X170724855Y-102976211D01*
X170933474Y-102874010D01*
X170933477Y-102874008D01*
X170938109Y-102871739D01*
X171025371Y-102809496D01*
X171131433Y-102733843D01*
X171131435Y-102733841D01*
X171135637Y-102730844D01*
X171307501Y-102559578D01*
X171449085Y-102362543D01*
X171477021Y-102306020D01*
X171520130Y-102218794D01*
X171556587Y-102145029D01*
X171586768Y-102045693D01*
X171625616Y-101917830D01*
X171625617Y-101917824D01*
X171627120Y-101912878D01*
X171658789Y-101672325D01*
X171659229Y-101654344D01*
X171660475Y-101603364D01*
X171660475Y-101603360D01*
X171660557Y-101600000D01*
X171642068Y-101375115D01*
X171641100Y-101363338D01*
X171641099Y-101363332D01*
X171640676Y-101358187D01*
X171594085Y-101172698D01*
X171582827Y-101127878D01*
X171582826Y-101127874D01*
X171581568Y-101122867D01*
X171568911Y-101093758D01*
X171486880Y-100905099D01*
X171486878Y-100905096D01*
X171484820Y-100900362D01*
X171353030Y-100696645D01*
X171331086Y-100672528D01*
X171193215Y-100521011D01*
X171193213Y-100521010D01*
X171189737Y-100517189D01*
X171185686Y-100513990D01*
X171185682Y-100513986D01*
X171003386Y-100370018D01*
X170999328Y-100366813D01*
X170786914Y-100249554D01*
X170648765Y-100200633D01*
X170563077Y-100170289D01*
X170563073Y-100170288D01*
X170558202Y-100168563D01*
X170553109Y-100167656D01*
X170553106Y-100167655D01*
X170324422Y-100126920D01*
X170324416Y-100126919D01*
X170319333Y-100126014D01*
X170239558Y-100125039D01*
X170081892Y-100123113D01*
X170081890Y-100123113D01*
X170076722Y-100123050D01*
X169836884Y-100159750D01*
X169606261Y-100235129D01*
X169391046Y-100347163D01*
X169386913Y-100350266D01*
X169386910Y-100350268D01*
X169201154Y-100489737D01*
X169197019Y-100492842D01*
X169193447Y-100496580D01*
X169062088Y-100634040D01*
X169029391Y-100668255D01*
X169026477Y-100672527D01*
X169026476Y-100672528D01*
X169010025Y-100696645D01*
X168892663Y-100868691D01*
X168790508Y-101088766D01*
X168725668Y-101322571D01*
X168699885Y-101563827D01*
X167475908Y-101563827D01*
X167460658Y-101397859D01*
X167459090Y-101392299D01*
X167407125Y-101208046D01*
X167407124Y-101208044D01*
X167405557Y-101202487D01*
X167394978Y-101181033D01*
X167318331Y-101025609D01*
X167315776Y-101020428D01*
X167194320Y-100857779D01*
X167045258Y-100719987D01*
X167040375Y-100716906D01*
X167040371Y-100716903D01*
X166878464Y-100614748D01*
X166873581Y-100611667D01*
X166685039Y-100536446D01*
X166679379Y-100535320D01*
X166679375Y-100535319D01*
X166491613Y-100497971D01*
X166491610Y-100497971D01*
X166485946Y-100496844D01*
X166480171Y-100496768D01*
X166480167Y-100496768D01*
X166378793Y-100495441D01*
X166282971Y-100494187D01*
X166277274Y-100495166D01*
X166277273Y-100495166D01*
X166088607Y-100527585D01*
X166082910Y-100528564D01*
X165892463Y-100598824D01*
X165718010Y-100702612D01*
X165713670Y-100706418D01*
X165713666Y-100706421D01*
X165569733Y-100832648D01*
X165565392Y-100836455D01*
X165439720Y-100995869D01*
X165437031Y-101000980D01*
X165437029Y-101000983D01*
X165424073Y-101025609D01*
X165345203Y-101175515D01*
X165285007Y-101369378D01*
X165261148Y-101570964D01*
X164936564Y-101570964D01*
X164920658Y-101397859D01*
X164919090Y-101392299D01*
X164867125Y-101208046D01*
X164867124Y-101208044D01*
X164865557Y-101202487D01*
X164854978Y-101181033D01*
X164778331Y-101025609D01*
X164775776Y-101020428D01*
X164654320Y-100857779D01*
X164505258Y-100719987D01*
X164500375Y-100716906D01*
X164500371Y-100716903D01*
X164338464Y-100614748D01*
X164333581Y-100611667D01*
X164145039Y-100536446D01*
X164139379Y-100535320D01*
X164139375Y-100535319D01*
X163951613Y-100497971D01*
X163951610Y-100497971D01*
X163945946Y-100496844D01*
X163940171Y-100496768D01*
X163940167Y-100496768D01*
X163838793Y-100495441D01*
X163742971Y-100494187D01*
X163737274Y-100495166D01*
X163737273Y-100495166D01*
X163548607Y-100527585D01*
X163542910Y-100528564D01*
X163352463Y-100598824D01*
X163178010Y-100702612D01*
X163173670Y-100706418D01*
X163173666Y-100706421D01*
X163029733Y-100832648D01*
X163025392Y-100836455D01*
X162899720Y-100995869D01*
X162897031Y-101000980D01*
X162897029Y-101000983D01*
X162884073Y-101025609D01*
X162805203Y-101175515D01*
X162745007Y-101369378D01*
X162721148Y-101570964D01*
X162396564Y-101570964D01*
X162380658Y-101397859D01*
X162379090Y-101392299D01*
X162327125Y-101208046D01*
X162327124Y-101208044D01*
X162325557Y-101202487D01*
X162314978Y-101181033D01*
X162238331Y-101025609D01*
X162235776Y-101020428D01*
X162114320Y-100857779D01*
X161965258Y-100719987D01*
X161960375Y-100716906D01*
X161960371Y-100716903D01*
X161798464Y-100614748D01*
X161793581Y-100611667D01*
X161605039Y-100536446D01*
X161599379Y-100535320D01*
X161599375Y-100535319D01*
X161411613Y-100497971D01*
X161411610Y-100497971D01*
X161405946Y-100496844D01*
X161400171Y-100496768D01*
X161400167Y-100496768D01*
X161298793Y-100495441D01*
X161202971Y-100494187D01*
X161197274Y-100495166D01*
X161197273Y-100495166D01*
X161008607Y-100527585D01*
X161002910Y-100528564D01*
X160812463Y-100598824D01*
X160638010Y-100702612D01*
X160633670Y-100706418D01*
X160633666Y-100706421D01*
X160489733Y-100832648D01*
X160485392Y-100836455D01*
X160359720Y-100995869D01*
X160357031Y-101000980D01*
X160357029Y-101000983D01*
X160344073Y-101025609D01*
X160265203Y-101175515D01*
X160205007Y-101369378D01*
X160181148Y-101570964D01*
X159856564Y-101570964D01*
X159840658Y-101397859D01*
X159839090Y-101392299D01*
X159787125Y-101208046D01*
X159787124Y-101208044D01*
X159785557Y-101202487D01*
X159774978Y-101181033D01*
X159698331Y-101025609D01*
X159695776Y-101020428D01*
X159574320Y-100857779D01*
X159425258Y-100719987D01*
X159420375Y-100716906D01*
X159420371Y-100716903D01*
X159258464Y-100614748D01*
X159253581Y-100611667D01*
X159065039Y-100536446D01*
X159059379Y-100535320D01*
X159059375Y-100535319D01*
X158871613Y-100497971D01*
X158871610Y-100497971D01*
X158865946Y-100496844D01*
X158860171Y-100496768D01*
X158860167Y-100496768D01*
X158758793Y-100495441D01*
X158662971Y-100494187D01*
X158657274Y-100495166D01*
X158657273Y-100495166D01*
X158468607Y-100527585D01*
X158462910Y-100528564D01*
X158272463Y-100598824D01*
X158098010Y-100702612D01*
X158093670Y-100706418D01*
X158093666Y-100706421D01*
X157949733Y-100832648D01*
X157945392Y-100836455D01*
X157819720Y-100995869D01*
X157817031Y-101000980D01*
X157817029Y-101000983D01*
X157804073Y-101025609D01*
X157725203Y-101175515D01*
X157665007Y-101369378D01*
X157641148Y-101570964D01*
X157316564Y-101570964D01*
X157300658Y-101397859D01*
X157299090Y-101392299D01*
X157247125Y-101208046D01*
X157247124Y-101208044D01*
X157245557Y-101202487D01*
X157234978Y-101181033D01*
X157158331Y-101025609D01*
X157155776Y-101020428D01*
X157034320Y-100857779D01*
X156885258Y-100719987D01*
X156880375Y-100716906D01*
X156880371Y-100716903D01*
X156718464Y-100614748D01*
X156713581Y-100611667D01*
X156525039Y-100536446D01*
X156519379Y-100535320D01*
X156519375Y-100535319D01*
X156331613Y-100497971D01*
X156331610Y-100497971D01*
X156325946Y-100496844D01*
X156320171Y-100496768D01*
X156320167Y-100496768D01*
X156218793Y-100495441D01*
X156122971Y-100494187D01*
X156117274Y-100495166D01*
X156117273Y-100495166D01*
X155928607Y-100527585D01*
X155922910Y-100528564D01*
X155732463Y-100598824D01*
X155558010Y-100702612D01*
X155553670Y-100706418D01*
X155553666Y-100706421D01*
X155409733Y-100832648D01*
X155405392Y-100836455D01*
X155279720Y-100995869D01*
X155277031Y-101000980D01*
X155277029Y-101000983D01*
X155264073Y-101025609D01*
X155185203Y-101175515D01*
X155125007Y-101369378D01*
X155101148Y-101570964D01*
X154776564Y-101570964D01*
X154760658Y-101397859D01*
X154759090Y-101392299D01*
X154707125Y-101208046D01*
X154707124Y-101208044D01*
X154705557Y-101202487D01*
X154694978Y-101181033D01*
X154618331Y-101025609D01*
X154615776Y-101020428D01*
X154494320Y-100857779D01*
X154345258Y-100719987D01*
X154340375Y-100716906D01*
X154340371Y-100716903D01*
X154178464Y-100614748D01*
X154173581Y-100611667D01*
X153985039Y-100536446D01*
X153979379Y-100535320D01*
X153979375Y-100535319D01*
X153791613Y-100497971D01*
X153791610Y-100497971D01*
X153785946Y-100496844D01*
X153780171Y-100496768D01*
X153780167Y-100496768D01*
X153678793Y-100495441D01*
X153582971Y-100494187D01*
X153577274Y-100495166D01*
X153577273Y-100495166D01*
X153452626Y-100516584D01*
X153382102Y-100508407D01*
X153342193Y-100481499D01*
X148102789Y-95242095D01*
X157842001Y-95242095D01*
X157842338Y-95248614D01*
X157852257Y-95344206D01*
X157855149Y-95357600D01*
X157906588Y-95511784D01*
X157912761Y-95524962D01*
X157998063Y-95662807D01*
X158007099Y-95674208D01*
X158121829Y-95788739D01*
X158133240Y-95797751D01*
X158271243Y-95882816D01*
X158284424Y-95888963D01*
X158438710Y-95940138D01*
X158452086Y-95943005D01*
X158546438Y-95952672D01*
X158552854Y-95953000D01*
X159002885Y-95953000D01*
X159018124Y-95948525D01*
X159019329Y-95947135D01*
X159021000Y-95939452D01*
X159021000Y-95934884D01*
X159529000Y-95934884D01*
X159533475Y-95950123D01*
X159534865Y-95951328D01*
X159542548Y-95952999D01*
X159997095Y-95952999D01*
X160003614Y-95952662D01*
X160099206Y-95942743D01*
X160112600Y-95939851D01*
X160266784Y-95888412D01*
X160279962Y-95882239D01*
X160417807Y-95796937D01*
X160429208Y-95787901D01*
X160543739Y-95673171D01*
X160552751Y-95661760D01*
X160637816Y-95523757D01*
X160643963Y-95510576D01*
X160695138Y-95356290D01*
X160698005Y-95342914D01*
X160707672Y-95248562D01*
X160708000Y-95242146D01*
X160708000Y-94867115D01*
X160703525Y-94851876D01*
X160702135Y-94850671D01*
X160694452Y-94849000D01*
X159547115Y-94849000D01*
X159531876Y-94853475D01*
X159530671Y-94854865D01*
X159529000Y-94862548D01*
X159529000Y-95934884D01*
X159021000Y-95934884D01*
X159021000Y-94867115D01*
X159016525Y-94851876D01*
X159015135Y-94850671D01*
X159007452Y-94849000D01*
X157860116Y-94849000D01*
X157844877Y-94853475D01*
X157843672Y-94854865D01*
X157842001Y-94862548D01*
X157842001Y-95242095D01*
X148102789Y-95242095D01*
X144822481Y-91961787D01*
X144809640Y-91946753D01*
X144808117Y-91944656D01*
X144797692Y-91930308D01*
X144787584Y-91922964D01*
X144769429Y-91906889D01*
X144534604Y-91654669D01*
X144478401Y-91594303D01*
X144472512Y-91587506D01*
X144184412Y-91229995D01*
X144179022Y-91222795D01*
X143917156Y-90845636D01*
X143912293Y-90838069D01*
X143677997Y-90443185D01*
X143673687Y-90435291D01*
X143660678Y-90409301D01*
X143502923Y-90094147D01*
X143468167Y-90024714D01*
X143464430Y-90016532D01*
X143354528Y-89751205D01*
X143288713Y-89592313D01*
X143285574Y-89583897D01*
X143246316Y-89465943D01*
X143140573Y-89148237D01*
X143138040Y-89139612D01*
X143106481Y-89015963D01*
X143024488Y-88694719D01*
X143022576Y-88685932D01*
X142996546Y-88541654D01*
X142959792Y-88337941D01*
X142941052Y-88234073D01*
X142939772Y-88225170D01*
X142890692Y-87768653D01*
X142890050Y-87759681D01*
X142874806Y-87332864D01*
X142876277Y-87308661D01*
X142876680Y-87306116D01*
X142876680Y-87306113D01*
X142878231Y-87296319D01*
X142875051Y-87276241D01*
X142873500Y-87256531D01*
X142873500Y-80111418D01*
X142875051Y-80091707D01*
X142876680Y-80081424D01*
X142876680Y-80081423D01*
X142878231Y-80071630D01*
X142876679Y-80061833D01*
X142876679Y-80059575D01*
X142875494Y-80036120D01*
X142885369Y-79860273D01*
X142887075Y-79829891D01*
X142888657Y-79815854D01*
X142928028Y-79584135D01*
X142931172Y-79570360D01*
X142956834Y-79481284D01*
X142996242Y-79344496D01*
X143000903Y-79331177D01*
X143090854Y-79114017D01*
X143096983Y-79101290D01*
X143127750Y-79045623D01*
X143179379Y-78952207D01*
X143229837Y-78902262D01*
X143291636Y-78887172D01*
X143301679Y-78887330D01*
X143317319Y-78887576D01*
X143317322Y-78887576D01*
X143324916Y-78887695D01*
X143479332Y-78852329D01*
X143555277Y-78814133D01*
X143614072Y-78784563D01*
X143614075Y-78784561D01*
X143620855Y-78781151D01*
X143626626Y-78776222D01*
X143626629Y-78776220D01*
X143735536Y-78683204D01*
X143735536Y-78683203D01*
X143741314Y-78678269D01*
X143833755Y-78549624D01*
X143892842Y-78402641D01*
X143915162Y-78245807D01*
X143915307Y-78232000D01*
X143914403Y-78224525D01*
X143910767Y-78194479D01*
X143896276Y-78074733D01*
X143840280Y-77926546D01*
X143798298Y-77865461D01*
X143754855Y-77802251D01*
X143754854Y-77802249D01*
X143750553Y-77795992D01*
X143632275Y-77690611D01*
X143624889Y-77686700D01*
X143535254Y-77639241D01*
X143492274Y-77616484D01*
X143338633Y-77577892D01*
X143331034Y-77577852D01*
X143331033Y-77577852D01*
X143265181Y-77577507D01*
X143180221Y-77577062D01*
X143172841Y-77578834D01*
X143172839Y-77578834D01*
X143033563Y-77612271D01*
X143033560Y-77612272D01*
X143026184Y-77614043D01*
X142885414Y-77686700D01*
X142766039Y-77790838D01*
X142761672Y-77797052D01*
X142761669Y-77797055D01*
X142724153Y-77850435D01*
X142668619Y-77894667D01*
X142597987Y-77901853D01*
X142534682Y-77869712D01*
X142517226Y-77849352D01*
X142484855Y-77802251D01*
X142484854Y-77802249D01*
X142480553Y-77795992D01*
X142362275Y-77690611D01*
X142354889Y-77686700D01*
X142265254Y-77639241D01*
X142222274Y-77616484D01*
X142068633Y-77577892D01*
X142061034Y-77577852D01*
X142061033Y-77577852D01*
X141995181Y-77577507D01*
X141910221Y-77577062D01*
X141902841Y-77578834D01*
X141902839Y-77578834D01*
X141763563Y-77612271D01*
X141763560Y-77612272D01*
X141756184Y-77614043D01*
X141615414Y-77686700D01*
X141496039Y-77790838D01*
X141491672Y-77797052D01*
X141491669Y-77797055D01*
X141454153Y-77850435D01*
X141398619Y-77894667D01*
X141327987Y-77901853D01*
X141264682Y-77869712D01*
X141247226Y-77849352D01*
X141214855Y-77802251D01*
X141214854Y-77802249D01*
X141210553Y-77795992D01*
X141207577Y-77793341D01*
X141178182Y-77730411D01*
X141183428Y-77670907D01*
X141237970Y-77510233D01*
X141244277Y-77495007D01*
X141347270Y-77286158D01*
X141355511Y-77271884D01*
X141484882Y-77078266D01*
X141494915Y-77065190D01*
X141648456Y-76890110D01*
X141660110Y-76878456D01*
X141835190Y-76724915D01*
X141848266Y-76714882D01*
X142041884Y-76585511D01*
X142056158Y-76577270D01*
X142265007Y-76474277D01*
X142280233Y-76467970D01*
X142500741Y-76393117D01*
X142516662Y-76388851D01*
X142745054Y-76343421D01*
X142761395Y-76341270D01*
X142966825Y-76327806D01*
X142985906Y-76328680D01*
X142992207Y-76328680D01*
X143002000Y-76330231D01*
X143022078Y-76327051D01*
X143041788Y-76325500D01*
X146635291Y-76325500D01*
X146703412Y-76345502D01*
X146749905Y-76399158D01*
X146760009Y-76469432D01*
X146730515Y-76534012D01*
X146693471Y-76563263D01*
X146685391Y-76567469D01*
X146365892Y-76733790D01*
X146001231Y-76966105D01*
X145658205Y-77229318D01*
X145339426Y-77521426D01*
X145047318Y-77840205D01*
X145045651Y-77842377D01*
X145045648Y-77842381D01*
X144990518Y-77914228D01*
X144784105Y-78183231D01*
X144551790Y-78547892D01*
X144352142Y-78931412D01*
X144186680Y-79330874D01*
X144185854Y-79333494D01*
X144185851Y-79333502D01*
X144057491Y-79740607D01*
X144056662Y-79743237D01*
X143963079Y-80165362D01*
X143906643Y-80594037D01*
X143906523Y-80596786D01*
X143906522Y-80596797D01*
X143897332Y-80807300D01*
X143887788Y-81025878D01*
X143887769Y-81026000D01*
X143889308Y-81035714D01*
X143890949Y-81046077D01*
X143892500Y-81065788D01*
X143892500Y-86781187D01*
X143872498Y-86849308D01*
X143849330Y-86876135D01*
X143782039Y-86934838D01*
X143690950Y-87064444D01*
X143633406Y-87212037D01*
X143632414Y-87219570D01*
X143632414Y-87219571D01*
X143613939Y-87359906D01*
X143612729Y-87369096D01*
X143615708Y-87396077D01*
X143627834Y-87505907D01*
X143630113Y-87526553D01*
X143684553Y-87675319D01*
X143772908Y-87806805D01*
X143778527Y-87811918D01*
X143778528Y-87811919D01*
X143884460Y-87908309D01*
X143890076Y-87913419D01*
X144029293Y-87989008D01*
X144182522Y-88029207D01*
X144266477Y-88030526D01*
X144333319Y-88031576D01*
X144333322Y-88031576D01*
X144340916Y-88031695D01*
X144495332Y-87996329D01*
X144580614Y-87953437D01*
X144630072Y-87928563D01*
X144630075Y-87928561D01*
X144636855Y-87925151D01*
X144642626Y-87920222D01*
X144642629Y-87920220D01*
X144751536Y-87827204D01*
X144751536Y-87827203D01*
X144757314Y-87822269D01*
X144849755Y-87693624D01*
X144908842Y-87546641D01*
X144921501Y-87457690D01*
X144930581Y-87393891D01*
X144930581Y-87393888D01*
X144931162Y-87389807D01*
X144931307Y-87376000D01*
X144929360Y-87359906D01*
X144923158Y-87308661D01*
X144912276Y-87218733D01*
X144856280Y-87070546D01*
X144779380Y-86958655D01*
X144770855Y-86946251D01*
X144770854Y-86946249D01*
X144766553Y-86939992D01*
X144750673Y-86925843D01*
X144702375Y-86882812D01*
X144693681Y-86875065D01*
X144656126Y-86814816D01*
X144651500Y-86780989D01*
X144651500Y-86375002D01*
X146614052Y-86375002D01*
X146615605Y-86382508D01*
X146614943Y-86390147D01*
X146617454Y-86400255D01*
X146617454Y-86400257D01*
X146627749Y-86441702D01*
X146628853Y-86446552D01*
X146639612Y-86498561D01*
X146643513Y-86505160D01*
X146645361Y-86512601D01*
X146674177Y-86557228D01*
X146676794Y-86561463D01*
X146698517Y-86598215D01*
X146698519Y-86598217D01*
X146703816Y-86607179D01*
X146709645Y-86612160D01*
X146713803Y-86618599D01*
X146721981Y-86625046D01*
X146721982Y-86625047D01*
X146755512Y-86651479D01*
X146759353Y-86654632D01*
X146799743Y-86689144D01*
X146806871Y-86691968D01*
X146812890Y-86696713D01*
X146822717Y-86700164D01*
X146862991Y-86714307D01*
X146867653Y-86716048D01*
X146907369Y-86731783D01*
X146907370Y-86731783D01*
X146917047Y-86735617D01*
X146924708Y-86735980D01*
X146931938Y-86738519D01*
X146937491Y-86739000D01*
X146985467Y-86739000D01*
X146991430Y-86739141D01*
X147043080Y-86741588D01*
X147050512Y-86739430D01*
X147057827Y-86739000D01*
X147781991Y-86739000D01*
X147850112Y-86759002D01*
X147896605Y-86812658D01*
X147906709Y-86882932D01*
X147877215Y-86947512D01*
X147866281Y-86958655D01*
X146886714Y-87840266D01*
X146821058Y-87899356D01*
X146817819Y-87903419D01*
X146817817Y-87903421D01*
X146772341Y-87960464D01*
X146762303Y-87973055D01*
X146719847Y-88091872D01*
X146719708Y-88102284D01*
X146719708Y-88102286D01*
X146719228Y-88138389D01*
X146718168Y-88218036D01*
X146757445Y-88337941D01*
X146833443Y-88438660D01*
X146937970Y-88509330D01*
X146948022Y-88512054D01*
X146948024Y-88512055D01*
X147049699Y-88539609D01*
X147049701Y-88539609D01*
X147059752Y-88542333D01*
X147139224Y-88537142D01*
X147175264Y-88534788D01*
X147185658Y-88534109D01*
X147302112Y-88485544D01*
X147306562Y-88482187D01*
X149021841Y-86938436D01*
X149085854Y-86907734D01*
X149156305Y-86916514D01*
X149188129Y-86936426D01*
X150811686Y-88328046D01*
X150975257Y-88468250D01*
X151022341Y-88496710D01*
X151047003Y-88511618D01*
X151047005Y-88511619D01*
X151055919Y-88517007D01*
X151066099Y-88519218D01*
X151066100Y-88519218D01*
X151117494Y-88530378D01*
X151179221Y-88543782D01*
X151189559Y-88542577D01*
X151189562Y-88542577D01*
X151253675Y-88535103D01*
X151304547Y-88529173D01*
X151418384Y-88474756D01*
X151508458Y-88386401D01*
X151513128Y-88377095D01*
X151513130Y-88377093D01*
X151537745Y-88328046D01*
X151565055Y-88273631D01*
X151582072Y-88148610D01*
X151568958Y-88082064D01*
X151559691Y-88035038D01*
X151559690Y-88035035D01*
X151557676Y-88024816D01*
X151546831Y-88006068D01*
X151498464Y-87922460D01*
X151494495Y-87915599D01*
X151490592Y-87911620D01*
X151323797Y-87768653D01*
X150381145Y-86960666D01*
X150342441Y-86901147D01*
X150342060Y-86830152D01*
X150380122Y-86770220D01*
X150444544Y-86740381D01*
X150463145Y-86739000D01*
X151158256Y-86739000D01*
X151177966Y-86740551D01*
X151198000Y-86743724D01*
X151203797Y-86742806D01*
X151394798Y-86726095D01*
X151522163Y-86691968D01*
X151580306Y-86676389D01*
X151580308Y-86676388D01*
X151585616Y-86674966D01*
X151590598Y-86672643D01*
X151759670Y-86593804D01*
X151759675Y-86593801D01*
X151764657Y-86591478D01*
X151887502Y-86505461D01*
X151921969Y-86481327D01*
X151921972Y-86481325D01*
X151926480Y-86478168D01*
X152066168Y-86338480D01*
X152179478Y-86176657D01*
X152181801Y-86171675D01*
X152181804Y-86171670D01*
X152260643Y-86002598D01*
X152260643Y-86002597D01*
X152262966Y-85997616D01*
X152264950Y-85990214D01*
X152312671Y-85812113D01*
X152312671Y-85812112D01*
X152314095Y-85806798D01*
X152331313Y-85610000D01*
X152314095Y-85413202D01*
X152312671Y-85407887D01*
X152264389Y-85227694D01*
X152264388Y-85227692D01*
X152262966Y-85222384D01*
X152252408Y-85199743D01*
X152198015Y-85083096D01*
X156185729Y-85083096D01*
X156193171Y-85150500D01*
X156202199Y-85232271D01*
X156203113Y-85240553D01*
X156205723Y-85247684D01*
X156205723Y-85247686D01*
X156229145Y-85311689D01*
X156257553Y-85389319D01*
X156261789Y-85395622D01*
X156261789Y-85395623D01*
X156339579Y-85511386D01*
X156345908Y-85520805D01*
X156351527Y-85525918D01*
X156351528Y-85525919D01*
X156457460Y-85622309D01*
X156463076Y-85627419D01*
X156602293Y-85703008D01*
X156755522Y-85743207D01*
X156839477Y-85744526D01*
X156906319Y-85745576D01*
X156906322Y-85745576D01*
X156913916Y-85745695D01*
X157068332Y-85710329D01*
X157138742Y-85674917D01*
X157203072Y-85642563D01*
X157203075Y-85642561D01*
X157209855Y-85639151D01*
X157215626Y-85634222D01*
X157215629Y-85634220D01*
X157324536Y-85541204D01*
X157324536Y-85541203D01*
X157330314Y-85536269D01*
X157422755Y-85407624D01*
X157481842Y-85260641D01*
X157500592Y-85128894D01*
X157503581Y-85107891D01*
X157503581Y-85107888D01*
X157504162Y-85103807D01*
X157504307Y-85090000D01*
X157485276Y-84932733D01*
X157429280Y-84784546D01*
X157399924Y-84741832D01*
X157343855Y-84660251D01*
X157343854Y-84660249D01*
X157339553Y-84653992D01*
X157266681Y-84589065D01*
X157229126Y-84528816D01*
X157224500Y-84494989D01*
X157224500Y-80604730D01*
X157244502Y-80536609D01*
X157268669Y-80508919D01*
X157324536Y-80461204D01*
X157330314Y-80456269D01*
X157422755Y-80327624D01*
X157481842Y-80180641D01*
X157504162Y-80023807D01*
X157504307Y-80010000D01*
X157485276Y-79852733D01*
X157429280Y-79704546D01*
X157349885Y-79589025D01*
X157343855Y-79580251D01*
X157343854Y-79580249D01*
X157339553Y-79573992D01*
X157221275Y-79468611D01*
X157213889Y-79464700D01*
X157087988Y-79398039D01*
X157087989Y-79398039D01*
X157081274Y-79394484D01*
X156927633Y-79355892D01*
X156920034Y-79355852D01*
X156920033Y-79355852D01*
X156854181Y-79355507D01*
X156769221Y-79355062D01*
X156761841Y-79356834D01*
X156761839Y-79356834D01*
X156622563Y-79390271D01*
X156622560Y-79390272D01*
X156615184Y-79392043D01*
X156474414Y-79464700D01*
X156355039Y-79568838D01*
X156263950Y-79698444D01*
X156206406Y-79846037D01*
X156205414Y-79853570D01*
X156205414Y-79853571D01*
X156192094Y-79954751D01*
X156185729Y-80003096D01*
X156203113Y-80160553D01*
X156205723Y-80167684D01*
X156205723Y-80167686D01*
X156229443Y-80232503D01*
X156257553Y-80309319D01*
X156345908Y-80440805D01*
X156351527Y-80445918D01*
X156351528Y-80445919D01*
X156424299Y-80512135D01*
X156461222Y-80572775D01*
X156465500Y-80605329D01*
X156465500Y-84495187D01*
X156445498Y-84563308D01*
X156422330Y-84590135D01*
X156355039Y-84648838D01*
X156263950Y-84778444D01*
X156206406Y-84926037D01*
X156205414Y-84933570D01*
X156205414Y-84933571D01*
X156189423Y-85055040D01*
X156185729Y-85083096D01*
X152198015Y-85083096D01*
X152181801Y-85048325D01*
X152181799Y-85048322D01*
X152179478Y-85043344D01*
X152066168Y-84881520D01*
X151926480Y-84741832D01*
X151921972Y-84738675D01*
X151921969Y-84738673D01*
X151855051Y-84691817D01*
X151764657Y-84628522D01*
X151759675Y-84626199D01*
X151759670Y-84626196D01*
X151590598Y-84547357D01*
X151590597Y-84547357D01*
X151585616Y-84545034D01*
X151580308Y-84543612D01*
X151580306Y-84543611D01*
X151511219Y-84525100D01*
X151394798Y-84493905D01*
X151203797Y-84477194D01*
X151198000Y-84476276D01*
X151188208Y-84477827D01*
X151089214Y-84493506D01*
X151089213Y-84493506D01*
X151079423Y-84495057D01*
X150972453Y-84549561D01*
X150887561Y-84634453D01*
X150833057Y-84741423D01*
X150814276Y-84860000D01*
X150833057Y-84978577D01*
X150837557Y-84987408D01*
X150837557Y-84987409D01*
X150840576Y-84993333D01*
X150853681Y-85063109D01*
X150826983Y-85128894D01*
X150805014Y-85150500D01*
X150790904Y-85161327D01*
X150790900Y-85161331D01*
X150784354Y-85166354D01*
X150689142Y-85290437D01*
X150629289Y-85434935D01*
X150608874Y-85590000D01*
X150629289Y-85745065D01*
X150642880Y-85777876D01*
X150654853Y-85806782D01*
X150662442Y-85877372D01*
X150630663Y-85940859D01*
X150569605Y-85977086D01*
X150538444Y-85981000D01*
X149603000Y-85981000D01*
X149534879Y-85960998D01*
X149488386Y-85907342D01*
X149477000Y-85855000D01*
X149477000Y-85119881D01*
X149497002Y-85051760D01*
X149529763Y-85017352D01*
X150488630Y-84332447D01*
X151439679Y-83653127D01*
X151439682Y-83653124D01*
X151443912Y-83650103D01*
X151510573Y-83583470D01*
X151566107Y-83470174D01*
X151581947Y-83344998D01*
X151579838Y-83334801D01*
X151558497Y-83231632D01*
X151558496Y-83231629D01*
X151556388Y-83221439D01*
X151492184Y-83112821D01*
X151396256Y-83030856D01*
X151278953Y-82984383D01*
X151268552Y-82983890D01*
X151268551Y-82983890D01*
X151184461Y-82979906D01*
X151152920Y-82978412D01*
X151142918Y-82981316D01*
X151142915Y-82981316D01*
X151039359Y-83011379D01*
X151039358Y-83011380D01*
X151031747Y-83013589D01*
X151026949Y-83016425D01*
X150378609Y-83479525D01*
X148887823Y-84544372D01*
X148882945Y-84547687D01*
X148839401Y-84575803D01*
X148834651Y-84581828D01*
X148829028Y-84586369D01*
X146846308Y-86002598D01*
X146803700Y-86033032D01*
X146790294Y-86041391D01*
X146777173Y-86048471D01*
X146762496Y-86056390D01*
X146755428Y-86064036D01*
X146755427Y-86064037D01*
X146726441Y-86095394D01*
X146722992Y-86098979D01*
X146692792Y-86129166D01*
X146692789Y-86129170D01*
X146685426Y-86136530D01*
X146682051Y-86143415D01*
X146676849Y-86149043D01*
X146655362Y-86197645D01*
X146653297Y-86202079D01*
X146629893Y-86249826D01*
X146628930Y-86257432D01*
X146625831Y-86264443D01*
X146624427Y-86280656D01*
X146621248Y-86317357D01*
X146620721Y-86322305D01*
X146614052Y-86375002D01*
X144651500Y-86375002D01*
X144651500Y-81065788D01*
X144653051Y-81046077D01*
X144654680Y-81035792D01*
X144656231Y-81026000D01*
X144654580Y-81015574D01*
X144653162Y-80990043D01*
X144669116Y-80644981D01*
X144670190Y-80633392D01*
X144722081Y-80261396D01*
X144724220Y-80249956D01*
X144778380Y-80019682D01*
X144810214Y-79884329D01*
X144813397Y-79873144D01*
X144819958Y-79853571D01*
X144908625Y-79589025D01*
X144932759Y-79517019D01*
X144936963Y-79506167D01*
X145088677Y-79162567D01*
X145093865Y-79152149D01*
X145253455Y-78865629D01*
X145276628Y-78824026D01*
X145282753Y-78814133D01*
X145313915Y-78768643D01*
X145390734Y-78656500D01*
X145495021Y-78504261D01*
X145502035Y-78494974D01*
X145741989Y-78206007D01*
X145749830Y-78197406D01*
X146015406Y-77931830D01*
X146024007Y-77923989D01*
X146312974Y-77684035D01*
X146322261Y-77677021D01*
X146632133Y-77464753D01*
X146642028Y-77458627D01*
X146970149Y-77275865D01*
X146980567Y-77270677D01*
X147324167Y-77118963D01*
X147335019Y-77114759D01*
X147518625Y-77053220D01*
X147691153Y-76995394D01*
X147702329Y-76992214D01*
X147897919Y-76946212D01*
X148067956Y-76906220D01*
X148079396Y-76904081D01*
X148317142Y-76870917D01*
X148451398Y-76852189D01*
X148462979Y-76851116D01*
X148808048Y-76835162D01*
X148833574Y-76836580D01*
X148844000Y-76838231D01*
X148864078Y-76835051D01*
X148883788Y-76833500D01*
X150074916Y-76833500D01*
X150094272Y-76834996D01*
X150115060Y-76838230D01*
X150124855Y-76836651D01*
X150125412Y-76836649D01*
X150132723Y-76835755D01*
X150182673Y-76831587D01*
X150294434Y-76822261D01*
X150294437Y-76822260D01*
X150299488Y-76821839D01*
X150304410Y-76820612D01*
X150304412Y-76820612D01*
X150356933Y-76807522D01*
X150479066Y-76777083D01*
X150483733Y-76775081D01*
X150644479Y-76706122D01*
X150644484Y-76706120D01*
X150649147Y-76704119D01*
X150657551Y-76698777D01*
X150801052Y-76607555D01*
X150801054Y-76607553D01*
X150805332Y-76604834D01*
X150909964Y-76511716D01*
X150939791Y-76485171D01*
X150939792Y-76485170D01*
X150943582Y-76481797D01*
X151060322Y-76338188D01*
X151062852Y-76333786D01*
X151150005Y-76182121D01*
X151150008Y-76182114D01*
X151152531Y-76177724D01*
X151217825Y-76004553D01*
X151244987Y-75870262D01*
X151249604Y-75853493D01*
X151250389Y-75851259D01*
X151250390Y-75851255D01*
X151253015Y-75843780D01*
X151253497Y-75838215D01*
X151253497Y-75834529D01*
X151253811Y-75829258D01*
X151255507Y-75823274D01*
X151253588Y-75772809D01*
X151253497Y-75768021D01*
X151253497Y-75595080D01*
X151273499Y-75526959D01*
X151327155Y-75480466D01*
X151397429Y-75470362D01*
X151443123Y-75488630D01*
X151443825Y-75487338D01*
X151583042Y-75562927D01*
X151736271Y-75603126D01*
X151853040Y-75604960D01*
X151920837Y-75626029D01*
X151940155Y-75641849D01*
X154885249Y-78586943D01*
X154919275Y-78649255D01*
X154921076Y-78692482D01*
X154915729Y-78733096D01*
X154919175Y-78764309D01*
X154928085Y-78845008D01*
X154933113Y-78890553D01*
X154935723Y-78897684D01*
X154935723Y-78897686D01*
X154945566Y-78924582D01*
X154987553Y-79039319D01*
X154991789Y-79045622D01*
X154991789Y-79045623D01*
X155063372Y-79152149D01*
X155075908Y-79170805D01*
X155081527Y-79175918D01*
X155081528Y-79175919D01*
X155186391Y-79271336D01*
X155193076Y-79277419D01*
X155332293Y-79353008D01*
X155485522Y-79393207D01*
X155569477Y-79394526D01*
X155636319Y-79395576D01*
X155636322Y-79395576D01*
X155643916Y-79395695D01*
X155798332Y-79360329D01*
X155868742Y-79324917D01*
X155933072Y-79292563D01*
X155933075Y-79292561D01*
X155939855Y-79289151D01*
X155945626Y-79284222D01*
X155945629Y-79284220D01*
X156054536Y-79191204D01*
X156054536Y-79191203D01*
X156060314Y-79186269D01*
X156152755Y-79057624D01*
X156211842Y-78910641D01*
X156223877Y-78826078D01*
X156233581Y-78757891D01*
X156233581Y-78757888D01*
X156234162Y-78753807D01*
X156234307Y-78740000D01*
X156232561Y-78725567D01*
X156225584Y-78667919D01*
X156215276Y-78582733D01*
X156159280Y-78434546D01*
X156069553Y-78303992D01*
X155951275Y-78198611D01*
X155811274Y-78124484D01*
X155657633Y-78085892D01*
X155650034Y-78085852D01*
X155650033Y-78085852D01*
X155589626Y-78085536D01*
X155508335Y-78085110D01*
X155440321Y-78064752D01*
X155419901Y-78048207D01*
X152510805Y-75139111D01*
X152476779Y-75076799D01*
X152475157Y-75032263D01*
X152484330Y-74967810D01*
X152484330Y-74967807D01*
X152484911Y-74963726D01*
X152485056Y-74949919D01*
X152466025Y-74792652D01*
X152459391Y-74775095D01*
X157969001Y-74775095D01*
X157969338Y-74781614D01*
X157979257Y-74877206D01*
X157982149Y-74890600D01*
X158033588Y-75044784D01*
X158039761Y-75057962D01*
X158125063Y-75195807D01*
X158134099Y-75207208D01*
X158248829Y-75321739D01*
X158260240Y-75330751D01*
X158398243Y-75415816D01*
X158411424Y-75421963D01*
X158565710Y-75473138D01*
X158579086Y-75476005D01*
X158673438Y-75485672D01*
X158679854Y-75486000D01*
X159129885Y-75486000D01*
X159145124Y-75481525D01*
X159146329Y-75480135D01*
X159148000Y-75472452D01*
X159148000Y-75467884D01*
X159656000Y-75467884D01*
X159660475Y-75483123D01*
X159661865Y-75484328D01*
X159669548Y-75485999D01*
X160124095Y-75485999D01*
X160130614Y-75485662D01*
X160226206Y-75475743D01*
X160239600Y-75472851D01*
X160393784Y-75421412D01*
X160406962Y-75415239D01*
X160544807Y-75329937D01*
X160556208Y-75320901D01*
X160670739Y-75206171D01*
X160679751Y-75194760D01*
X160764816Y-75056757D01*
X160770963Y-75043576D01*
X160822138Y-74889290D01*
X160825005Y-74875914D01*
X160834672Y-74781562D01*
X160835000Y-74775146D01*
X160835000Y-74400115D01*
X160830525Y-74384876D01*
X160829135Y-74383671D01*
X160821452Y-74382000D01*
X159674115Y-74382000D01*
X159658876Y-74386475D01*
X159657671Y-74387865D01*
X159656000Y-74395548D01*
X159656000Y-75467884D01*
X159148000Y-75467884D01*
X159148000Y-74400115D01*
X159143525Y-74384876D01*
X159142135Y-74383671D01*
X159134452Y-74382000D01*
X157987116Y-74382000D01*
X157971877Y-74386475D01*
X157970672Y-74387865D01*
X157969001Y-74395548D01*
X157969001Y-74775095D01*
X152459391Y-74775095D01*
X152410029Y-74644465D01*
X152396009Y-74624065D01*
X152324604Y-74520170D01*
X152324603Y-74520168D01*
X152320302Y-74513911D01*
X152202024Y-74408530D01*
X152062023Y-74334403D01*
X151908382Y-74295811D01*
X151900783Y-74295771D01*
X151900782Y-74295771D01*
X151834930Y-74295426D01*
X151749970Y-74294981D01*
X151742590Y-74296753D01*
X151742588Y-74296753D01*
X151603312Y-74330190D01*
X151603309Y-74330191D01*
X151595933Y-74331962D01*
X151589190Y-74335442D01*
X151582063Y-74338093D01*
X151581084Y-74335462D01*
X151524289Y-74346452D01*
X151458359Y-74320115D01*
X151432332Y-74292381D01*
X151374855Y-74208751D01*
X151374854Y-74208749D01*
X151370553Y-74202492D01*
X151252275Y-74097111D01*
X151244889Y-74093200D01*
X151200452Y-74069672D01*
X151112274Y-74022984D01*
X150958633Y-73984392D01*
X150951034Y-73984352D01*
X150951033Y-73984352D01*
X150885181Y-73984007D01*
X150800221Y-73983562D01*
X150792841Y-73985334D01*
X150792839Y-73985334D01*
X150653563Y-74018771D01*
X150653560Y-74018772D01*
X150646184Y-74020543D01*
X150505414Y-74093200D01*
X150386039Y-74197338D01*
X150294950Y-74326944D01*
X150278037Y-74370323D01*
X150243768Y-74458220D01*
X150237406Y-74474537D01*
X150236414Y-74482070D01*
X150236414Y-74482071D01*
X150224428Y-74573118D01*
X150216729Y-74631596D01*
X150218031Y-74643386D01*
X150218046Y-74643525D01*
X150217484Y-74646694D01*
X150217483Y-74646742D01*
X150217475Y-74646742D01*
X150205637Y-74713429D01*
X150157405Y-74765527D01*
X150092147Y-74783345D01*
X150038221Y-74783062D01*
X150030841Y-74784834D01*
X150030839Y-74784834D01*
X149891563Y-74818271D01*
X149891560Y-74818272D01*
X149884184Y-74820043D01*
X149743414Y-74892700D01*
X149624039Y-74996838D01*
X149532950Y-75126444D01*
X149506315Y-75194760D01*
X149482284Y-75256397D01*
X149475406Y-75274037D01*
X149474414Y-75281570D01*
X149474414Y-75281571D01*
X149456741Y-75415816D01*
X149454729Y-75431096D01*
X149455562Y-75438643D01*
X149455529Y-75441821D01*
X149434814Y-75509728D01*
X149380674Y-75555656D01*
X149329536Y-75566500D01*
X143041788Y-75566500D01*
X143022077Y-75564949D01*
X143021471Y-75564853D01*
X143002000Y-75561769D01*
X142996806Y-75562592D01*
X142988821Y-75563040D01*
X142988820Y-75563040D01*
X142784528Y-75574513D01*
X142703088Y-75579087D01*
X142407936Y-75629235D01*
X142120254Y-75712115D01*
X142116986Y-75713469D01*
X142116985Y-75713469D01*
X141846929Y-75825329D01*
X141846924Y-75825332D01*
X141843661Y-75826683D01*
X141840566Y-75828393D01*
X141840565Y-75828394D01*
X141824717Y-75837153D01*
X141581634Y-75971500D01*
X141578748Y-75973548D01*
X141578746Y-75973549D01*
X141502887Y-76027374D01*
X141337469Y-76144744D01*
X141114237Y-76344237D01*
X140914744Y-76567469D01*
X140741500Y-76811634D01*
X140596683Y-77073661D01*
X140595332Y-77076924D01*
X140595329Y-77076929D01*
X140483469Y-77346985D01*
X140482115Y-77350254D01*
X140436026Y-77510233D01*
X140407076Y-77610719D01*
X140368997Y-77670640D01*
X140356824Y-77680048D01*
X140352158Y-77683219D01*
X140345414Y-77686700D01*
X140226039Y-77790838D01*
X140221672Y-77797052D01*
X140221669Y-77797055D01*
X140184153Y-77850435D01*
X140128619Y-77894667D01*
X140057987Y-77901853D01*
X139994682Y-77869712D01*
X139977226Y-77849352D01*
X139944855Y-77802251D01*
X139944854Y-77802249D01*
X139940553Y-77795992D01*
X139822275Y-77690611D01*
X139814889Y-77686700D01*
X139725254Y-77639241D01*
X139682274Y-77616484D01*
X139528633Y-77577892D01*
X139521034Y-77577852D01*
X139521033Y-77577852D01*
X139455181Y-77577507D01*
X139370221Y-77577062D01*
X139362841Y-77578834D01*
X139362839Y-77578834D01*
X139223563Y-77612271D01*
X139223560Y-77612272D01*
X139216184Y-77614043D01*
X139075414Y-77686700D01*
X138956039Y-77790838D01*
X138864950Y-77920444D01*
X138862190Y-77927524D01*
X138810626Y-78059779D01*
X138807406Y-78068037D01*
X138806414Y-78075570D01*
X138806414Y-78075571D01*
X138789246Y-78205980D01*
X138786729Y-78225096D01*
X137031500Y-78225096D01*
X137031500Y-67560208D01*
X137033051Y-67540497D01*
X137034680Y-67530212D01*
X137036231Y-67520420D01*
X137034680Y-67510627D01*
X137034680Y-67504326D01*
X137033806Y-67485244D01*
X137042552Y-67351809D01*
X137044703Y-67335469D01*
X137069504Y-67210786D01*
X137076058Y-67177836D01*
X137080323Y-67161919D01*
X137089945Y-67133573D01*
X137123928Y-67033464D01*
X137164764Y-66975389D01*
X137227583Y-66949674D01*
X137228916Y-66949695D01*
X137383332Y-66914329D01*
X137460884Y-66875325D01*
X137518072Y-66846563D01*
X137518075Y-66846561D01*
X137524855Y-66843151D01*
X137530626Y-66838222D01*
X137530629Y-66838220D01*
X137639536Y-66745204D01*
X137639536Y-66745203D01*
X137645314Y-66740269D01*
X137737755Y-66611624D01*
X137796842Y-66464641D01*
X137816940Y-66323419D01*
X137818581Y-66311891D01*
X137818581Y-66311888D01*
X137819162Y-66307807D01*
X137819255Y-66298976D01*
X137819264Y-66298134D01*
X137819264Y-66298128D01*
X137819307Y-66294000D01*
X137800276Y-66136733D01*
X137744280Y-65988546D01*
X137654553Y-65857992D01*
X137566001Y-65779096D01*
X140310729Y-65779096D01*
X140317789Y-65843040D01*
X140326132Y-65918608D01*
X140328113Y-65936553D01*
X140330723Y-65943684D01*
X140330723Y-65943686D01*
X140372017Y-66056527D01*
X140382553Y-66085319D01*
X140386789Y-66091622D01*
X140386789Y-66091623D01*
X140407866Y-66122988D01*
X140470908Y-66216805D01*
X140476527Y-66221918D01*
X140476528Y-66221919D01*
X140571856Y-66308660D01*
X140588076Y-66323419D01*
X140727293Y-66399008D01*
X140880522Y-66439207D01*
X140964477Y-66440526D01*
X141031319Y-66441576D01*
X141031322Y-66441576D01*
X141038916Y-66441695D01*
X141193332Y-66406329D01*
X141263742Y-66370917D01*
X141328072Y-66338563D01*
X141328075Y-66338561D01*
X141334855Y-66335151D01*
X141340626Y-66330222D01*
X141340629Y-66330220D01*
X141449536Y-66237204D01*
X141449536Y-66237203D01*
X141455314Y-66232269D01*
X141502478Y-66166634D01*
X141558470Y-66122988D01*
X141629173Y-66116542D01*
X141692138Y-66149345D01*
X141709380Y-66169887D01*
X141736668Y-66210497D01*
X141736671Y-66210500D01*
X141740908Y-66216805D01*
X141746527Y-66221918D01*
X141746528Y-66221919D01*
X141841856Y-66308660D01*
X141858076Y-66323419D01*
X141997293Y-66399008D01*
X142150522Y-66439207D01*
X142219395Y-66440289D01*
X142244479Y-66440683D01*
X142312277Y-66461752D01*
X142357922Y-66516131D01*
X142368500Y-66566667D01*
X142368500Y-73319308D01*
X142348498Y-73387429D01*
X142325330Y-73414257D01*
X142252310Y-73477957D01*
X142161221Y-73607563D01*
X142103677Y-73755156D01*
X142102685Y-73762689D01*
X142102685Y-73762690D01*
X142088410Y-73871124D01*
X142083000Y-73912215D01*
X142100384Y-74069672D01*
X142102994Y-74076803D01*
X142102994Y-74076805D01*
X142149377Y-74203552D01*
X142154824Y-74218438D01*
X142159060Y-74224741D01*
X142159060Y-74224742D01*
X142232495Y-74334024D01*
X142243179Y-74349924D01*
X142248798Y-74355037D01*
X142248799Y-74355038D01*
X142313140Y-74413583D01*
X142360347Y-74456538D01*
X142499564Y-74532127D01*
X142652793Y-74572326D01*
X142736748Y-74573645D01*
X142803590Y-74574695D01*
X142803593Y-74574695D01*
X142811187Y-74574814D01*
X142965603Y-74539448D01*
X143079686Y-74482071D01*
X143100343Y-74471682D01*
X143100346Y-74471680D01*
X143107126Y-74468270D01*
X143112897Y-74463341D01*
X143112900Y-74463339D01*
X143221807Y-74370323D01*
X143221807Y-74370322D01*
X143227585Y-74365388D01*
X143279486Y-74293160D01*
X143335479Y-74249514D01*
X143406183Y-74243068D01*
X143469147Y-74275871D01*
X143486388Y-74296412D01*
X143514667Y-74338495D01*
X143514669Y-74338497D01*
X143518908Y-74344805D01*
X143524527Y-74349918D01*
X143524528Y-74349919D01*
X143630460Y-74446309D01*
X143636076Y-74451419D01*
X143775293Y-74527008D01*
X143928522Y-74567207D01*
X144012477Y-74568526D01*
X144079319Y-74569576D01*
X144079322Y-74569576D01*
X144086916Y-74569695D01*
X144241332Y-74534329D01*
X144311742Y-74498917D01*
X144376072Y-74466563D01*
X144376075Y-74466561D01*
X144382855Y-74463151D01*
X144388626Y-74458222D01*
X144388629Y-74458220D01*
X144497536Y-74365204D01*
X144497536Y-74365203D01*
X144503314Y-74360269D01*
X144550478Y-74294634D01*
X144606470Y-74250988D01*
X144677173Y-74244542D01*
X144740138Y-74277345D01*
X144757380Y-74297887D01*
X144784668Y-74338497D01*
X144784673Y-74338503D01*
X144788908Y-74344805D01*
X144794527Y-74349918D01*
X144794528Y-74349919D01*
X144900460Y-74446309D01*
X144906076Y-74451419D01*
X145045293Y-74527008D01*
X145198522Y-74567207D01*
X145282477Y-74568526D01*
X145349319Y-74569576D01*
X145349322Y-74569576D01*
X145356916Y-74569695D01*
X145511332Y-74534329D01*
X145581742Y-74498917D01*
X145646072Y-74466563D01*
X145646075Y-74466561D01*
X145652855Y-74463151D01*
X145658626Y-74458222D01*
X145658629Y-74458220D01*
X145767536Y-74365204D01*
X145767536Y-74365203D01*
X145773314Y-74360269D01*
X145820478Y-74294634D01*
X145876470Y-74250988D01*
X145947173Y-74244542D01*
X146010138Y-74277345D01*
X146027380Y-74297887D01*
X146054668Y-74338497D01*
X146054673Y-74338503D01*
X146058908Y-74344805D01*
X146064527Y-74349918D01*
X146064528Y-74349919D01*
X146170460Y-74446309D01*
X146176076Y-74451419D01*
X146315293Y-74527008D01*
X146468522Y-74567207D01*
X146552477Y-74568526D01*
X146619319Y-74569576D01*
X146619322Y-74569576D01*
X146626916Y-74569695D01*
X146781332Y-74534329D01*
X146851742Y-74498917D01*
X146916072Y-74466563D01*
X146916075Y-74466561D01*
X146922855Y-74463151D01*
X146928626Y-74458222D01*
X146928629Y-74458220D01*
X147037536Y-74365204D01*
X147037536Y-74365203D01*
X147043314Y-74360269D01*
X147135755Y-74231624D01*
X147194842Y-74084641D01*
X147209115Y-73984352D01*
X147216581Y-73931891D01*
X147216581Y-73931888D01*
X147217162Y-73927807D01*
X147217231Y-73921265D01*
X147217264Y-73918134D01*
X147217264Y-73918128D01*
X147217307Y-73914000D01*
X147198276Y-73756733D01*
X147142280Y-73608546D01*
X147052553Y-73477992D01*
X146979681Y-73413065D01*
X146942126Y-73352816D01*
X146937500Y-73318989D01*
X146937500Y-73191788D01*
X146939051Y-73172077D01*
X146940680Y-73161792D01*
X146940680Y-73161790D01*
X146942231Y-73152000D01*
X146940680Y-73142208D01*
X146940680Y-73141340D01*
X146939369Y-73116327D01*
X146940297Y-73098632D01*
X146954555Y-72826565D01*
X146955933Y-72813449D01*
X147005881Y-72498090D01*
X147008623Y-72485190D01*
X147091261Y-72176781D01*
X147095337Y-72164237D01*
X147097714Y-72158047D01*
X147209755Y-71866170D01*
X147215119Y-71854122D01*
X147360073Y-71569633D01*
X147366667Y-71558212D01*
X147540564Y-71290433D01*
X147548317Y-71279763D01*
X147749245Y-71031637D01*
X147758070Y-71021836D01*
X147983836Y-70796070D01*
X147993637Y-70787245D01*
X148241763Y-70586317D01*
X148252433Y-70578564D01*
X148520212Y-70404667D01*
X148531633Y-70398073D01*
X148816122Y-70253119D01*
X148828170Y-70247755D01*
X148911371Y-70215817D01*
X149126245Y-70133335D01*
X149138781Y-70129261D01*
X149211411Y-70109800D01*
X149447190Y-70046623D01*
X149460090Y-70043881D01*
X149775449Y-69993933D01*
X149788565Y-69992555D01*
X150078330Y-69977369D01*
X150103340Y-69978680D01*
X150104208Y-69978680D01*
X150114000Y-69980231D01*
X150134078Y-69977051D01*
X150153788Y-69975500D01*
X154456531Y-69975500D01*
X154476241Y-69977051D01*
X154496319Y-69980231D01*
X154506113Y-69978680D01*
X154506116Y-69978680D01*
X154508661Y-69978277D01*
X154532864Y-69976806D01*
X154959681Y-69992050D01*
X154968653Y-69992692D01*
X155425170Y-70041772D01*
X155434073Y-70043052D01*
X155660003Y-70083814D01*
X155885935Y-70124577D01*
X155894719Y-70126488D01*
X156339616Y-70240041D01*
X156348237Y-70242573D01*
X156783909Y-70387578D01*
X156792313Y-70390713D01*
X156924137Y-70445316D01*
X157216532Y-70566430D01*
X157224714Y-70570167D01*
X157363747Y-70639762D01*
X157592008Y-70754021D01*
X157635291Y-70775687D01*
X157643181Y-70779995D01*
X157670274Y-70796070D01*
X158038068Y-71014293D01*
X158045634Y-71019156D01*
X158227827Y-71145654D01*
X158272376Y-71200935D01*
X158279965Y-71271524D01*
X158274995Y-71290485D01*
X158251011Y-71359554D01*
X158249043Y-71365222D01*
X158248183Y-71371155D01*
X158248182Y-71371158D01*
X158236259Y-71453392D01*
X158218801Y-71573800D01*
X158228545Y-71784333D01*
X158277924Y-71989226D01*
X158280406Y-71994684D01*
X158280407Y-71994688D01*
X158316400Y-72073849D01*
X158365157Y-72181084D01*
X158487096Y-72352986D01*
X158596194Y-72457424D01*
X158631861Y-72491568D01*
X158639340Y-72498728D01*
X158644375Y-72501979D01*
X158705664Y-72541553D01*
X158752042Y-72595308D01*
X158761995Y-72665604D01*
X158732363Y-72730121D01*
X158672555Y-72768377D01*
X158650319Y-72772732D01*
X158577794Y-72780257D01*
X158564400Y-72783149D01*
X158410216Y-72834588D01*
X158397038Y-72840761D01*
X158259193Y-72926063D01*
X158247792Y-72935099D01*
X158133261Y-73049829D01*
X158124249Y-73061240D01*
X158039184Y-73199243D01*
X158033037Y-73212424D01*
X157981862Y-73366710D01*
X157978995Y-73380086D01*
X157969328Y-73474438D01*
X157969000Y-73480855D01*
X157969000Y-73855885D01*
X157973475Y-73871124D01*
X157974865Y-73872329D01*
X157982548Y-73874000D01*
X160816884Y-73874000D01*
X160832123Y-73869525D01*
X160833328Y-73868135D01*
X160834999Y-73860452D01*
X160834999Y-73480905D01*
X160834662Y-73474386D01*
X160824743Y-73378794D01*
X160821851Y-73365400D01*
X160770412Y-73211216D01*
X160764239Y-73198038D01*
X160678937Y-73060193D01*
X160669901Y-73048792D01*
X160555171Y-72934261D01*
X160543760Y-72925249D01*
X160405757Y-72840184D01*
X160392576Y-72834037D01*
X160238290Y-72782862D01*
X160224914Y-72779995D01*
X160157919Y-72773131D01*
X160092192Y-72746290D01*
X160051410Y-72688176D01*
X160048520Y-72617238D01*
X160084442Y-72555999D01*
X160092928Y-72548701D01*
X160237431Y-72435192D01*
X160242149Y-72431486D01*
X160291063Y-72375118D01*
X160376350Y-72276835D01*
X160376354Y-72276830D01*
X160380281Y-72272304D01*
X160485819Y-72089874D01*
X160554957Y-71890778D01*
X160559420Y-71860001D01*
X160584338Y-71688140D01*
X160584338Y-71688137D01*
X160585199Y-71682200D01*
X160575455Y-71471667D01*
X160571617Y-71455739D01*
X160527482Y-71272607D01*
X160527481Y-71272605D01*
X160526076Y-71266774D01*
X160522310Y-71258490D01*
X160441323Y-71080371D01*
X160438843Y-71074916D01*
X160316904Y-70903014D01*
X160164660Y-70757272D01*
X160132631Y-70736591D01*
X159992640Y-70646200D01*
X159992637Y-70646199D01*
X159987603Y-70642948D01*
X159792122Y-70564166D01*
X159657739Y-70537923D01*
X159589717Y-70524639D01*
X159589714Y-70524639D01*
X159585271Y-70523771D01*
X159579730Y-70523500D01*
X159274341Y-70523500D01*
X159117194Y-70538493D01*
X158914958Y-70597823D01*
X158902005Y-70604494D01*
X158832287Y-70617904D01*
X158770920Y-70594898D01*
X158758946Y-70586317D01*
X158563704Y-70446409D01*
X158156869Y-70193422D01*
X158040028Y-70130969D01*
X158004956Y-70112223D01*
X157734359Y-69967586D01*
X157297983Y-69769866D01*
X157248982Y-69751424D01*
X157192275Y-69708708D01*
X157167662Y-69642115D01*
X157182960Y-69572786D01*
X157233311Y-69522733D01*
X157293367Y-69507500D01*
X158205109Y-69507500D01*
X158273230Y-69527502D01*
X158319810Y-69581349D01*
X158365157Y-69681084D01*
X158429864Y-69772304D01*
X158474968Y-69835888D01*
X158487096Y-69852986D01*
X158639340Y-69998728D01*
X158644375Y-70001979D01*
X158811360Y-70109800D01*
X158811363Y-70109801D01*
X158816397Y-70113052D01*
X159011878Y-70191834D01*
X159134688Y-70215817D01*
X159214283Y-70231361D01*
X159214286Y-70231361D01*
X159218729Y-70232229D01*
X159224270Y-70232500D01*
X159529659Y-70232500D01*
X159686806Y-70217507D01*
X159772221Y-70192449D01*
X159883278Y-70159868D01*
X159889042Y-70158177D01*
X159972304Y-70115294D01*
X160071079Y-70064422D01*
X160071082Y-70064420D01*
X160076410Y-70061676D01*
X160152408Y-70001979D01*
X160237432Y-69935192D01*
X160237436Y-69935188D01*
X160242149Y-69931486D01*
X160306674Y-69857128D01*
X160376350Y-69776835D01*
X160376354Y-69776830D01*
X160380281Y-69772304D01*
X160485819Y-69589874D01*
X160554957Y-69390778D01*
X160558377Y-69367195D01*
X160584338Y-69188140D01*
X160584338Y-69188137D01*
X160585199Y-69182200D01*
X160575455Y-68971667D01*
X160558914Y-68903029D01*
X160527482Y-68772607D01*
X160527481Y-68772605D01*
X160526076Y-68766774D01*
X160517768Y-68748500D01*
X160441323Y-68580371D01*
X160438843Y-68574916D01*
X160316904Y-68403014D01*
X160164660Y-68257272D01*
X160062918Y-68191578D01*
X159992640Y-68146200D01*
X159992637Y-68146199D01*
X159987603Y-68142948D01*
X159792122Y-68064166D01*
X159647073Y-68035840D01*
X159589717Y-68024639D01*
X159589714Y-68024639D01*
X159585271Y-68023771D01*
X159579730Y-68023500D01*
X159274341Y-68023500D01*
X159117194Y-68038493D01*
X158914958Y-68097823D01*
X158866666Y-68122695D01*
X158732921Y-68191578D01*
X158732918Y-68191580D01*
X158727590Y-68194324D01*
X158722875Y-68198028D01*
X158566568Y-68320808D01*
X158566564Y-68320812D01*
X158561851Y-68324514D01*
X158557920Y-68329044D01*
X158557919Y-68329045D01*
X158427650Y-68479165D01*
X158427646Y-68479170D01*
X158423719Y-68483696D01*
X158318181Y-68666126D01*
X158316214Y-68671791D01*
X158314766Y-68674953D01*
X158268221Y-68728564D01*
X158200203Y-68748500D01*
X150113788Y-68748500D01*
X150094077Y-68746949D01*
X150074000Y-68743769D01*
X150071308Y-68744195D01*
X150063422Y-68744521D01*
X150063421Y-68744521D01*
X149928553Y-68750100D01*
X149647072Y-68761742D01*
X149223060Y-68814595D01*
X148804861Y-68902282D01*
X148395331Y-69024204D01*
X148392912Y-69025148D01*
X148392903Y-69025151D01*
X147999702Y-69178579D01*
X147999697Y-69178581D01*
X147997268Y-69179529D01*
X147979654Y-69188140D01*
X147615739Y-69366047D01*
X147615727Y-69366053D01*
X147613392Y-69367195D01*
X147611156Y-69368527D01*
X147611153Y-69368529D01*
X147248565Y-69584584D01*
X147248554Y-69584591D01*
X147246324Y-69585920D01*
X146898572Y-69834210D01*
X146572511Y-70110369D01*
X146270369Y-70412511D01*
X145994210Y-70738572D01*
X145745920Y-71086324D01*
X145744591Y-71088554D01*
X145744584Y-71088565D01*
X145634919Y-71272607D01*
X145527195Y-71453392D01*
X145526053Y-71455727D01*
X145526047Y-71455739D01*
X145368335Y-71778344D01*
X145339529Y-71837268D01*
X145338581Y-71839697D01*
X145338579Y-71839702D01*
X145207500Y-72175629D01*
X145184204Y-72235331D01*
X145183463Y-72237821D01*
X145183462Y-72237823D01*
X145144665Y-72368141D01*
X145062282Y-72644861D01*
X144974595Y-73063060D01*
X144950147Y-73259195D01*
X144944776Y-73302282D01*
X144916502Y-73367406D01*
X144902573Y-73381646D01*
X144803765Y-73467842D01*
X144803761Y-73467846D01*
X144798039Y-73472838D01*
X144793672Y-73479052D01*
X144793669Y-73479055D01*
X144756153Y-73532435D01*
X144700619Y-73576667D01*
X144629987Y-73583853D01*
X144566682Y-73551712D01*
X144549226Y-73531352D01*
X144516855Y-73484251D01*
X144516854Y-73484249D01*
X144512553Y-73477992D01*
X144394275Y-73372611D01*
X144386889Y-73368700D01*
X144329424Y-73338274D01*
X144254274Y-73298484D01*
X144100633Y-73259892D01*
X144093035Y-73259852D01*
X144093033Y-73259852D01*
X144038278Y-73259565D01*
X143970263Y-73239206D01*
X143928661Y-73194515D01*
X143844251Y-73041786D01*
X143838120Y-73029056D01*
X143754558Y-72827320D01*
X143749891Y-72813983D01*
X143689443Y-72604161D01*
X143686299Y-72590387D01*
X143670021Y-72494583D01*
X143649721Y-72375110D01*
X143648140Y-72361075D01*
X143647919Y-72357128D01*
X143637726Y-72175629D01*
X143637495Y-72171507D01*
X143638680Y-72148057D01*
X143638680Y-72145792D01*
X143640231Y-72136000D01*
X143637051Y-72115922D01*
X143635500Y-72096212D01*
X143635500Y-66079787D01*
X143637051Y-66060076D01*
X143638680Y-66049793D01*
X143638680Y-66049792D01*
X143640231Y-66039999D01*
X143639404Y-66034779D01*
X143638438Y-66022495D01*
X143624314Y-65843040D01*
X143622581Y-65821020D01*
X143621427Y-65816213D01*
X143621426Y-65816207D01*
X143575633Y-65625469D01*
X143571303Y-65607433D01*
X143569409Y-65602860D01*
X143489138Y-65409069D01*
X143489137Y-65409067D01*
X143487244Y-65404497D01*
X143372473Y-65217210D01*
X143303101Y-65135985D01*
X143233031Y-65053944D01*
X143229818Y-65050182D01*
X143127658Y-64962929D01*
X143066558Y-64910745D01*
X143066557Y-64910744D01*
X143062790Y-64907527D01*
X142875503Y-64792756D01*
X142870933Y-64790863D01*
X142870931Y-64790862D01*
X142677140Y-64710591D01*
X142677138Y-64710590D01*
X142672567Y-64708697D01*
X142597510Y-64690677D01*
X142463793Y-64658574D01*
X142463787Y-64658573D01*
X142458980Y-64657419D01*
X142352101Y-64649008D01*
X142250155Y-64640984D01*
X142249484Y-64640905D01*
X142244889Y-64640543D01*
X142240001Y-64639769D01*
X142240000Y-64639769D01*
X142235108Y-64640544D01*
X142235105Y-64640544D01*
X142231860Y-64641058D01*
X142220392Y-64642339D01*
X142034047Y-64654552D01*
X142034040Y-64654553D01*
X142029935Y-64654822D01*
X142025902Y-64655624D01*
X142025896Y-64655625D01*
X141827515Y-64695086D01*
X141827509Y-64695088D01*
X141823465Y-64695892D01*
X141819556Y-64697219D01*
X141819552Y-64697220D01*
X141628028Y-64762234D01*
X141624122Y-64763560D01*
X141568759Y-64790862D01*
X141439021Y-64854841D01*
X141439016Y-64854844D01*
X141435317Y-64856668D01*
X141260280Y-64973624D01*
X141257174Y-64976348D01*
X141155738Y-65065304D01*
X141151676Y-65068373D01*
X141151558Y-65068429D01*
X141147282Y-65072024D01*
X141144540Y-65074766D01*
X141138521Y-65080404D01*
X141116781Y-65099469D01*
X141107781Y-65106661D01*
X141106339Y-65107709D01*
X141039475Y-65131577D01*
X141031609Y-65131782D01*
X140894221Y-65131062D01*
X140886841Y-65132834D01*
X140886839Y-65132834D01*
X140747563Y-65166271D01*
X140747560Y-65166272D01*
X140740184Y-65168043D01*
X140599414Y-65240700D01*
X140480039Y-65344838D01*
X140388950Y-65474444D01*
X140377724Y-65503237D01*
X140335224Y-65612245D01*
X140331406Y-65622037D01*
X140330414Y-65629570D01*
X140330414Y-65629571D01*
X140312128Y-65768472D01*
X140310729Y-65779096D01*
X137566001Y-65779096D01*
X137536275Y-65752611D01*
X137528889Y-65748700D01*
X137402988Y-65682039D01*
X137402989Y-65682039D01*
X137396274Y-65678484D01*
X137242633Y-65639892D01*
X137235034Y-65639852D01*
X137235033Y-65639852D01*
X137169181Y-65639507D01*
X137084221Y-65639062D01*
X137076841Y-65640834D01*
X137076839Y-65640834D01*
X136937563Y-65674271D01*
X136937560Y-65674272D01*
X136930184Y-65676043D01*
X136789414Y-65748700D01*
X136670039Y-65852838D01*
X136578950Y-65982444D01*
X136555826Y-66041754D01*
X136529804Y-66108498D01*
X136521406Y-66130037D01*
X136520414Y-66137570D01*
X136520414Y-66137571D01*
X136509310Y-66221919D01*
X136500729Y-66287096D01*
X136503594Y-66313047D01*
X136517160Y-66435920D01*
X136518113Y-66444553D01*
X136520723Y-66451686D01*
X136521879Y-66456613D01*
X136517961Y-66527501D01*
X136509486Y-66546333D01*
X136480558Y-66598675D01*
X136480554Y-66598682D01*
X136478843Y-66601779D01*
X136477491Y-66605042D01*
X136477489Y-66605047D01*
X136446649Y-66679502D01*
X136387982Y-66821136D01*
X136387003Y-66824533D01*
X136387003Y-66824534D01*
X136346816Y-66964026D01*
X136308737Y-67023947D01*
X136244307Y-67053769D01*
X136173983Y-67044024D01*
X136120091Y-66997805D01*
X136102619Y-66955927D01*
X136101031Y-66948627D01*
X136086003Y-66879543D01*
X136070591Y-66838220D01*
X136011392Y-66679502D01*
X136009821Y-66675290D01*
X135971466Y-66605047D01*
X135907505Y-66487912D01*
X135905346Y-66483958D01*
X135774705Y-66309443D01*
X135620557Y-66155295D01*
X135446042Y-66024654D01*
X135254710Y-65920179D01*
X135250498Y-65918608D01*
X135054675Y-65845570D01*
X135054672Y-65845569D01*
X135050457Y-65843997D01*
X135046067Y-65843042D01*
X135046060Y-65843040D01*
X134890103Y-65809115D01*
X134837442Y-65797659D01*
X134832954Y-65797338D01*
X134637815Y-65783381D01*
X134628502Y-65782715D01*
X134620000Y-65781024D01*
X134607153Y-65783579D01*
X134582575Y-65786000D01*
X132117425Y-65786000D01*
X132092847Y-65783579D01*
X132080000Y-65781024D01*
X132067828Y-65783445D01*
X132055421Y-65783445D01*
X132055421Y-65783050D01*
X132044609Y-65783773D01*
X131958656Y-65778365D01*
X131801398Y-65768472D01*
X131785706Y-65766490D01*
X131674202Y-65745219D01*
X131519282Y-65715666D01*
X131503956Y-65711731D01*
X131246005Y-65627918D01*
X131231293Y-65622093D01*
X130985883Y-65506612D01*
X130972017Y-65498989D01*
X130743019Y-65353662D01*
X130730218Y-65344362D01*
X130521234Y-65171476D01*
X130509699Y-65160644D01*
X130324033Y-64962929D01*
X130313947Y-64950737D01*
X130228120Y-64832607D01*
X130154523Y-64731310D01*
X130146052Y-64717962D01*
X130015384Y-64480277D01*
X130008647Y-64465960D01*
X129908801Y-64213778D01*
X129903912Y-64198729D01*
X129897037Y-64171954D01*
X129836461Y-63936026D01*
X129833500Y-63920511D01*
X129799503Y-63651392D01*
X129798511Y-63635615D01*
X129798511Y-63463827D01*
X130599885Y-63463827D01*
X130600182Y-63468979D01*
X130600182Y-63468983D01*
X130609790Y-63635615D01*
X130613852Y-63706054D01*
X130614989Y-63711100D01*
X130614990Y-63711106D01*
X130636770Y-63807749D01*
X130667193Y-63942747D01*
X130669135Y-63947529D01*
X130669136Y-63947533D01*
X130708725Y-64045029D01*
X130758476Y-64167550D01*
X130885249Y-64374425D01*
X131044109Y-64557818D01*
X131143753Y-64640544D01*
X131224453Y-64707542D01*
X131230787Y-64712801D01*
X131440272Y-64835214D01*
X131666938Y-64921770D01*
X131672004Y-64922801D01*
X131672005Y-64922801D01*
X131730326Y-64934666D01*
X131904696Y-64970142D01*
X132041350Y-64975153D01*
X132141998Y-64978844D01*
X132142002Y-64978844D01*
X132147162Y-64979033D01*
X132152282Y-64978377D01*
X132152284Y-64978377D01*
X132228754Y-64968581D01*
X132387825Y-64948203D01*
X132392774Y-64946718D01*
X132392780Y-64946717D01*
X132615278Y-64879964D01*
X132620221Y-64878481D01*
X132624855Y-64876211D01*
X132833474Y-64774010D01*
X132833477Y-64774008D01*
X132838109Y-64771739D01*
X132998924Y-64657031D01*
X133031433Y-64633843D01*
X133031435Y-64633841D01*
X133035637Y-64630844D01*
X133207501Y-64459578D01*
X133349085Y-64262543D01*
X133456587Y-64045029D01*
X133494425Y-63920489D01*
X133525616Y-63817830D01*
X133525617Y-63817824D01*
X133527120Y-63812878D01*
X133558789Y-63572325D01*
X133560557Y-63500000D01*
X133557583Y-63463827D01*
X168699885Y-63463827D01*
X168700182Y-63468979D01*
X168700182Y-63468983D01*
X168709790Y-63635615D01*
X168713852Y-63706054D01*
X168714989Y-63711100D01*
X168714990Y-63711106D01*
X168736770Y-63807749D01*
X168767193Y-63942747D01*
X168769135Y-63947529D01*
X168769136Y-63947533D01*
X168808725Y-64045029D01*
X168858476Y-64167550D01*
X168985249Y-64374425D01*
X169144109Y-64557818D01*
X169243753Y-64640544D01*
X169324453Y-64707542D01*
X169330787Y-64712801D01*
X169540272Y-64835214D01*
X169766938Y-64921770D01*
X169772004Y-64922801D01*
X169772005Y-64922801D01*
X169830326Y-64934666D01*
X170004696Y-64970142D01*
X170141350Y-64975153D01*
X170241998Y-64978844D01*
X170242002Y-64978844D01*
X170247162Y-64979033D01*
X170252282Y-64978377D01*
X170252284Y-64978377D01*
X170328754Y-64968581D01*
X170487825Y-64948203D01*
X170492774Y-64946718D01*
X170492780Y-64946717D01*
X170715278Y-64879964D01*
X170720221Y-64878481D01*
X170724855Y-64876211D01*
X170933474Y-64774010D01*
X170933477Y-64774008D01*
X170938109Y-64771739D01*
X171098924Y-64657031D01*
X171131433Y-64633843D01*
X171131435Y-64633841D01*
X171135637Y-64630844D01*
X171307501Y-64459578D01*
X171449085Y-64262543D01*
X171556587Y-64045029D01*
X171594425Y-63920489D01*
X171625616Y-63817830D01*
X171625617Y-63817824D01*
X171627120Y-63812878D01*
X171658789Y-63572325D01*
X171660557Y-63500000D01*
X171647178Y-63337268D01*
X171641100Y-63263338D01*
X171641099Y-63263332D01*
X171640676Y-63258187D01*
X171595796Y-63079511D01*
X171582827Y-63027878D01*
X171582826Y-63027874D01*
X171581568Y-63022867D01*
X171568911Y-62993758D01*
X171486880Y-62805099D01*
X171486878Y-62805096D01*
X171484820Y-62800362D01*
X171353030Y-62596645D01*
X171331086Y-62572528D01*
X171193215Y-62421011D01*
X171193213Y-62421010D01*
X171189737Y-62417189D01*
X171185686Y-62413990D01*
X171185682Y-62413986D01*
X171003386Y-62270018D01*
X170999328Y-62266813D01*
X170786914Y-62149554D01*
X170648765Y-62100633D01*
X170563077Y-62070289D01*
X170563073Y-62070288D01*
X170558202Y-62068563D01*
X170553109Y-62067656D01*
X170553106Y-62067655D01*
X170324422Y-62026920D01*
X170324416Y-62026919D01*
X170319333Y-62026014D01*
X170239558Y-62025039D01*
X170081892Y-62023113D01*
X170081890Y-62023113D01*
X170076722Y-62023050D01*
X169836884Y-62059750D01*
X169606261Y-62135129D01*
X169391046Y-62247163D01*
X169386913Y-62250266D01*
X169386910Y-62250268D01*
X169201154Y-62389737D01*
X169197019Y-62392842D01*
X169193447Y-62396580D01*
X169062088Y-62534040D01*
X169029391Y-62568255D01*
X169026477Y-62572527D01*
X169026476Y-62572528D01*
X169010025Y-62596645D01*
X168892663Y-62768691D01*
X168790508Y-62988766D01*
X168725668Y-63222571D01*
X168699885Y-63463827D01*
X133557583Y-63463827D01*
X133547178Y-63337268D01*
X133541100Y-63263338D01*
X133541099Y-63263332D01*
X133540676Y-63258187D01*
X133495796Y-63079511D01*
X133482827Y-63027878D01*
X133482826Y-63027874D01*
X133481568Y-63022867D01*
X133468911Y-62993758D01*
X133386880Y-62805099D01*
X133386878Y-62805096D01*
X133384820Y-62800362D01*
X133253030Y-62596645D01*
X133231086Y-62572528D01*
X133093215Y-62421011D01*
X133093213Y-62421010D01*
X133089737Y-62417189D01*
X133085686Y-62413990D01*
X133085682Y-62413986D01*
X132903386Y-62270018D01*
X132899328Y-62266813D01*
X132686914Y-62149554D01*
X132548765Y-62100633D01*
X132463077Y-62070289D01*
X132463073Y-62070288D01*
X132458202Y-62068563D01*
X132453109Y-62067656D01*
X132453106Y-62067655D01*
X132224422Y-62026920D01*
X132224416Y-62026919D01*
X132219333Y-62026014D01*
X132139558Y-62025039D01*
X131981892Y-62023113D01*
X131981890Y-62023113D01*
X131976722Y-62023050D01*
X131736884Y-62059750D01*
X131506261Y-62135129D01*
X131291046Y-62247163D01*
X131286913Y-62250266D01*
X131286910Y-62250268D01*
X131101154Y-62389737D01*
X131097019Y-62392842D01*
X131093447Y-62396580D01*
X130962088Y-62534040D01*
X130929391Y-62568255D01*
X130926477Y-62572527D01*
X130926476Y-62572528D01*
X130910025Y-62596645D01*
X130792663Y-62768691D01*
X130690508Y-62988766D01*
X130625668Y-63222571D01*
X130599885Y-63463827D01*
X129798511Y-63463827D01*
X129798511Y-63364385D01*
X129799503Y-63348608D01*
X129833500Y-63079489D01*
X129836462Y-63063968D01*
X129845729Y-63027878D01*
X129903912Y-62801270D01*
X129908801Y-62786222D01*
X130008647Y-62534040D01*
X130015384Y-62519723D01*
X130086844Y-62389737D01*
X130146052Y-62282038D01*
X130154523Y-62268690D01*
X130313947Y-62049263D01*
X130324033Y-62037071D01*
X130509699Y-61839356D01*
X130521234Y-61828524D01*
X130730218Y-61655638D01*
X130743019Y-61646338D01*
X130972017Y-61501011D01*
X130985883Y-61493388D01*
X131231293Y-61377907D01*
X131246005Y-61372082D01*
X131503956Y-61288269D01*
X131519282Y-61284334D01*
X131688469Y-61252060D01*
X131785706Y-61233510D01*
X131801398Y-61231528D01*
X131958656Y-61221635D01*
X132044609Y-61216227D01*
X132055421Y-61216950D01*
X132055421Y-61216555D01*
X132067828Y-61216555D01*
X132080000Y-61218976D01*
X132092847Y-61216421D01*
X132117425Y-61214000D01*
X170142575Y-61214000D01*
X170167153Y-61216421D01*
G37*
%TD.AperFunction*%
%TD*%
M02*
