%TF.GenerationSoftware,KiCad,Pcbnew,(6.0.2-0)*%
%TF.CreationDate,2022-03-18T08:32:08+00:00*%
%TF.ProjectId,Epaper154,45706170-6572-4313-9534-2e6b69636164,1*%
%TF.SameCoordinates,Original*%
%TF.FileFunction,Paste,Top*%
%TF.FilePolarity,Positive*%
%FSLAX46Y46*%
G04 Gerber Fmt 4.6, Leading zero omitted, Abs format (unit mm)*
G04 Created by KiCad (PCBNEW (6.0.2-0)) date 2022-03-18 08:32:08*
%MOMM*%
%LPD*%
G01*
G04 APERTURE LIST*
G04 Aperture macros list*
%AMRoundRect*
0 Rectangle with rounded corners*
0 $1 Rounding radius*
0 $2 $3 $4 $5 $6 $7 $8 $9 X,Y pos of 4 corners*
0 Add a 4 corners polygon primitive as box body*
4,1,4,$2,$3,$4,$5,$6,$7,$8,$9,$2,$3,0*
0 Add four circle primitives for the rounded corners*
1,1,$1+$1,$2,$3*
1,1,$1+$1,$4,$5*
1,1,$1+$1,$6,$7*
1,1,$1+$1,$8,$9*
0 Add four rect primitives between the rounded corners*
20,1,$1+$1,$2,$3,$4,$5,0*
20,1,$1+$1,$4,$5,$6,$7,0*
20,1,$1+$1,$6,$7,$8,$9,0*
20,1,$1+$1,$8,$9,$2,$3,0*%
%AMFreePoly0*
4,1,6,0.696000,-0.696000,-0.696000,-0.696000,-0.696000,0.118488,-0.118488,0.696000,0.696000,0.696000,0.696000,-0.696000,0.696000,-0.696000,$1*%
G04 Aperture macros list end*
%ADD10RoundRect,0.186000X-0.189000X-0.189000X0.189000X-0.189000X0.189000X0.189000X-0.189000X0.189000X0*%
%ADD11RoundRect,0.048500X-0.287500X-0.071500X0.287500X-0.071500X0.287500X0.071500X-0.287500X0.071500X0*%
%ADD12RoundRect,0.057500X-0.062500X-0.278500X0.062500X-0.278500X0.062500X0.278500X-0.062500X0.278500X0*%
%ADD13RoundRect,0.232500X0.232500X-0.232500X0.232500X0.232500X-0.232500X0.232500X-0.232500X-0.232500X0*%
%ADD14R,0.798000X0.420000*%
%ADD15RoundRect,0.069000X0.478200X-0.075000X0.478200X0.075000X-0.478200X0.075000X-0.478200X-0.075000X0*%
%ADD16RoundRect,0.184000X-0.272000X0.200000X-0.272000X-0.200000X0.272000X-0.200000X0.272000X0.200000X0*%
%ADD17RoundRect,0.184000X0.200000X0.272000X-0.200000X0.272000X-0.200000X-0.272000X0.200000X-0.272000X0*%
%ADD18RoundRect,0.207000X0.249000X-0.225000X0.249000X0.225000X-0.249000X0.225000X-0.249000X-0.225000X0*%
%ADD19R,0.576000X1.056000*%
%ADD20RoundRect,0.250000X-0.350000X-0.250000X0.350000X-0.250000X0.350000X0.250000X-0.350000X0.250000X0*%
%ADD21RoundRect,0.220875X-0.463125X-0.619125X0.463125X-0.619125X0.463125X0.619125X-0.463125X0.619125X0*%
%ADD22RoundRect,0.230000X-0.466000X0.250000X-0.466000X-0.250000X0.466000X-0.250000X0.466000X0.250000X0*%
%ADD23RoundRect,0.184000X-0.200000X-0.272000X0.200000X-0.272000X0.200000X0.272000X-0.200000X0.272000X0*%
%ADD24R,0.384000X0.768000*%
%ADD25R,0.768000X0.384000*%
%ADD26FreePoly0,90.000000*%
%ADD27R,1.392000X1.392000*%
%ADD28R,0.672000X0.672000*%
%ADD29RoundRect,0.184000X0.272000X-0.200000X0.272000X0.200000X-0.272000X0.200000X-0.272000X-0.200000X0*%
%ADD30RoundRect,0.225000X0.615000X-0.375000X0.615000X0.375000X-0.615000X0.375000X-0.615000X-0.375000X0*%
%ADD31R,0.480000X0.816000*%
G04 APERTURE END LIST*
D10*
%TO.C,U2*%
X154170000Y-77335000D03*
X153170000Y-76335000D03*
X154170000Y-76335000D03*
X153170000Y-77335000D03*
D11*
X151770000Y-75835000D03*
X151770000Y-76335000D03*
X151770000Y-76835000D03*
X151770000Y-77335000D03*
X151770000Y-77835000D03*
D12*
X152670000Y-78735000D03*
X153170000Y-78735000D03*
X153670000Y-78735000D03*
X154170000Y-78735000D03*
X154670000Y-78735000D03*
D11*
X155570000Y-77835000D03*
X155570000Y-77335000D03*
X155570000Y-76835000D03*
X155570000Y-76335000D03*
X155570000Y-75835000D03*
D12*
X154670000Y-74935000D03*
X154170000Y-74935000D03*
X153670000Y-74935000D03*
X153170000Y-74935000D03*
X152670000Y-74935000D03*
%TD*%
D13*
%TO.C,J1*%
X163085000Y-84285000D03*
X161935000Y-80835000D03*
X164235000Y-81985000D03*
X164235000Y-80835000D03*
X161935000Y-83135000D03*
X164235000Y-83135000D03*
X163085000Y-81985000D03*
X163085000Y-80835000D03*
X164235000Y-84285000D03*
X163085000Y-83135000D03*
X161935000Y-81985000D03*
X161935000Y-84285000D03*
D14*
X159510000Y-85750000D03*
X159510000Y-84950000D03*
D15*
X159510000Y-83800000D03*
X159510000Y-82800000D03*
X159510000Y-82300000D03*
X159510000Y-81300000D03*
D14*
X159510000Y-79350000D03*
X159510000Y-80150000D03*
D15*
X159510000Y-80800000D03*
X159510000Y-81800000D03*
X159510000Y-83300000D03*
X159510000Y-84300000D03*
%TD*%
D16*
%TO.C,C4*%
X157226000Y-71244000D03*
X157226000Y-72794000D03*
%TD*%
D17*
%TO.C,R7*%
X156019000Y-72527000D03*
X154369000Y-72527000D03*
%TD*%
D18*
%TO.C,U1*%
X147330000Y-66065000D03*
D19*
X150380000Y-63690000D03*
X150380000Y-66390000D03*
D20*
X154830000Y-63940000D03*
X151830000Y-65090000D03*
D21*
X150227500Y-68210000D03*
D18*
X147330000Y-64515000D03*
D20*
X154830000Y-66240000D03*
X151830000Y-66240000D03*
X151830000Y-63940000D03*
X154830000Y-65090000D03*
D19*
X148480000Y-66390000D03*
X149430000Y-66390000D03*
D22*
X148580000Y-67640000D03*
X148580000Y-69540000D03*
X154830000Y-69540000D03*
D19*
X149430000Y-63690000D03*
D21*
X153192500Y-68210000D03*
D22*
X154830000Y-67640000D03*
D19*
X148480000Y-63690000D03*
%TD*%
D16*
%TO.C,R11*%
X139700000Y-63183000D03*
X139700000Y-64833000D03*
%TD*%
D23*
%TO.C,R9*%
X137605000Y-90170000D03*
X139255000Y-90170000D03*
%TD*%
D17*
%TO.C,R1*%
X145796000Y-63246000D03*
X144146000Y-63246000D03*
%TD*%
D24*
%TO.C,U3*%
X137623250Y-88450000D03*
X138423250Y-88450000D03*
X139223250Y-88450000D03*
X140023250Y-88450000D03*
X140823250Y-88450000D03*
X141623250Y-88450000D03*
X142423250Y-88450000D03*
X143223250Y-88450000D03*
X144023250Y-88450000D03*
X144823250Y-88450000D03*
X145623250Y-88450000D03*
D25*
X146523250Y-87350000D03*
X146523250Y-86550000D03*
X146523250Y-85750000D03*
X146523250Y-84950000D03*
X146523250Y-84150000D03*
X146523250Y-83350000D03*
X146523250Y-82550000D03*
X146523250Y-81750000D03*
X146523250Y-80950000D03*
X146523250Y-80150000D03*
X146523250Y-79350000D03*
X146523250Y-78550000D03*
X146523250Y-77750000D03*
D24*
X145623250Y-76650000D03*
X144823250Y-76650000D03*
X144023250Y-76650000D03*
X143223250Y-76650000D03*
X142423250Y-76650000D03*
X141623250Y-76650000D03*
X140823250Y-76650000D03*
X140023250Y-76650000D03*
X139223250Y-76650000D03*
X138423250Y-76650000D03*
X137623250Y-76650000D03*
D25*
X136723250Y-77750000D03*
X136723250Y-78550000D03*
X136723250Y-79350000D03*
X136723250Y-80150000D03*
X136723250Y-80950000D03*
X136723250Y-81750000D03*
X136723250Y-82550000D03*
X136723250Y-83350000D03*
X136723250Y-84150000D03*
X136723250Y-84950000D03*
X136723250Y-85750000D03*
X136723250Y-86550000D03*
X136723250Y-87350000D03*
D26*
X139648250Y-84525000D03*
D27*
X143598250Y-82550000D03*
X143598250Y-84525000D03*
X139648250Y-82550000D03*
X143598250Y-80575000D03*
X141623250Y-82550000D03*
X139648250Y-80575000D03*
X141623250Y-80575000D03*
X141623250Y-84525000D03*
D28*
X136673250Y-76600000D03*
X146573250Y-76600000D03*
X146573250Y-88500000D03*
X136673250Y-88500000D03*
%TD*%
D29*
%TO.C,R6*%
X153670000Y-82105000D03*
X153670000Y-80455000D03*
%TD*%
D30*
%TO.C,D2*%
X156845000Y-92205000D03*
X156845000Y-89405000D03*
%TD*%
D16*
%TO.C,R10*%
X140970000Y-63183000D03*
X140970000Y-64833000D03*
%TD*%
D23*
%TO.C,R8*%
X154369000Y-71257000D03*
X156019000Y-71257000D03*
%TD*%
D29*
%TO.C,R4*%
X158115000Y-80835000D03*
X158115000Y-79185000D03*
%TD*%
D16*
%TO.C,R3*%
X158115000Y-84265000D03*
X158115000Y-85915000D03*
%TD*%
%TO.C,R12*%
X142240000Y-63183000D03*
X142240000Y-64833000D03*
%TD*%
D31*
%TO.C,D3*%
X137295000Y-64883000D03*
X137295000Y-63133000D03*
X138295000Y-63133000D03*
X138295000Y-64883000D03*
%TD*%
D23*
%TO.C,R2*%
X144146000Y-64516000D03*
X145796000Y-64516000D03*
%TD*%
D29*
%TO.C,R5*%
X154940000Y-82105000D03*
X154940000Y-80455000D03*
%TD*%
M02*
