M48
; DRILL file {KiCad (6.0.2-0)} date Friday, 18 March 2022 at 09:48:21
; FORMAT={-:-/ absolute / inch / decimal}
; #@! TF.CreationDate,2022-03-18T09:48:21+00:00
; #@! TF.GenerationSoftware,Kicad,Pcbnew,(6.0.2-0)
; #@! TF.FileFunction,Plated,1,2,PTH
FMAT,2
INCH
; #@! TA.AperFunction,Plated,PTH,ViaDrill
T1C0.0157
; #@! TA.AperFunction,Plated,PTH,ComponentDrill
T2C0.0236
; #@! TA.AperFunction,Plated,PTH,ComponentDrill
T3C0.0335
; #@! TA.AperFunction,Plated,PTH,ComponentDrill
T4C0.0394
; #@! TA.AperFunction,Plated,PTH,ComponentDrill
T5C0.0492
; #@! TA.AperFunction,Plated,PTH,ComponentDrill
T6C0.0984
%
G90
G05
T1
X5.14Y-3.73
X5.16Y-2.81
X5.23Y-3.24
X5.23Y-3.6
X5.3Y-2.8
X5.35Y-2.8
X5.36Y-3.24
X5.3856Y-3.1217
X5.39Y-3.28
X5.39Y-3.62
X5.44Y-3.12
X5.47Y-3.27
X5.49Y-2.86
X5.54Y-2.86
X5.61Y-3.19
X5.65Y-3.19
X5.65Y-3.25
X5.73Y-2.88
X5.94Y-2.95
X5.97Y-3.07
X5.98Y-2.92
X6.02Y-2.89
X6.05Y-3.0
X6.2Y-3.15
X6.375Y-3.3
X6.375Y-3.475
T2
X6.522Y-3.2862
X6.522Y-3.5138
T3
X6.4707Y-2.8766
X6.4707Y-2.975
X6.4707Y-3.0734
X6.4707Y-3.7008
X6.4707Y-3.7992
T4
X5.35Y-4.0
X5.45Y-4.0
X5.55Y-4.0
X5.65Y-4.0
X5.75Y-4.0
X5.85Y-4.0
X5.95Y-4.0
X6.05Y-4.0
X6.15Y-4.0
X6.25Y-4.0
X6.35Y-4.0
X6.45Y-4.0
X6.55Y-4.0
X6.6669Y-3.2299
X6.6669Y-3.5701
T5
X6.5028Y-3.2299
X6.5028Y-3.5701
T6
X4.9Y-2.6646
X4.9Y-4.0
X7.0Y-2.6646
X7.0Y-4.0
T0
M30
