M48
; DRILL file {KiCad (6.0.2-0)} date Friday, 18 March 2022 at 08:32:11
; FORMAT={-:-/ absolute / inch / decimal}
; #@! TF.CreationDate,2022-03-18T08:32:11+00:00
; #@! TF.GenerationSoftware,Kicad,Pcbnew,(6.0.2-0)
; #@! TF.FileFunction,Plated,1,2,PTH
FMAT,2
INCH
; #@! TA.AperFunction,Plated,PTH,ViaDrill
T1C0.0157
; #@! TA.AperFunction,Plated,PTH,ComponentDrill
T2C0.0236
; #@! TA.AperFunction,Plated,PTH,ComponentDrill
T3C0.0335
; #@! TA.AperFunction,Plated,PTH,ComponentDrill
T4C0.0394
; #@! TA.AperFunction,Plated,PTH,ComponentDrill
T5C0.0492
; #@! TA.AperFunction,Plated,PTH,ComponentDrill
T6C0.0984
%
G90
G05
T1
X5.4Y-2.61
X5.4115Y-3.6143
X5.49Y-3.08
X5.52Y-3.38
X5.54Y-3.08
X5.55Y-2.59
X5.59Y-3.08
X5.6Y-2.59
X5.64Y-2.94
X5.64Y-3.08
X5.67Y-2.91
X5.68Y-3.44
X5.72Y-2.91
X5.775Y-2.675
X5.83Y-2.83
X5.83Y-2.91
X5.91Y-2.97
X5.94Y-2.92
X5.975Y-2.95
X5.9854Y-2.7084
X6.125Y-3.1
X6.175Y-3.15
X6.175Y-3.35
T2
X6.322Y-3.1362
X6.322Y-3.3638
T3
X6.2707Y-3.6258
X6.2707Y-3.7242
X6.275Y-2.7758
X6.275Y-2.8742
T4
X5.35Y-4.0
X5.45Y-4.0
X5.55Y-4.0
X5.65Y-4.0
X5.75Y-4.0
X5.85Y-4.0
X5.95Y-4.0
X6.05Y-4.0
X6.15Y-4.0
X6.25Y-4.0
X6.35Y-4.0
X6.45Y-4.0
X6.4669Y-3.0799
X6.4669Y-3.4201
X6.55Y-4.0
T5
X6.3028Y-3.0799
X6.3028Y-3.4201
T6
X5.2Y-2.5
X5.2Y-4.0
X6.7Y-2.5
X6.7Y-4.0
T0
M30
