%TF.GenerationSoftware,KiCad,Pcbnew,(6.0.2-0)*%
%TF.CreationDate,2022-03-17T17:17:02+00:00*%
%TF.ProjectId,Epaper154,45706170-6572-4313-9534-2e6b69636164,1*%
%TF.SameCoordinates,Original*%
%TF.FileFunction,Paste,Top*%
%TF.FilePolarity,Positive*%
%FSLAX46Y46*%
G04 Gerber Fmt 4.6, Leading zero omitted, Abs format (unit mm)*
G04 Created by KiCad (PCBNEW (6.0.2-0)) date 2022-03-17 17:17:02*
%MOMM*%
%LPD*%
G01*
G04 APERTURE LIST*
G04 Aperture macros list*
%AMRoundRect*
0 Rectangle with rounded corners*
0 $1 Rounding radius*
0 $2 $3 $4 $5 $6 $7 $8 $9 X,Y pos of 4 corners*
0 Add a 4 corners polygon primitive as box body*
4,1,4,$2,$3,$4,$5,$6,$7,$8,$9,$2,$3,0*
0 Add four circle primitives for the rounded corners*
1,1,$1+$1,$2,$3*
1,1,$1+$1,$4,$5*
1,1,$1+$1,$6,$7*
1,1,$1+$1,$8,$9*
0 Add four rect primitives between the rounded corners*
20,1,$1+$1,$2,$3,$4,$5,0*
20,1,$1+$1,$4,$5,$6,$7,0*
20,1,$1+$1,$6,$7,$8,$9,0*
20,1,$1+$1,$8,$9,$2,$3,0*%
%AMFreePoly0*
4,1,6,0.696000,-0.696000,-0.696000,-0.696000,-0.696000,0.118488,-0.118488,0.696000,0.696000,0.696000,0.696000,-0.696000,0.696000,-0.696000,$1*%
G04 Aperture macros list end*
%ADD10RoundRect,0.184000X-0.200000X-0.272000X0.200000X-0.272000X0.200000X0.272000X-0.200000X0.272000X0*%
%ADD11RoundRect,0.232500X-0.232500X-0.232500X0.232500X-0.232500X0.232500X0.232500X-0.232500X0.232500X0*%
%ADD12R,0.420000X0.798000*%
%ADD13RoundRect,0.069000X-0.075000X-0.478200X0.075000X-0.478200X0.075000X0.478200X-0.075000X0.478200X0*%
%ADD14RoundRect,0.184000X0.272000X-0.200000X0.272000X0.200000X-0.272000X0.200000X-0.272000X-0.200000X0*%
%ADD15RoundRect,0.250000X0.250000X-0.350000X0.250000X0.350000X-0.250000X0.350000X-0.250000X-0.350000X0*%
%ADD16RoundRect,0.220875X0.619125X-0.463125X0.619125X0.463125X-0.619125X0.463125X-0.619125X-0.463125X0*%
%ADD17R,1.056000X0.576000*%
%ADD18RoundRect,0.207000X0.225000X0.249000X-0.225000X0.249000X-0.225000X-0.249000X0.225000X-0.249000X0*%
%ADD19RoundRect,0.230000X-0.250000X-0.466000X0.250000X-0.466000X0.250000X0.466000X-0.250000X0.466000X0*%
%ADD20RoundRect,0.184000X0.200000X0.272000X-0.200000X0.272000X-0.200000X-0.272000X0.200000X-0.272000X0*%
%ADD21R,0.816000X0.480000*%
%ADD22RoundRect,0.184000X-0.272000X0.200000X-0.272000X-0.200000X0.272000X-0.200000X0.272000X0.200000X0*%
%ADD23R,0.768000X0.384000*%
%ADD24R,0.384000X0.768000*%
%ADD25R,1.392000X1.392000*%
%ADD26FreePoly0,0.000000*%
%ADD27R,0.672000X0.672000*%
%ADD28RoundRect,0.186000X-0.189000X-0.189000X0.189000X-0.189000X0.189000X0.189000X-0.189000X0.189000X0*%
%ADD29RoundRect,0.048500X-0.287500X-0.071500X0.287500X-0.071500X0.287500X0.071500X-0.287500X0.071500X0*%
%ADD30RoundRect,0.057500X-0.062500X-0.278500X0.062500X-0.278500X0.062500X0.278500X-0.062500X0.278500X0*%
%ADD31RoundRect,0.225000X0.615000X-0.375000X0.615000X0.375000X-0.615000X0.375000X-0.615000X-0.375000X0*%
G04 APERTURE END LIST*
D10*
%TO.C,R1*%
X130600000Y-86750000D03*
X132250000Y-86750000D03*
%TD*%
D11*
%TO.C,J1*%
X122815000Y-97865000D03*
X122815000Y-96715000D03*
X121665000Y-97865000D03*
X123965000Y-97865000D03*
X120515000Y-97865000D03*
X120515000Y-96715000D03*
X121665000Y-95565000D03*
X123965000Y-96715000D03*
X120515000Y-95565000D03*
X121665000Y-96715000D03*
X122815000Y-95565000D03*
X123965000Y-95565000D03*
D12*
X119050000Y-93140000D03*
X119850000Y-93140000D03*
D13*
X121000000Y-93140000D03*
X122000000Y-93140000D03*
X122500000Y-93140000D03*
X123500000Y-93140000D03*
D12*
X125450000Y-93140000D03*
X124650000Y-93140000D03*
D13*
X124000000Y-93140000D03*
X123000000Y-93140000D03*
X121500000Y-93140000D03*
X120500000Y-93140000D03*
%TD*%
D10*
%TO.C,R2*%
X130600000Y-88000000D03*
X132250000Y-88000000D03*
%TD*%
D14*
%TO.C,R7*%
X127050000Y-89550000D03*
X127050000Y-87900000D03*
%TD*%
D15*
%TO.C,U1*%
X132250000Y-77300000D03*
D16*
X135370000Y-81902500D03*
D17*
X130850000Y-81750000D03*
X133550000Y-81750000D03*
D18*
X133225000Y-84800000D03*
D15*
X133400000Y-77300000D03*
X133400000Y-80300000D03*
X132250000Y-80300000D03*
D18*
X131675000Y-84800000D03*
D15*
X131100000Y-77300000D03*
X131100000Y-80300000D03*
D17*
X133550000Y-83650000D03*
D19*
X134800000Y-83550000D03*
D17*
X133550000Y-82700000D03*
X130850000Y-82700000D03*
D19*
X136700000Y-83550000D03*
D16*
X135370000Y-78937500D03*
D19*
X136700000Y-77300000D03*
X134800000Y-77300000D03*
D17*
X130850000Y-83650000D03*
%TD*%
D20*
%TO.C,R11*%
X137825000Y-68600000D03*
X136175000Y-68600000D03*
%TD*%
D10*
%TO.C,R4*%
X123775000Y-91800000D03*
X125425000Y-91800000D03*
%TD*%
D14*
%TO.C,R6*%
X121600000Y-90025000D03*
X121600000Y-88375000D03*
%TD*%
D20*
%TO.C,R12*%
X137825000Y-66200000D03*
X136175000Y-66200000D03*
%TD*%
D14*
%TO.C,R5*%
X122800000Y-90025000D03*
X122800000Y-88375000D03*
%TD*%
D21*
%TO.C,D3*%
X136125000Y-64100000D03*
X137875000Y-64100000D03*
X137875000Y-65100000D03*
X136125000Y-65100000D03*
%TD*%
D20*
%TO.C,R3*%
X120625000Y-91800000D03*
X118975000Y-91800000D03*
%TD*%
D22*
%TO.C,R8*%
X125850000Y-87900000D03*
X125850000Y-89550000D03*
%TD*%
%TO.C,R9*%
X115000000Y-71500000D03*
X115000000Y-73150000D03*
%TD*%
D23*
%TO.C,U3*%
X116350000Y-69993250D03*
X116350000Y-70793250D03*
X116350000Y-71593250D03*
X116350000Y-72393250D03*
X116350000Y-73193250D03*
X116350000Y-73993250D03*
X116350000Y-74793250D03*
X116350000Y-75593250D03*
X116350000Y-76393250D03*
X116350000Y-77193250D03*
X116350000Y-77993250D03*
D24*
X117450000Y-78893250D03*
X118250000Y-78893250D03*
X119050000Y-78893250D03*
X119850000Y-78893250D03*
X120650000Y-78893250D03*
X121450000Y-78893250D03*
X122250000Y-78893250D03*
X123050000Y-78893250D03*
X123850000Y-78893250D03*
X124650000Y-78893250D03*
X125450000Y-78893250D03*
X126250000Y-78893250D03*
X127050000Y-78893250D03*
D23*
X128150000Y-77993250D03*
X128150000Y-77193250D03*
X128150000Y-76393250D03*
X128150000Y-75593250D03*
X128150000Y-74793250D03*
X128150000Y-73993250D03*
X128150000Y-73193250D03*
X128150000Y-72393250D03*
X128150000Y-71593250D03*
X128150000Y-70793250D03*
X128150000Y-69993250D03*
D24*
X127050000Y-69093250D03*
X126250000Y-69093250D03*
X125450000Y-69093250D03*
X124650000Y-69093250D03*
X123850000Y-69093250D03*
X123050000Y-69093250D03*
X122250000Y-69093250D03*
X121450000Y-69093250D03*
X120650000Y-69093250D03*
X119850000Y-69093250D03*
X119050000Y-69093250D03*
X118250000Y-69093250D03*
X117450000Y-69093250D03*
D25*
X124225000Y-72018250D03*
X122250000Y-72018250D03*
X122250000Y-73993250D03*
X124225000Y-75968250D03*
X122250000Y-75968250D03*
D26*
X120275000Y-72018250D03*
D25*
X120275000Y-75968250D03*
X120275000Y-73993250D03*
X124225000Y-73993250D03*
D27*
X128200000Y-69043250D03*
X128200000Y-78943250D03*
X116300000Y-78943250D03*
X116300000Y-69043250D03*
%TD*%
D22*
%TO.C,C4*%
X128250000Y-87950000D03*
X128250000Y-89500000D03*
%TD*%
D10*
%TO.C,R10*%
X110575000Y-91000000D03*
X112225000Y-91000000D03*
%TD*%
D20*
%TO.C,R13*%
X137825000Y-67400000D03*
X136175000Y-67400000D03*
%TD*%
D28*
%TO.C,U2*%
X121550000Y-84750000D03*
X122550000Y-84750000D03*
X122550000Y-85750000D03*
X121550000Y-85750000D03*
D29*
X120150000Y-84250000D03*
X120150000Y-84750000D03*
X120150000Y-85250000D03*
X120150000Y-85750000D03*
X120150000Y-86250000D03*
D30*
X121050000Y-87150000D03*
X121550000Y-87150000D03*
X122050000Y-87150000D03*
X122550000Y-87150000D03*
X123050000Y-87150000D03*
D29*
X123950000Y-86250000D03*
X123950000Y-85750000D03*
X123950000Y-85250000D03*
X123950000Y-84750000D03*
X123950000Y-84250000D03*
D30*
X123050000Y-83350000D03*
X122550000Y-83350000D03*
X122050000Y-83350000D03*
X121550000Y-83350000D03*
X121050000Y-83350000D03*
%TD*%
D31*
%TO.C,D2*%
X130000000Y-95650000D03*
X130000000Y-92850000D03*
%TD*%
M02*
