%TF.GenerationSoftware,KiCad,Pcbnew,(6.0.2-0)*%
%TF.CreationDate,2022-03-18T08:32:09+00:00*%
%TF.ProjectId,Epaper154,45706170-6572-4313-9534-2e6b69636164,1*%
%TF.SameCoordinates,Original*%
%TF.FileFunction,Legend,Bot*%
%TF.FilePolarity,Positive*%
%FSLAX46Y46*%
G04 Gerber Fmt 4.6, Leading zero omitted, Abs format (unit mm)*
G04 Created by KiCad (PCBNEW (6.0.2-0)) date 2022-03-18 08:32:09*
%MOMM*%
%LPD*%
G01*
G04 APERTURE LIST*
%ADD10C,0.150000*%
%ADD11C,0.100000*%
G04 APERTURE END LIST*
D10*
X161091619Y-69850095D02*
X161044000Y-69897714D01*
X160996380Y-69992952D01*
X160996380Y-70231047D01*
X161044000Y-70326285D01*
X161091619Y-70373904D01*
X161186857Y-70421523D01*
X161282095Y-70421523D01*
X161424952Y-70373904D01*
X161996380Y-69802476D01*
X161996380Y-70421523D01*
X160996380Y-71040571D02*
X160996380Y-71135809D01*
X161044000Y-71231047D01*
X161091619Y-71278666D01*
X161186857Y-71326285D01*
X161377333Y-71373904D01*
X161615428Y-71373904D01*
X161805904Y-71326285D01*
X161901142Y-71278666D01*
X161948761Y-71231047D01*
X161996380Y-71135809D01*
X161996380Y-71040571D01*
X161948761Y-70945333D01*
X161901142Y-70897714D01*
X161805904Y-70850095D01*
X161615428Y-70802476D01*
X161377333Y-70802476D01*
X161186857Y-70850095D01*
X161091619Y-70897714D01*
X161044000Y-70945333D01*
X160996380Y-71040571D01*
X149351904Y-99623619D02*
X149304285Y-99576000D01*
X149209047Y-99528380D01*
X148970952Y-99528380D01*
X148875714Y-99576000D01*
X148828095Y-99623619D01*
X148780476Y-99718857D01*
X148780476Y-99814095D01*
X148828095Y-99956952D01*
X149399523Y-100528380D01*
X148780476Y-100528380D01*
X148399523Y-99623619D02*
X148351904Y-99576000D01*
X148256666Y-99528380D01*
X148018571Y-99528380D01*
X147923333Y-99576000D01*
X147875714Y-99623619D01*
X147828095Y-99718857D01*
X147828095Y-99814095D01*
X147875714Y-99956952D01*
X148447142Y-100528380D01*
X147828095Y-100528380D01*
X164591904Y-99623619D02*
X164544285Y-99576000D01*
X164449047Y-99528380D01*
X164210952Y-99528380D01*
X164115714Y-99576000D01*
X164068095Y-99623619D01*
X164020476Y-99718857D01*
X164020476Y-99814095D01*
X164068095Y-99956952D01*
X164639523Y-100528380D01*
X164020476Y-100528380D01*
X163687142Y-99528380D02*
X163020476Y-99528380D01*
X163449047Y-100528380D01*
X159511904Y-99623619D02*
X159464285Y-99576000D01*
X159369047Y-99528380D01*
X159130952Y-99528380D01*
X159035714Y-99576000D01*
X158988095Y-99623619D01*
X158940476Y-99718857D01*
X158940476Y-99814095D01*
X158988095Y-99956952D01*
X159559523Y-100528380D01*
X158940476Y-100528380D01*
X158035714Y-99528380D02*
X158511904Y-99528380D01*
X158559523Y-100004571D01*
X158511904Y-99956952D01*
X158416666Y-99909333D01*
X158178571Y-99909333D01*
X158083333Y-99956952D01*
X158035714Y-100004571D01*
X157988095Y-100099809D01*
X157988095Y-100337904D01*
X158035714Y-100433142D01*
X158083333Y-100480761D01*
X158178571Y-100528380D01*
X158416666Y-100528380D01*
X158511904Y-100480761D01*
X158559523Y-100433142D01*
X165297904Y-98496380D02*
X165631238Y-98020190D01*
X165869333Y-98496380D02*
X165869333Y-97496380D01*
X165488380Y-97496380D01*
X165393142Y-97544000D01*
X165345523Y-97591619D01*
X165297904Y-97686857D01*
X165297904Y-97829714D01*
X165345523Y-97924952D01*
X165393142Y-97972571D01*
X165488380Y-98020190D01*
X165869333Y-98020190D01*
X164345523Y-97544000D02*
X164440761Y-97496380D01*
X164583619Y-97496380D01*
X164726476Y-97544000D01*
X164821714Y-97639238D01*
X164869333Y-97734476D01*
X164916952Y-97924952D01*
X164916952Y-98067809D01*
X164869333Y-98258285D01*
X164821714Y-98353523D01*
X164726476Y-98448761D01*
X164583619Y-98496380D01*
X164488380Y-98496380D01*
X164345523Y-98448761D01*
X164297904Y-98401142D01*
X164297904Y-98067809D01*
X164488380Y-98067809D01*
X163536000Y-97972571D02*
X163393142Y-98020190D01*
X163345523Y-98067809D01*
X163297904Y-98163047D01*
X163297904Y-98305904D01*
X163345523Y-98401142D01*
X163393142Y-98448761D01*
X163488380Y-98496380D01*
X163869333Y-98496380D01*
X163869333Y-97496380D01*
X163536000Y-97496380D01*
X163440761Y-97544000D01*
X163393142Y-97591619D01*
X163345523Y-97686857D01*
X163345523Y-97782095D01*
X163393142Y-97877333D01*
X163440761Y-97924952D01*
X163536000Y-97972571D01*
X163869333Y-97972571D01*
X162869333Y-98401142D02*
X162821714Y-98448761D01*
X162869333Y-98496380D01*
X162916952Y-98448761D01*
X162869333Y-98401142D01*
X162869333Y-98496380D01*
X162869333Y-97877333D02*
X162821714Y-97924952D01*
X162869333Y-97972571D01*
X162916952Y-97924952D01*
X162869333Y-97877333D01*
X162869333Y-97972571D01*
X161726476Y-97496380D02*
X161059809Y-97496380D01*
X161488380Y-98496380D01*
X159964571Y-97448761D02*
X160821714Y-98734476D01*
X159107428Y-98496380D02*
X159678857Y-98496380D01*
X159393142Y-98496380D02*
X159393142Y-97496380D01*
X159488380Y-97639238D01*
X159583619Y-97734476D01*
X159678857Y-97782095D01*
X158631238Y-98496380D02*
X158440761Y-98496380D01*
X158345523Y-98448761D01*
X158297904Y-98401142D01*
X158202666Y-98258285D01*
X158155047Y-98067809D01*
X158155047Y-97686857D01*
X158202666Y-97591619D01*
X158250285Y-97544000D01*
X158345523Y-97496380D01*
X158536000Y-97496380D01*
X158631238Y-97544000D01*
X158678857Y-97591619D01*
X158726476Y-97686857D01*
X158726476Y-97924952D01*
X158678857Y-98020190D01*
X158631238Y-98067809D01*
X158536000Y-98115428D01*
X158345523Y-98115428D01*
X158250285Y-98067809D01*
X158202666Y-98020190D01*
X158155047Y-97924952D01*
X157012190Y-97448761D02*
X157869333Y-98734476D01*
X156536000Y-97924952D02*
X156631238Y-97877333D01*
X156678857Y-97829714D01*
X156726476Y-97734476D01*
X156726476Y-97686857D01*
X156678857Y-97591619D01*
X156631238Y-97544000D01*
X156536000Y-97496380D01*
X156345523Y-97496380D01*
X156250285Y-97544000D01*
X156202666Y-97591619D01*
X156155047Y-97686857D01*
X156155047Y-97734476D01*
X156202666Y-97829714D01*
X156250285Y-97877333D01*
X156345523Y-97924952D01*
X156536000Y-97924952D01*
X156631238Y-97972571D01*
X156678857Y-98020190D01*
X156726476Y-98115428D01*
X156726476Y-98305904D01*
X156678857Y-98401142D01*
X156631238Y-98448761D01*
X156536000Y-98496380D01*
X156345523Y-98496380D01*
X156250285Y-98448761D01*
X156202666Y-98401142D01*
X156155047Y-98305904D01*
X156155047Y-98115428D01*
X156202666Y-98020190D01*
X156250285Y-97972571D01*
X156345523Y-97924952D01*
X157019523Y-99528380D02*
X156400476Y-99528380D01*
X156733809Y-99909333D01*
X156590952Y-99909333D01*
X156495714Y-99956952D01*
X156448095Y-100004571D01*
X156400476Y-100099809D01*
X156400476Y-100337904D01*
X156448095Y-100433142D01*
X156495714Y-100480761D01*
X156590952Y-100528380D01*
X156876666Y-100528380D01*
X156971904Y-100480761D01*
X157019523Y-100433142D01*
X156067142Y-99528380D02*
X155448095Y-99528380D01*
X155781428Y-99909333D01*
X155638571Y-99909333D01*
X155543333Y-99956952D01*
X155495714Y-100004571D01*
X155448095Y-100099809D01*
X155448095Y-100337904D01*
X155495714Y-100433142D01*
X155543333Y-100480761D01*
X155638571Y-100528380D01*
X155924285Y-100528380D01*
X156019523Y-100480761D01*
X156067142Y-100433142D01*
X154431904Y-99623619D02*
X154384285Y-99576000D01*
X154289047Y-99528380D01*
X154050952Y-99528380D01*
X153955714Y-99576000D01*
X153908095Y-99623619D01*
X153860476Y-99718857D01*
X153860476Y-99814095D01*
X153908095Y-99956952D01*
X154479523Y-100528380D01*
X153860476Y-100528380D01*
X152908095Y-100528380D02*
X153479523Y-100528380D01*
X153193809Y-100528380D02*
X153193809Y-99528380D01*
X153289047Y-99671238D01*
X153384285Y-99766476D01*
X153479523Y-99814095D01*
X146859523Y-99528380D02*
X146240476Y-99528380D01*
X146573809Y-99909333D01*
X146430952Y-99909333D01*
X146335714Y-99956952D01*
X146288095Y-100004571D01*
X146240476Y-100099809D01*
X146240476Y-100337904D01*
X146288095Y-100433142D01*
X146335714Y-100480761D01*
X146430952Y-100528380D01*
X146716666Y-100528380D01*
X146811904Y-100480761D01*
X146859523Y-100433142D01*
X145859523Y-99623619D02*
X145811904Y-99576000D01*
X145716666Y-99528380D01*
X145478571Y-99528380D01*
X145383333Y-99576000D01*
X145335714Y-99623619D01*
X145288095Y-99718857D01*
X145288095Y-99814095D01*
X145335714Y-99956952D01*
X145907142Y-100528380D01*
X145288095Y-100528380D01*
X166560476Y-100528380D02*
X167131904Y-100528380D01*
X166846190Y-100528380D02*
X166846190Y-99528380D01*
X166941428Y-99671238D01*
X167036666Y-99766476D01*
X167131904Y-99814095D01*
X166227142Y-99528380D02*
X165608095Y-99528380D01*
X165941428Y-99909333D01*
X165798571Y-99909333D01*
X165703333Y-99956952D01*
X165655714Y-100004571D01*
X165608095Y-100099809D01*
X165608095Y-100337904D01*
X165655714Y-100433142D01*
X165703333Y-100480761D01*
X165798571Y-100528380D01*
X166084285Y-100528380D01*
X166179523Y-100480761D01*
X166227142Y-100433142D01*
X150891904Y-99528380D02*
X151368095Y-99528380D01*
X151415714Y-100004571D01*
X151368095Y-99956952D01*
X151272857Y-99909333D01*
X151034761Y-99909333D01*
X150939523Y-99956952D01*
X150891904Y-100004571D01*
X150844285Y-100099809D01*
X150844285Y-100337904D01*
X150891904Y-100433142D01*
X150939523Y-100480761D01*
X151034761Y-100528380D01*
X151272857Y-100528380D01*
X151368095Y-100480761D01*
X151415714Y-100433142D01*
X162051904Y-99623619D02*
X162004285Y-99576000D01*
X161909047Y-99528380D01*
X161670952Y-99528380D01*
X161575714Y-99576000D01*
X161528095Y-99623619D01*
X161480476Y-99718857D01*
X161480476Y-99814095D01*
X161528095Y-99956952D01*
X162099523Y-100528380D01*
X161480476Y-100528380D01*
X160623333Y-99528380D02*
X160813809Y-99528380D01*
X160909047Y-99576000D01*
X160956666Y-99623619D01*
X161051904Y-99766476D01*
X161099523Y-99956952D01*
X161099523Y-100337904D01*
X161051904Y-100433142D01*
X161004285Y-100480761D01*
X160909047Y-100528380D01*
X160718571Y-100528380D01*
X160623333Y-100480761D01*
X160575714Y-100433142D01*
X160528095Y-100337904D01*
X160528095Y-100099809D01*
X160575714Y-100004571D01*
X160623333Y-99956952D01*
X160718571Y-99909333D01*
X160909047Y-99909333D01*
X161004285Y-99956952D01*
X161051904Y-100004571D01*
X161099523Y-100099809D01*
X162207380Y-92710095D02*
X161207380Y-92710095D01*
X161207380Y-92948190D01*
X161255000Y-93091047D01*
X161350238Y-93186285D01*
X161445476Y-93233904D01*
X161635952Y-93281523D01*
X161778809Y-93281523D01*
X161969285Y-93233904D01*
X162064523Y-93186285D01*
X162159761Y-93091047D01*
X162207380Y-92948190D01*
X162207380Y-92710095D01*
X162112142Y-94281523D02*
X162159761Y-94233904D01*
X162207380Y-94091047D01*
X162207380Y-93995809D01*
X162159761Y-93852952D01*
X162064523Y-93757714D01*
X161969285Y-93710095D01*
X161778809Y-93662476D01*
X161635952Y-93662476D01*
X161445476Y-93710095D01*
X161350238Y-93757714D01*
X161255000Y-93852952D01*
X161207380Y-93995809D01*
X161207380Y-94091047D01*
X161255000Y-94233904D01*
X161302619Y-94281523D01*
X163150714Y-91233904D02*
X163817380Y-91233904D01*
X162769761Y-90995809D02*
X163484047Y-90757714D01*
X163484047Y-91376761D01*
X162817380Y-91614857D02*
X163817380Y-91948190D01*
X162817380Y-92281523D01*
X163436428Y-92614857D02*
X163436428Y-93376761D01*
X162817380Y-94281523D02*
X162817380Y-94091047D01*
X162865000Y-93995809D01*
X162912619Y-93948190D01*
X163055476Y-93852952D01*
X163245952Y-93805333D01*
X163626904Y-93805333D01*
X163722142Y-93852952D01*
X163769761Y-93900571D01*
X163817380Y-93995809D01*
X163817380Y-94186285D01*
X163769761Y-94281523D01*
X163722142Y-94329142D01*
X163626904Y-94376761D01*
X163388809Y-94376761D01*
X163293571Y-94329142D01*
X163245952Y-94281523D01*
X163198333Y-94186285D01*
X163198333Y-93995809D01*
X163245952Y-93900571D01*
X163293571Y-93852952D01*
X163388809Y-93805333D01*
X162817380Y-94995809D02*
X162817380Y-95091047D01*
X162865000Y-95186285D01*
X162912619Y-95233904D01*
X163007857Y-95281523D01*
X163198333Y-95329142D01*
X163436428Y-95329142D01*
X163626904Y-95281523D01*
X163722142Y-95233904D01*
X163769761Y-95186285D01*
X163817380Y-95091047D01*
X163817380Y-94995809D01*
X163769761Y-94900571D01*
X163722142Y-94852952D01*
X163626904Y-94805333D01*
X163436428Y-94757714D01*
X163198333Y-94757714D01*
X163007857Y-94805333D01*
X162912619Y-94852952D01*
X162865000Y-94900571D01*
X162817380Y-94995809D01*
X162817380Y-95614857D02*
X163817380Y-95948190D01*
X162817380Y-96281523D01*
X143700476Y-100528380D02*
X144271904Y-100528380D01*
X143986190Y-100528380D02*
X143986190Y-99528380D01*
X144081428Y-99671238D01*
X144176666Y-99766476D01*
X144271904Y-99814095D01*
X142843333Y-99861714D02*
X142843333Y-100528380D01*
X143081428Y-99480761D02*
X143319523Y-100195047D01*
X142700476Y-100195047D01*
D11*
%TO.C,Logo2*%
X164525714Y-61774857D02*
X164959047Y-61898666D01*
X164649523Y-62022476D01*
X164959047Y-62146285D01*
X164525714Y-62270095D01*
X164525714Y-62455809D02*
X164959047Y-62579619D01*
X164649523Y-62703428D01*
X164959047Y-62827238D01*
X164525714Y-62951047D01*
X164525714Y-63136761D02*
X164959047Y-63260571D01*
X164649523Y-63384380D01*
X164959047Y-63508190D01*
X164525714Y-63632000D01*
X164897142Y-63879619D02*
X164928095Y-63910571D01*
X164959047Y-63879619D01*
X164928095Y-63848666D01*
X164897142Y-63879619D01*
X164959047Y-63879619D01*
X164959047Y-64189142D02*
X164525714Y-64189142D01*
X164587619Y-64189142D02*
X164556666Y-64220095D01*
X164525714Y-64282000D01*
X164525714Y-64374857D01*
X164556666Y-64436761D01*
X164618571Y-64467714D01*
X164959047Y-64467714D01*
X164618571Y-64467714D02*
X164556666Y-64498666D01*
X164525714Y-64560571D01*
X164525714Y-64653428D01*
X164556666Y-64715333D01*
X164618571Y-64746285D01*
X164959047Y-64746285D01*
X164928095Y-65303428D02*
X164959047Y-65241523D01*
X164959047Y-65117714D01*
X164928095Y-65055809D01*
X164866190Y-65024857D01*
X164618571Y-65024857D01*
X164556666Y-65055809D01*
X164525714Y-65117714D01*
X164525714Y-65241523D01*
X164556666Y-65303428D01*
X164618571Y-65334380D01*
X164680476Y-65334380D01*
X164742380Y-65024857D01*
X164897142Y-65612952D02*
X164928095Y-65643904D01*
X164959047Y-65612952D01*
X164928095Y-65582000D01*
X164897142Y-65612952D01*
X164959047Y-65612952D01*
X164525714Y-66201047D02*
X164959047Y-66201047D01*
X164525714Y-65922476D02*
X164866190Y-65922476D01*
X164928095Y-65953428D01*
X164959047Y-66015333D01*
X164959047Y-66108190D01*
X164928095Y-66170095D01*
X164897142Y-66201047D01*
X164959047Y-66510571D02*
X164309047Y-66510571D01*
X164711428Y-66572476D02*
X164959047Y-66758190D01*
X164525714Y-66758190D02*
X164773333Y-66510571D01*
%TD*%
M02*
