%TF.GenerationSoftware,KiCad,Pcbnew,(6.0.2-0)*%
%TF.CreationDate,2022-04-20T12:25:15+01:00*%
%TF.ProjectId,Epaper154,45706170-6572-4313-9534-2e6b69636164,1*%
%TF.SameCoordinates,Original*%
%TF.FileFunction,Legend,Bot*%
%TF.FilePolarity,Positive*%
%FSLAX46Y46*%
G04 Gerber Fmt 4.6, Leading zero omitted, Abs format (unit mm)*
G04 Created by KiCad (PCBNEW (6.0.2-0)) date 2022-04-20 12:25:15*
%MOMM*%
%LPD*%
G01*
G04 APERTURE LIST*
%ADD10C,0.150000*%
%ADD11C,0.080000*%
%ADD12C,0.100000*%
G04 APERTURE END LIST*
D10*
X161091619Y-68326095D02*
X161044000Y-68373714D01*
X160996380Y-68468952D01*
X160996380Y-68707047D01*
X161044000Y-68802285D01*
X161091619Y-68849904D01*
X161186857Y-68897523D01*
X161282095Y-68897523D01*
X161424952Y-68849904D01*
X161996380Y-68278476D01*
X161996380Y-68897523D01*
X160996380Y-69516571D02*
X160996380Y-69611809D01*
X161044000Y-69707047D01*
X161091619Y-69754666D01*
X161186857Y-69802285D01*
X161377333Y-69849904D01*
X161615428Y-69849904D01*
X161805904Y-69802285D01*
X161901142Y-69754666D01*
X161948761Y-69707047D01*
X161996380Y-69611809D01*
X161996380Y-69516571D01*
X161948761Y-69421333D01*
X161901142Y-69373714D01*
X161805904Y-69326095D01*
X161615428Y-69278476D01*
X161377333Y-69278476D01*
X161186857Y-69326095D01*
X161091619Y-69373714D01*
X161044000Y-69421333D01*
X160996380Y-69516571D01*
X149351904Y-102925619D02*
X149304285Y-102878000D01*
X149209047Y-102830380D01*
X148970952Y-102830380D01*
X148875714Y-102878000D01*
X148828095Y-102925619D01*
X148780476Y-103020857D01*
X148780476Y-103116095D01*
X148828095Y-103258952D01*
X149399523Y-103830380D01*
X148780476Y-103830380D01*
X148399523Y-102925619D02*
X148351904Y-102878000D01*
X148256666Y-102830380D01*
X148018571Y-102830380D01*
X147923333Y-102878000D01*
X147875714Y-102925619D01*
X147828095Y-103020857D01*
X147828095Y-103116095D01*
X147875714Y-103258952D01*
X148447142Y-103830380D01*
X147828095Y-103830380D01*
X164591904Y-102925619D02*
X164544285Y-102878000D01*
X164449047Y-102830380D01*
X164210952Y-102830380D01*
X164115714Y-102878000D01*
X164068095Y-102925619D01*
X164020476Y-103020857D01*
X164020476Y-103116095D01*
X164068095Y-103258952D01*
X164639523Y-103830380D01*
X164020476Y-103830380D01*
X163687142Y-102830380D02*
X163020476Y-102830380D01*
X163449047Y-103830380D01*
X161329714Y-71818476D02*
X161996380Y-71818476D01*
X160948761Y-71580380D02*
X161663047Y-71342285D01*
X161663047Y-71961333D01*
X159511904Y-102925619D02*
X159464285Y-102878000D01*
X159369047Y-102830380D01*
X159130952Y-102830380D01*
X159035714Y-102878000D01*
X158988095Y-102925619D01*
X158940476Y-103020857D01*
X158940476Y-103116095D01*
X158988095Y-103258952D01*
X159559523Y-103830380D01*
X158940476Y-103830380D01*
X158035714Y-102830380D02*
X158511904Y-102830380D01*
X158559523Y-103306571D01*
X158511904Y-103258952D01*
X158416666Y-103211333D01*
X158178571Y-103211333D01*
X158083333Y-103258952D01*
X158035714Y-103306571D01*
X157988095Y-103401809D01*
X157988095Y-103639904D01*
X158035714Y-103735142D01*
X158083333Y-103782761D01*
X158178571Y-103830380D01*
X158416666Y-103830380D01*
X158511904Y-103782761D01*
X158559523Y-103735142D01*
X144977904Y-63952380D02*
X145311238Y-63476190D01*
X145549333Y-63952380D02*
X145549333Y-62952380D01*
X145168380Y-62952380D01*
X145073142Y-63000000D01*
X145025523Y-63047619D01*
X144977904Y-63142857D01*
X144977904Y-63285714D01*
X145025523Y-63380952D01*
X145073142Y-63428571D01*
X145168380Y-63476190D01*
X145549333Y-63476190D01*
X144025523Y-63000000D02*
X144120761Y-62952380D01*
X144263619Y-62952380D01*
X144406476Y-63000000D01*
X144501714Y-63095238D01*
X144549333Y-63190476D01*
X144596952Y-63380952D01*
X144596952Y-63523809D01*
X144549333Y-63714285D01*
X144501714Y-63809523D01*
X144406476Y-63904761D01*
X144263619Y-63952380D01*
X144168380Y-63952380D01*
X144025523Y-63904761D01*
X143977904Y-63857142D01*
X143977904Y-63523809D01*
X144168380Y-63523809D01*
X143216000Y-63428571D02*
X143073142Y-63476190D01*
X143025523Y-63523809D01*
X142977904Y-63619047D01*
X142977904Y-63761904D01*
X143025523Y-63857142D01*
X143073142Y-63904761D01*
X143168380Y-63952380D01*
X143549333Y-63952380D01*
X143549333Y-62952380D01*
X143216000Y-62952380D01*
X143120761Y-63000000D01*
X143073142Y-63047619D01*
X143025523Y-63142857D01*
X143025523Y-63238095D01*
X143073142Y-63333333D01*
X143120761Y-63380952D01*
X143216000Y-63428571D01*
X143549333Y-63428571D01*
X142549333Y-63857142D02*
X142501714Y-63904761D01*
X142549333Y-63952380D01*
X142596952Y-63904761D01*
X142549333Y-63857142D01*
X142549333Y-63952380D01*
X142549333Y-63333333D02*
X142501714Y-63380952D01*
X142549333Y-63428571D01*
X142596952Y-63380952D01*
X142549333Y-63333333D01*
X142549333Y-63428571D01*
X141406476Y-62952380D02*
X140739809Y-62952380D01*
X141168380Y-63952380D01*
X139644571Y-62904761D02*
X140501714Y-64190476D01*
X138787428Y-63952380D02*
X139358857Y-63952380D01*
X139073142Y-63952380D02*
X139073142Y-62952380D01*
X139168380Y-63095238D01*
X139263619Y-63190476D01*
X139358857Y-63238095D01*
X138311238Y-63952380D02*
X138120761Y-63952380D01*
X138025523Y-63904761D01*
X137977904Y-63857142D01*
X137882666Y-63714285D01*
X137835047Y-63523809D01*
X137835047Y-63142857D01*
X137882666Y-63047619D01*
X137930285Y-63000000D01*
X138025523Y-62952380D01*
X138216000Y-62952380D01*
X138311238Y-63000000D01*
X138358857Y-63047619D01*
X138406476Y-63142857D01*
X138406476Y-63380952D01*
X138358857Y-63476190D01*
X138311238Y-63523809D01*
X138216000Y-63571428D01*
X138025523Y-63571428D01*
X137930285Y-63523809D01*
X137882666Y-63476190D01*
X137835047Y-63380952D01*
X136692190Y-62904761D02*
X137549333Y-64190476D01*
X136216000Y-63380952D02*
X136311238Y-63333333D01*
X136358857Y-63285714D01*
X136406476Y-63190476D01*
X136406476Y-63142857D01*
X136358857Y-63047619D01*
X136311238Y-63000000D01*
X136216000Y-62952380D01*
X136025523Y-62952380D01*
X135930285Y-63000000D01*
X135882666Y-63047619D01*
X135835047Y-63142857D01*
X135835047Y-63190476D01*
X135882666Y-63285714D01*
X135930285Y-63333333D01*
X136025523Y-63380952D01*
X136216000Y-63380952D01*
X136311238Y-63428571D01*
X136358857Y-63476190D01*
X136406476Y-63571428D01*
X136406476Y-63761904D01*
X136358857Y-63857142D01*
X136311238Y-63904761D01*
X136216000Y-63952380D01*
X136025523Y-63952380D01*
X135930285Y-63904761D01*
X135882666Y-63857142D01*
X135835047Y-63761904D01*
X135835047Y-63571428D01*
X135882666Y-63476190D01*
X135930285Y-63428571D01*
X136025523Y-63380952D01*
X157019523Y-102830380D02*
X156400476Y-102830380D01*
X156733809Y-103211333D01*
X156590952Y-103211333D01*
X156495714Y-103258952D01*
X156448095Y-103306571D01*
X156400476Y-103401809D01*
X156400476Y-103639904D01*
X156448095Y-103735142D01*
X156495714Y-103782761D01*
X156590952Y-103830380D01*
X156876666Y-103830380D01*
X156971904Y-103782761D01*
X157019523Y-103735142D01*
X156067142Y-102830380D02*
X155448095Y-102830380D01*
X155781428Y-103211333D01*
X155638571Y-103211333D01*
X155543333Y-103258952D01*
X155495714Y-103306571D01*
X155448095Y-103401809D01*
X155448095Y-103639904D01*
X155495714Y-103735142D01*
X155543333Y-103782761D01*
X155638571Y-103830380D01*
X155924285Y-103830380D01*
X156019523Y-103782761D01*
X156067142Y-103735142D01*
X154431904Y-102925619D02*
X154384285Y-102878000D01*
X154289047Y-102830380D01*
X154050952Y-102830380D01*
X153955714Y-102878000D01*
X153908095Y-102925619D01*
X153860476Y-103020857D01*
X153860476Y-103116095D01*
X153908095Y-103258952D01*
X154479523Y-103830380D01*
X153860476Y-103830380D01*
X152908095Y-103830380D02*
X153479523Y-103830380D01*
X153193809Y-103830380D02*
X153193809Y-102830380D01*
X153289047Y-102973238D01*
X153384285Y-103068476D01*
X153479523Y-103116095D01*
X146859523Y-102830380D02*
X146240476Y-102830380D01*
X146573809Y-103211333D01*
X146430952Y-103211333D01*
X146335714Y-103258952D01*
X146288095Y-103306571D01*
X146240476Y-103401809D01*
X146240476Y-103639904D01*
X146288095Y-103735142D01*
X146335714Y-103782761D01*
X146430952Y-103830380D01*
X146716666Y-103830380D01*
X146811904Y-103782761D01*
X146859523Y-103735142D01*
X145859523Y-102925619D02*
X145811904Y-102878000D01*
X145716666Y-102830380D01*
X145478571Y-102830380D01*
X145383333Y-102878000D01*
X145335714Y-102925619D01*
X145288095Y-103020857D01*
X145288095Y-103116095D01*
X145335714Y-103258952D01*
X145907142Y-103830380D01*
X145288095Y-103830380D01*
X166560476Y-103830380D02*
X167131904Y-103830380D01*
X166846190Y-103830380D02*
X166846190Y-102830380D01*
X166941428Y-102973238D01*
X167036666Y-103068476D01*
X167131904Y-103116095D01*
X166227142Y-102830380D02*
X165608095Y-102830380D01*
X165941428Y-103211333D01*
X165798571Y-103211333D01*
X165703333Y-103258952D01*
X165655714Y-103306571D01*
X165608095Y-103401809D01*
X165608095Y-103639904D01*
X165655714Y-103735142D01*
X165703333Y-103782761D01*
X165798571Y-103830380D01*
X166084285Y-103830380D01*
X166179523Y-103782761D01*
X166227142Y-103735142D01*
X150891904Y-102830380D02*
X151368095Y-102830380D01*
X151415714Y-103306571D01*
X151368095Y-103258952D01*
X151272857Y-103211333D01*
X151034761Y-103211333D01*
X150939523Y-103258952D01*
X150891904Y-103306571D01*
X150844285Y-103401809D01*
X150844285Y-103639904D01*
X150891904Y-103735142D01*
X150939523Y-103782761D01*
X151034761Y-103830380D01*
X151272857Y-103830380D01*
X151368095Y-103782761D01*
X151415714Y-103735142D01*
X162051904Y-102925619D02*
X162004285Y-102878000D01*
X161909047Y-102830380D01*
X161670952Y-102830380D01*
X161575714Y-102878000D01*
X161528095Y-102925619D01*
X161480476Y-103020857D01*
X161480476Y-103116095D01*
X161528095Y-103258952D01*
X162099523Y-103830380D01*
X161480476Y-103830380D01*
X160623333Y-102830380D02*
X160813809Y-102830380D01*
X160909047Y-102878000D01*
X160956666Y-102925619D01*
X161051904Y-103068476D01*
X161099523Y-103258952D01*
X161099523Y-103639904D01*
X161051904Y-103735142D01*
X161004285Y-103782761D01*
X160909047Y-103830380D01*
X160718571Y-103830380D01*
X160623333Y-103782761D01*
X160575714Y-103735142D01*
X160528095Y-103639904D01*
X160528095Y-103401809D01*
X160575714Y-103306571D01*
X160623333Y-103258952D01*
X160718571Y-103211333D01*
X160909047Y-103211333D01*
X161004285Y-103258952D01*
X161051904Y-103306571D01*
X161099523Y-103401809D01*
X162207380Y-92710095D02*
X161207380Y-92710095D01*
X161207380Y-92948190D01*
X161255000Y-93091047D01*
X161350238Y-93186285D01*
X161445476Y-93233904D01*
X161635952Y-93281523D01*
X161778809Y-93281523D01*
X161969285Y-93233904D01*
X162064523Y-93186285D01*
X162159761Y-93091047D01*
X162207380Y-92948190D01*
X162207380Y-92710095D01*
X162112142Y-94281523D02*
X162159761Y-94233904D01*
X162207380Y-94091047D01*
X162207380Y-93995809D01*
X162159761Y-93852952D01*
X162064523Y-93757714D01*
X161969285Y-93710095D01*
X161778809Y-93662476D01*
X161635952Y-93662476D01*
X161445476Y-93710095D01*
X161350238Y-93757714D01*
X161255000Y-93852952D01*
X161207380Y-93995809D01*
X161207380Y-94091047D01*
X161255000Y-94233904D01*
X161302619Y-94281523D01*
X163150714Y-91233904D02*
X163817380Y-91233904D01*
X162769761Y-90995809D02*
X163484047Y-90757714D01*
X163484047Y-91376761D01*
X162817380Y-91614857D02*
X163817380Y-91948190D01*
X162817380Y-92281523D01*
X163436428Y-92614857D02*
X163436428Y-93376761D01*
X162817380Y-94281523D02*
X162817380Y-94091047D01*
X162865000Y-93995809D01*
X162912619Y-93948190D01*
X163055476Y-93852952D01*
X163245952Y-93805333D01*
X163626904Y-93805333D01*
X163722142Y-93852952D01*
X163769761Y-93900571D01*
X163817380Y-93995809D01*
X163817380Y-94186285D01*
X163769761Y-94281523D01*
X163722142Y-94329142D01*
X163626904Y-94376761D01*
X163388809Y-94376761D01*
X163293571Y-94329142D01*
X163245952Y-94281523D01*
X163198333Y-94186285D01*
X163198333Y-93995809D01*
X163245952Y-93900571D01*
X163293571Y-93852952D01*
X163388809Y-93805333D01*
X162817380Y-94995809D02*
X162817380Y-95091047D01*
X162865000Y-95186285D01*
X162912619Y-95233904D01*
X163007857Y-95281523D01*
X163198333Y-95329142D01*
X163436428Y-95329142D01*
X163626904Y-95281523D01*
X163722142Y-95233904D01*
X163769761Y-95186285D01*
X163817380Y-95091047D01*
X163817380Y-94995809D01*
X163769761Y-94900571D01*
X163722142Y-94852952D01*
X163626904Y-94805333D01*
X163436428Y-94757714D01*
X163198333Y-94757714D01*
X163007857Y-94805333D01*
X162912619Y-94852952D01*
X162865000Y-94900571D01*
X162817380Y-94995809D01*
X162817380Y-95614857D02*
X163817380Y-95948190D01*
X162817380Y-96281523D01*
X143700476Y-103830380D02*
X144271904Y-103830380D01*
X143986190Y-103830380D02*
X143986190Y-102830380D01*
X144081428Y-102973238D01*
X144176666Y-103068476D01*
X144271904Y-103116095D01*
X142843333Y-103163714D02*
X142843333Y-103830380D01*
X143081428Y-102782761D02*
X143319523Y-103497047D01*
X142700476Y-103497047D01*
X161424952Y-73691809D02*
X161424952Y-74644190D01*
X161710666Y-73882285D02*
X161710666Y-74453714D01*
X160996380Y-74168000D02*
X161424952Y-74168000D01*
X161996380Y-74263238D02*
X161996380Y-74072761D01*
D11*
%TO.C,J2*%
X155424761Y-95180000D02*
X155043809Y-95180000D01*
X155139047Y-95084761D02*
X155043809Y-95180000D01*
X155139047Y-95275238D01*
X155329523Y-85258095D02*
X155329523Y-84781904D01*
X155186666Y-85162857D02*
X155186666Y-84877142D01*
X155543809Y-85020000D02*
X155329523Y-85020000D01*
X155043809Y-84972380D02*
X155043809Y-85067619D01*
X155543809Y-90719047D02*
X155543809Y-90409523D01*
X155353333Y-90576190D01*
X155353333Y-90504761D01*
X155329523Y-90457142D01*
X155305714Y-90433333D01*
X155258095Y-90409523D01*
X155139047Y-90409523D01*
X155091428Y-90433333D01*
X155067619Y-90457142D01*
X155043809Y-90504761D01*
X155043809Y-90647619D01*
X155067619Y-90695238D01*
X155091428Y-90719047D01*
X155543809Y-90266666D02*
X155043809Y-90100000D01*
X155543809Y-89933333D01*
X155543809Y-89814285D02*
X155543809Y-89504761D01*
X155353333Y-89671428D01*
X155353333Y-89600000D01*
X155329523Y-89552380D01*
X155305714Y-89528571D01*
X155258095Y-89504761D01*
X155139047Y-89504761D01*
X155091428Y-89528571D01*
X155067619Y-89552380D01*
X155043809Y-89600000D01*
X155043809Y-89742857D01*
X155067619Y-89790476D01*
X155091428Y-89814285D01*
X155043809Y-92640000D02*
X155424761Y-92640000D01*
X155329523Y-92735238D02*
X155424761Y-92640000D01*
X155329523Y-92544761D01*
X155543809Y-87583809D02*
X155543809Y-87536190D01*
X155520000Y-87488571D01*
X155496190Y-87464761D01*
X155448571Y-87440952D01*
X155353333Y-87417142D01*
X155234285Y-87417142D01*
X155139047Y-87440952D01*
X155091428Y-87464761D01*
X155067619Y-87488571D01*
X155043809Y-87536190D01*
X155043809Y-87583809D01*
X155067619Y-87631428D01*
X155091428Y-87655238D01*
X155139047Y-87679047D01*
X155234285Y-87702857D01*
X155353333Y-87702857D01*
X155448571Y-87679047D01*
X155496190Y-87655238D01*
X155520000Y-87631428D01*
X155543809Y-87583809D01*
D12*
%TO.C,Logo2*%
X151835714Y-87512857D02*
X152269047Y-87636666D01*
X151959523Y-87760476D01*
X152269047Y-87884285D01*
X151835714Y-88008095D01*
X151835714Y-88193809D02*
X152269047Y-88317619D01*
X151959523Y-88441428D01*
X152269047Y-88565238D01*
X151835714Y-88689047D01*
X151835714Y-88874761D02*
X152269047Y-88998571D01*
X151959523Y-89122380D01*
X152269047Y-89246190D01*
X151835714Y-89370000D01*
X152207142Y-89617619D02*
X152238095Y-89648571D01*
X152269047Y-89617619D01*
X152238095Y-89586666D01*
X152207142Y-89617619D01*
X152269047Y-89617619D01*
X152269047Y-89927142D02*
X151835714Y-89927142D01*
X151897619Y-89927142D02*
X151866666Y-89958095D01*
X151835714Y-90020000D01*
X151835714Y-90112857D01*
X151866666Y-90174761D01*
X151928571Y-90205714D01*
X152269047Y-90205714D01*
X151928571Y-90205714D02*
X151866666Y-90236666D01*
X151835714Y-90298571D01*
X151835714Y-90391428D01*
X151866666Y-90453333D01*
X151928571Y-90484285D01*
X152269047Y-90484285D01*
X152238095Y-91041428D02*
X152269047Y-90979523D01*
X152269047Y-90855714D01*
X152238095Y-90793809D01*
X152176190Y-90762857D01*
X151928571Y-90762857D01*
X151866666Y-90793809D01*
X151835714Y-90855714D01*
X151835714Y-90979523D01*
X151866666Y-91041428D01*
X151928571Y-91072380D01*
X151990476Y-91072380D01*
X152052380Y-90762857D01*
X152207142Y-91350952D02*
X152238095Y-91381904D01*
X152269047Y-91350952D01*
X152238095Y-91320000D01*
X152207142Y-91350952D01*
X152269047Y-91350952D01*
X151835714Y-91939047D02*
X152269047Y-91939047D01*
X151835714Y-91660476D02*
X152176190Y-91660476D01*
X152238095Y-91691428D01*
X152269047Y-91753333D01*
X152269047Y-91846190D01*
X152238095Y-91908095D01*
X152207142Y-91939047D01*
X152269047Y-92248571D02*
X151619047Y-92248571D01*
X152021428Y-92310476D02*
X152269047Y-92496190D01*
X151835714Y-92496190D02*
X152083333Y-92248571D01*
%TD*%
M02*
