%TF.GenerationSoftware,KiCad,Pcbnew,(6.0.2-0)*%
%TF.CreationDate,2022-03-18T08:32:09+00:00*%
%TF.ProjectId,Epaper154,45706170-6572-4313-9534-2e6b69636164,1*%
%TF.SameCoordinates,Original*%
%TF.FileFunction,Legend,Top*%
%TF.FilePolarity,Positive*%
%FSLAX46Y46*%
G04 Gerber Fmt 4.6, Leading zero omitted, Abs format (unit mm)*
G04 Created by KiCad (PCBNEW (6.0.2-0)) date 2022-03-18 08:32:09*
%MOMM*%
%LPD*%
G01*
G04 APERTURE LIST*
%ADD10C,0.150000*%
%ADD11C,0.100000*%
%ADD12C,0.120000*%
G04 APERTURE END LIST*
D10*
X140558571Y-97813523D02*
X140558571Y-97480190D01*
X141082380Y-97337333D02*
X141082380Y-97813523D01*
X140082380Y-97813523D01*
X140082380Y-97337333D01*
X140415714Y-96908761D02*
X141415714Y-96908761D01*
X140463333Y-96908761D02*
X140415714Y-96813523D01*
X140415714Y-96623047D01*
X140463333Y-96527809D01*
X140510952Y-96480190D01*
X140606190Y-96432571D01*
X140891904Y-96432571D01*
X140987142Y-96480190D01*
X141034761Y-96527809D01*
X141082380Y-96623047D01*
X141082380Y-96813523D01*
X141034761Y-96908761D01*
X141082380Y-95575428D02*
X140558571Y-95575428D01*
X140463333Y-95623047D01*
X140415714Y-95718285D01*
X140415714Y-95908761D01*
X140463333Y-96004000D01*
X141034761Y-95575428D02*
X141082380Y-95670666D01*
X141082380Y-95908761D01*
X141034761Y-96004000D01*
X140939523Y-96051619D01*
X140844285Y-96051619D01*
X140749047Y-96004000D01*
X140701428Y-95908761D01*
X140701428Y-95670666D01*
X140653809Y-95575428D01*
X140415714Y-95099238D02*
X141415714Y-95099238D01*
X140463333Y-95099238D02*
X140415714Y-95004000D01*
X140415714Y-94813523D01*
X140463333Y-94718285D01*
X140510952Y-94670666D01*
X140606190Y-94623047D01*
X140891904Y-94623047D01*
X140987142Y-94670666D01*
X141034761Y-94718285D01*
X141082380Y-94813523D01*
X141082380Y-95004000D01*
X141034761Y-95099238D01*
X141034761Y-93813523D02*
X141082380Y-93908761D01*
X141082380Y-94099238D01*
X141034761Y-94194476D01*
X140939523Y-94242095D01*
X140558571Y-94242095D01*
X140463333Y-94194476D01*
X140415714Y-94099238D01*
X140415714Y-93908761D01*
X140463333Y-93813523D01*
X140558571Y-93765904D01*
X140653809Y-93765904D01*
X140749047Y-94242095D01*
X141082380Y-93337333D02*
X140415714Y-93337333D01*
X140606190Y-93337333D02*
X140510952Y-93289714D01*
X140463333Y-93242095D01*
X140415714Y-93146857D01*
X140415714Y-93051619D01*
X142692380Y-97956380D02*
X141692380Y-97956380D01*
X141692380Y-97718285D01*
X141740000Y-97575428D01*
X141835238Y-97480190D01*
X141930476Y-97432571D01*
X142120952Y-97384952D01*
X142263809Y-97384952D01*
X142454285Y-97432571D01*
X142549523Y-97480190D01*
X142644761Y-97575428D01*
X142692380Y-97718285D01*
X142692380Y-97956380D01*
X142692380Y-96956380D02*
X142025714Y-96956380D01*
X141692380Y-96956380D02*
X141740000Y-97004000D01*
X141787619Y-96956380D01*
X141740000Y-96908761D01*
X141692380Y-96956380D01*
X141787619Y-96956380D01*
X142644761Y-96527809D02*
X142692380Y-96432571D01*
X142692380Y-96242095D01*
X142644761Y-96146857D01*
X142549523Y-96099238D01*
X142501904Y-96099238D01*
X142406666Y-96146857D01*
X142359047Y-96242095D01*
X142359047Y-96384952D01*
X142311428Y-96480190D01*
X142216190Y-96527809D01*
X142168571Y-96527809D01*
X142073333Y-96480190D01*
X142025714Y-96384952D01*
X142025714Y-96242095D01*
X142073333Y-96146857D01*
X142025714Y-95670666D02*
X143025714Y-95670666D01*
X142073333Y-95670666D02*
X142025714Y-95575428D01*
X142025714Y-95384952D01*
X142073333Y-95289714D01*
X142120952Y-95242095D01*
X142216190Y-95194476D01*
X142501904Y-95194476D01*
X142597142Y-95242095D01*
X142644761Y-95289714D01*
X142692380Y-95384952D01*
X142692380Y-95575428D01*
X142644761Y-95670666D01*
X142692380Y-94623047D02*
X142644761Y-94718285D01*
X142549523Y-94765904D01*
X141692380Y-94765904D01*
X142692380Y-93813523D02*
X142168571Y-93813523D01*
X142073333Y-93861142D01*
X142025714Y-93956380D01*
X142025714Y-94146857D01*
X142073333Y-94242095D01*
X142644761Y-93813523D02*
X142692380Y-93908761D01*
X142692380Y-94146857D01*
X142644761Y-94242095D01*
X142549523Y-94289714D01*
X142454285Y-94289714D01*
X142359047Y-94242095D01*
X142311428Y-94146857D01*
X142311428Y-93908761D01*
X142263809Y-93813523D01*
X142025714Y-93432571D02*
X142692380Y-93194476D01*
X142025714Y-92956380D02*
X142692380Y-93194476D01*
X142930476Y-93289714D01*
X142978095Y-93337333D01*
X143025714Y-93432571D01*
X143778571Y-97099238D02*
X143826190Y-96956380D01*
X143873809Y-96908761D01*
X143969047Y-96861142D01*
X144111904Y-96861142D01*
X144207142Y-96908761D01*
X144254761Y-96956380D01*
X144302380Y-97051619D01*
X144302380Y-97432571D01*
X143302380Y-97432571D01*
X143302380Y-97099238D01*
X143350000Y-97004000D01*
X143397619Y-96956380D01*
X143492857Y-96908761D01*
X143588095Y-96908761D01*
X143683333Y-96956380D01*
X143730952Y-97004000D01*
X143778571Y-97099238D01*
X143778571Y-97432571D01*
X144302380Y-96289714D02*
X144254761Y-96384952D01*
X144207142Y-96432571D01*
X144111904Y-96480190D01*
X143826190Y-96480190D01*
X143730952Y-96432571D01*
X143683333Y-96384952D01*
X143635714Y-96289714D01*
X143635714Y-96146857D01*
X143683333Y-96051619D01*
X143730952Y-96004000D01*
X143826190Y-95956380D01*
X144111904Y-95956380D01*
X144207142Y-96004000D01*
X144254761Y-96051619D01*
X144302380Y-96146857D01*
X144302380Y-96289714D01*
X144302380Y-95099238D02*
X143778571Y-95099238D01*
X143683333Y-95146857D01*
X143635714Y-95242095D01*
X143635714Y-95432571D01*
X143683333Y-95527809D01*
X144254761Y-95099238D02*
X144302380Y-95194476D01*
X144302380Y-95432571D01*
X144254761Y-95527809D01*
X144159523Y-95575428D01*
X144064285Y-95575428D01*
X143969047Y-95527809D01*
X143921428Y-95432571D01*
X143921428Y-95194476D01*
X143873809Y-95099238D01*
X144302380Y-94623047D02*
X143635714Y-94623047D01*
X143826190Y-94623047D02*
X143730952Y-94575428D01*
X143683333Y-94527809D01*
X143635714Y-94432571D01*
X143635714Y-94337333D01*
X144302380Y-93575428D02*
X143302380Y-93575428D01*
X144254761Y-93575428D02*
X144302380Y-93670666D01*
X144302380Y-93861142D01*
X144254761Y-93956380D01*
X144207142Y-94004000D01*
X144111904Y-94051619D01*
X143826190Y-94051619D01*
X143730952Y-94004000D01*
X143683333Y-93956380D01*
X143635714Y-93861142D01*
X143635714Y-93670666D01*
X143683333Y-93575428D01*
D11*
%TO.C,Logo1*%
X164525714Y-66749142D02*
X164959047Y-66625333D01*
X164649523Y-66501523D01*
X164959047Y-66377714D01*
X164525714Y-66253904D01*
X164525714Y-66068190D02*
X164959047Y-65944380D01*
X164649523Y-65820571D01*
X164959047Y-65696761D01*
X164525714Y-65572952D01*
X164525714Y-65387238D02*
X164959047Y-65263428D01*
X164649523Y-65139619D01*
X164959047Y-65015809D01*
X164525714Y-64892000D01*
X164897142Y-64644380D02*
X164928095Y-64613428D01*
X164959047Y-64644380D01*
X164928095Y-64675333D01*
X164897142Y-64644380D01*
X164959047Y-64644380D01*
X164959047Y-64334857D02*
X164525714Y-64334857D01*
X164587619Y-64334857D02*
X164556666Y-64303904D01*
X164525714Y-64242000D01*
X164525714Y-64149142D01*
X164556666Y-64087238D01*
X164618571Y-64056285D01*
X164959047Y-64056285D01*
X164618571Y-64056285D02*
X164556666Y-64025333D01*
X164525714Y-63963428D01*
X164525714Y-63870571D01*
X164556666Y-63808666D01*
X164618571Y-63777714D01*
X164959047Y-63777714D01*
X164928095Y-63220571D02*
X164959047Y-63282476D01*
X164959047Y-63406285D01*
X164928095Y-63468190D01*
X164866190Y-63499142D01*
X164618571Y-63499142D01*
X164556666Y-63468190D01*
X164525714Y-63406285D01*
X164525714Y-63282476D01*
X164556666Y-63220571D01*
X164618571Y-63189619D01*
X164680476Y-63189619D01*
X164742380Y-63499142D01*
X164897142Y-62911047D02*
X164928095Y-62880095D01*
X164959047Y-62911047D01*
X164928095Y-62942000D01*
X164897142Y-62911047D01*
X164959047Y-62911047D01*
X164525714Y-62322952D02*
X164959047Y-62322952D01*
X164525714Y-62601523D02*
X164866190Y-62601523D01*
X164928095Y-62570571D01*
X164959047Y-62508666D01*
X164959047Y-62415809D01*
X164928095Y-62353904D01*
X164897142Y-62322952D01*
X164959047Y-62013428D02*
X164309047Y-62013428D01*
X164711428Y-61951523D02*
X164959047Y-61765809D01*
X164525714Y-61765809D02*
X164773333Y-62013428D01*
%TO.C,U3*%
X137683964Y-86192857D02*
X137648250Y-86157142D01*
X137612535Y-86085714D01*
X137612535Y-85907142D01*
X137648250Y-85835714D01*
X137683964Y-85800000D01*
X137755392Y-85764285D01*
X137826821Y-85764285D01*
X137933964Y-85800000D01*
X138362535Y-86228571D01*
X138362535Y-85764285D01*
X137612535Y-85300000D02*
X137612535Y-85228571D01*
X137648250Y-85157142D01*
X137683964Y-85121428D01*
X137755392Y-85085714D01*
X137898250Y-85050000D01*
X138076821Y-85050000D01*
X138219678Y-85085714D01*
X138291107Y-85121428D01*
X138326821Y-85157142D01*
X138362535Y-85228571D01*
X138362535Y-85300000D01*
X138326821Y-85371428D01*
X138291107Y-85407142D01*
X138219678Y-85442857D01*
X138076821Y-85478571D01*
X137898250Y-85478571D01*
X137755392Y-85442857D01*
X137683964Y-85407142D01*
X137648250Y-85371428D01*
X137612535Y-85300000D01*
X137683964Y-84764285D02*
X137648250Y-84728571D01*
X137612535Y-84657142D01*
X137612535Y-84478571D01*
X137648250Y-84407142D01*
X137683964Y-84371428D01*
X137755392Y-84335714D01*
X137826821Y-84335714D01*
X137933964Y-84371428D01*
X138362535Y-84800000D01*
X138362535Y-84335714D01*
X137683964Y-84050000D02*
X137648250Y-84014285D01*
X137612535Y-83942857D01*
X137612535Y-83764285D01*
X137648250Y-83692857D01*
X137683964Y-83657142D01*
X137755392Y-83621428D01*
X137826821Y-83621428D01*
X137933964Y-83657142D01*
X138362535Y-84085714D01*
X138362535Y-83621428D01*
X138076821Y-83300000D02*
X138076821Y-82728571D01*
X137612535Y-82228571D02*
X137612535Y-82157142D01*
X137648250Y-82085714D01*
X137683964Y-82050000D01*
X137755392Y-82014285D01*
X137898250Y-81978571D01*
X138076821Y-81978571D01*
X138219678Y-82014285D01*
X138291107Y-82050000D01*
X138326821Y-82085714D01*
X138362535Y-82157142D01*
X138362535Y-82228571D01*
X138326821Y-82300000D01*
X138291107Y-82335714D01*
X138219678Y-82371428D01*
X138076821Y-82407142D01*
X137898250Y-82407142D01*
X137755392Y-82371428D01*
X137683964Y-82335714D01*
X137648250Y-82300000D01*
X137612535Y-82228571D01*
X137612535Y-81728571D02*
X137612535Y-81264285D01*
X137898250Y-81514285D01*
X137898250Y-81407142D01*
X137933964Y-81335714D01*
X137969678Y-81300000D01*
X138041107Y-81264285D01*
X138219678Y-81264285D01*
X138291107Y-81300000D01*
X138326821Y-81335714D01*
X138362535Y-81407142D01*
X138362535Y-81621428D01*
X138326821Y-81692857D01*
X138291107Y-81728571D01*
X138076821Y-80942857D02*
X138076821Y-80371428D01*
X138362535Y-79621428D02*
X138362535Y-80050000D01*
X138362535Y-79835714D02*
X137612535Y-79835714D01*
X137719678Y-79907142D01*
X137791107Y-79978571D01*
X137826821Y-80050000D01*
X137612535Y-79371428D02*
X137612535Y-78871428D01*
X138362535Y-79192857D01*
D12*
%TO.C,U2*%
X155780000Y-74725000D02*
X155780000Y-75450000D01*
X151560000Y-78945000D02*
X151560000Y-78220000D01*
X155055000Y-74725000D02*
X155780000Y-74725000D01*
X152285000Y-78945000D02*
X151560000Y-78945000D01*
X155055000Y-78945000D02*
X155780000Y-78945000D01*
X155780000Y-78945000D02*
X155780000Y-78220000D01*
X152152843Y-75035000D02*
G75*
G03*
X152152843Y-75035000I-282843J0D01*
G01*
%TO.C,C4*%
X157726000Y-71719000D02*
X157726000Y-72319000D01*
X156726000Y-71719000D02*
X156726000Y-72319000D01*
%TO.C,R7*%
X155494000Y-72027000D02*
X154894000Y-72027000D01*
X155494000Y-73027000D02*
X154894000Y-73027000D01*
%TO.C,U1*%
X147880000Y-64365000D02*
X150980000Y-64365000D01*
X151155000Y-67415000D02*
X151155000Y-69015000D01*
%TO.C,R11*%
X139200000Y-63708000D02*
X139200000Y-64308000D01*
X140200000Y-63708000D02*
X140200000Y-64308000D01*
%TO.C,R9*%
X138130000Y-89670000D02*
X138730000Y-89670000D01*
X138130000Y-90670000D02*
X138730000Y-90670000D01*
%TO.C,R1*%
X145271000Y-62746000D02*
X144671000Y-62746000D01*
X145271000Y-63746000D02*
X144671000Y-63746000D01*
%TO.C,R6*%
X153170000Y-81580000D02*
X153170000Y-80980000D01*
X154170000Y-81580000D02*
X154170000Y-80980000D01*
%TO.C,D2*%
X156095000Y-91305000D02*
X157595000Y-91305000D01*
%TO.C,R10*%
X140470000Y-63708000D02*
X140470000Y-64308000D01*
X141470000Y-63708000D02*
X141470000Y-64308000D01*
%TO.C,R8*%
X154894000Y-70757000D02*
X155494000Y-70757000D01*
X154894000Y-71757000D02*
X155494000Y-71757000D01*
%TO.C,R4*%
X157615000Y-80310000D02*
X157615000Y-79710000D01*
X158615000Y-80310000D02*
X158615000Y-79710000D01*
%TO.C,R3*%
X157615000Y-84790000D02*
X157615000Y-85390000D01*
X158615000Y-84790000D02*
X158615000Y-85390000D01*
%TO.C,R12*%
X142740000Y-63708000D02*
X142740000Y-64308000D01*
X141740000Y-63708000D02*
X141740000Y-64308000D01*
%TO.C,M1*%
X137160000Y-102930000D02*
X167700000Y-102930000D01*
X137160000Y-102930000D02*
X137160000Y-100270000D01*
X134560000Y-102930000D02*
X134560000Y-101600000D01*
X137160000Y-100270000D02*
X167700000Y-100270000D01*
X135890000Y-102930000D02*
X134560000Y-102930000D01*
X167700000Y-102930000D02*
X167700000Y-100270000D01*
%TO.C,D3*%
X137795000Y-65108000D02*
X137795000Y-64008000D01*
X137795000Y-64008000D02*
X136795000Y-64008000D01*
%TO.C,R2*%
X144671000Y-64016000D02*
X145271000Y-64016000D01*
X144671000Y-65016000D02*
X145271000Y-65016000D01*
%TO.C,R5*%
X155440000Y-81580000D02*
X155440000Y-80980000D01*
X154440000Y-81580000D02*
X154440000Y-80980000D01*
%TD*%
M02*
