%TF.GenerationSoftware,KiCad,Pcbnew,(6.0.2-0)*%
%TF.CreationDate,2022-03-18T09:48:19+00:00*%
%TF.ProjectId,Epaper213,45706170-6572-4323-9133-2e6b69636164,1*%
%TF.SameCoordinates,Original*%
%TF.FileFunction,Soldermask,Top*%
%TF.FilePolarity,Negative*%
%FSLAX46Y46*%
G04 Gerber Fmt 4.6, Leading zero omitted, Abs format (unit mm)*
G04 Created by KiCad (PCBNEW (6.0.2-0)) date 2022-03-18 09:48:19*
%MOMM*%
%LPD*%
G01*
G04 APERTURE LIST*
G04 Aperture macros list*
%AMRoundRect*
0 Rectangle with rounded corners*
0 $1 Rounding radius*
0 $2 $3 $4 $5 $6 $7 $8 $9 X,Y pos of 4 corners*
0 Add a 4 corners polygon primitive as box body*
4,1,4,$2,$3,$4,$5,$6,$7,$8,$9,$2,$3,0*
0 Add four circle primitives for the rounded corners*
1,1,$1+$1,$2,$3*
1,1,$1+$1,$4,$5*
1,1,$1+$1,$6,$7*
1,1,$1+$1,$8,$9*
0 Add four rect primitives between the rounded corners*
20,1,$1+$1,$2,$3,$4,$5,0*
20,1,$1+$1,$4,$5,$6,$7,0*
20,1,$1+$1,$6,$7,$8,$9,0*
20,1,$1+$1,$8,$9,$2,$3,0*%
%AMFreePoly0*
4,1,14,1.007071,1.007071,1.010000,1.000000,1.010000,-1.000000,1.007071,-1.007071,1.000000,-1.010000,-1.000000,-1.010000,-1.007071,-1.007071,-1.010000,-1.000000,-1.010000,0.750000,-1.007071,0.757071,-0.757071,1.007071,-0.750000,1.010000,1.000000,1.010000,1.007071,1.007071,1.007071,1.007071,$1*%
%AMFreePoly1*
4,1,14,0.732071,0.732071,0.735000,0.725000,0.735000,-0.725000,0.732071,-0.732071,0.725000,-0.735000,-0.725000,-0.735000,-0.732071,-0.732071,-0.735000,-0.725000,-0.735000,0.130500,-0.732071,0.137571,-0.137571,0.732071,-0.130500,0.735000,0.725000,0.735000,0.732071,0.732071,0.732071,0.732071,$1*%
G04 Aperture macros list end*
%ADD10C,0.450000*%
%ADD11C,2.720000*%
%ADD12RoundRect,0.072500X-0.287500X-0.062500X0.287500X-0.062500X0.287500X0.062500X-0.287500X0.062500X0*%
%ADD13RoundRect,0.072500X-0.062500X-0.287500X0.062500X-0.287500X0.062500X0.287500X-0.062500X0.287500X0*%
%ADD14FreePoly0,0.000000*%
%ADD15RoundRect,0.010000X0.570000X-0.300000X0.570000X0.300000X-0.570000X0.300000X-0.570000X-0.300000X0*%
%ADD16RoundRect,0.085000X0.495000X-0.075000X0.495000X0.075000X-0.495000X0.075000X-0.495000X-0.075000X0*%
%ADD17C,0.870000*%
%ADD18C,1.270000*%
%ADD19RoundRect,0.010000X2.625000X-3.750000X2.625000X3.750000X-2.625000X3.750000X-2.625000X-3.750000X0*%
%ADD20C,1.520000*%
%ADD21RoundRect,0.210000X-0.275000X0.200000X-0.275000X-0.200000X0.275000X-0.200000X0.275000X0.200000X0*%
%ADD22RoundRect,0.260000X0.675000X-0.600000X0.675000X0.600000X-0.675000X0.600000X-0.675000X-0.600000X0*%
%ADD23O,1.870000X1.720000*%
%ADD24RoundRect,0.210000X0.200000X0.275000X-0.200000X0.275000X-0.200000X-0.275000X0.200000X-0.275000X0*%
%ADD25RoundRect,0.235000X0.250000X-0.225000X0.250000X0.225000X-0.250000X0.225000X-0.250000X-0.225000X0*%
%ADD26RoundRect,0.010000X0.300000X-0.550000X0.300000X0.550000X-0.300000X0.550000X-0.300000X-0.550000X0*%
%ADD27RoundRect,0.259375X-0.463125X-0.625625X0.463125X-0.625625X0.463125X0.625625X-0.463125X0.625625X0*%
%ADD28RoundRect,0.010000X0.712500X-1.850000X0.712500X1.850000X-0.712500X1.850000X-0.712500X-1.850000X0*%
%ADD29RoundRect,0.260000X-0.475000X0.250000X-0.475000X-0.250000X0.475000X-0.250000X0.475000X0.250000X0*%
%ADD30RoundRect,0.210000X-0.200000X-0.275000X0.200000X-0.275000X0.200000X0.275000X-0.200000X0.275000X0*%
%ADD31RoundRect,0.010000X0.200000X-0.400000X0.200000X0.400000X-0.200000X0.400000X-0.200000X-0.400000X0*%
%ADD32RoundRect,0.010000X0.400000X-0.200000X0.400000X0.200000X-0.400000X0.200000X-0.400000X-0.200000X0*%
%ADD33FreePoly1,90.000000*%
%ADD34RoundRect,0.010000X0.725000X-0.725000X0.725000X0.725000X-0.725000X0.725000X-0.725000X-0.725000X0*%
%ADD35RoundRect,0.010000X0.350000X-0.350000X0.350000X0.350000X-0.350000X0.350000X-0.350000X-0.350000X0*%
%ADD36RoundRect,0.210000X0.275000X-0.200000X0.275000X0.200000X-0.275000X0.200000X-0.275000X-0.200000X0*%
%ADD37RoundRect,0.260000X0.625000X-0.375000X0.625000X0.375000X-0.625000X0.375000X-0.625000X-0.375000X0*%
%ADD38RoundRect,0.010000X0.850000X-0.850000X0.850000X0.850000X-0.850000X0.850000X-0.850000X-0.850000X0*%
%ADD39O,1.720000X1.720000*%
%ADD40RoundRect,0.010000X-0.250000X0.425000X-0.250000X-0.425000X0.250000X-0.425000X0.250000X0.425000X0*%
G04 APERTURE END LIST*
D10*
%TO.C,Logo1*%
X152211000Y-90840000D02*
X156411000Y-90840000D01*
X152311000Y-89040000D02*
X154311000Y-90840000D01*
X154311000Y-90840000D02*
X154311000Y-92340000D01*
X152211000Y-90840000D02*
X156411000Y-93840000D01*
X154311000Y-90840000D02*
X156411000Y-89040000D01*
X156411000Y-92340000D02*
G75*
G03*
X156411000Y-90840000I0J750000D01*
G01*
%TD*%
D11*
%TO.C,H2*%
X124460000Y-67680000D03*
%TD*%
D12*
%TO.C,U2*%
X153635000Y-77105000D03*
X153635000Y-77605000D03*
X153635000Y-78105000D03*
X153635000Y-78605000D03*
X153635000Y-79105000D03*
D13*
X154535000Y-80005000D03*
X155035000Y-80005000D03*
X155535000Y-80005000D03*
X156035000Y-80005000D03*
X156535000Y-80005000D03*
D12*
X157435000Y-79105000D03*
X157435000Y-78605000D03*
X157435000Y-78105000D03*
X157435000Y-77605000D03*
X157435000Y-77105000D03*
D13*
X156535000Y-76205000D03*
X156035000Y-76205000D03*
X155535000Y-76205000D03*
X155035000Y-76205000D03*
X154535000Y-76205000D03*
D14*
X155535000Y-78105000D03*
%TD*%
D15*
%TO.C,J1*%
X164590000Y-89560000D03*
X164590000Y-88760000D03*
D16*
X164590000Y-87610000D03*
X164590000Y-86610000D03*
X164590000Y-86110000D03*
X164590000Y-85110000D03*
D15*
X164590000Y-83160000D03*
X164590000Y-83960000D03*
D16*
X164590000Y-84610000D03*
X164590000Y-85610000D03*
X164590000Y-87110000D03*
X164590000Y-88110000D03*
D17*
X165660000Y-83470000D03*
D18*
X169340000Y-90680000D03*
D19*
X168575000Y-86360000D03*
D20*
X165170000Y-90680000D03*
D17*
X165660000Y-89250000D03*
D18*
X169340000Y-82040000D03*
D20*
X165170000Y-82040000D03*
%TD*%
D11*
%TO.C,H4*%
X177800000Y-101600000D03*
%TD*%
D21*
%TO.C,C4*%
X160528000Y-72110000D03*
X160528000Y-73660000D03*
%TD*%
D11*
%TO.C,H3*%
X124460000Y-101600000D03*
%TD*%
D22*
%TO.C,J3*%
X164355000Y-78065000D03*
D23*
X164355000Y-75565000D03*
X164355000Y-73065000D03*
%TD*%
D24*
%TO.C,R7*%
X159408000Y-73530000D03*
X157758000Y-73530000D03*
%TD*%
D22*
%TO.C,J2*%
X164355000Y-96500000D03*
D23*
X164355000Y-94000000D03*
%TD*%
D25*
%TO.C,U1*%
X141090000Y-71145000D03*
D26*
X144140000Y-68770000D03*
X144140000Y-71470000D03*
D27*
X143987500Y-73290000D03*
D25*
X141090000Y-69595000D03*
D28*
X145590000Y-70170000D03*
D26*
X142240000Y-71470000D03*
X143190000Y-71470000D03*
D29*
X142340000Y-72720000D03*
X142340000Y-74620000D03*
X148590000Y-74620000D03*
D26*
X143190000Y-68770000D03*
D27*
X146952500Y-73290000D03*
D29*
X148590000Y-72720000D03*
D28*
X148590000Y-70170000D03*
D26*
X142240000Y-68770000D03*
%TD*%
D21*
%TO.C,R11*%
X133460000Y-68263000D03*
X133460000Y-69913000D03*
%TD*%
D30*
%TO.C,R9*%
X133033000Y-94742000D03*
X134683000Y-94742000D03*
%TD*%
D24*
%TO.C,R1*%
X139556000Y-68326000D03*
X137906000Y-68326000D03*
%TD*%
D11*
%TO.C,H1*%
X177800000Y-67680000D03*
%TD*%
D31*
%TO.C,U3*%
X131273250Y-92970000D03*
X132073250Y-92970000D03*
X132873250Y-92970000D03*
X133673250Y-92970000D03*
X134473250Y-92970000D03*
X135273250Y-92970000D03*
X136073250Y-92970000D03*
X136873250Y-92970000D03*
X137673250Y-92970000D03*
X138473250Y-92970000D03*
X139273250Y-92970000D03*
D32*
X140173250Y-91870000D03*
X140173250Y-91070000D03*
X140173250Y-90270000D03*
X140173250Y-89470000D03*
X140173250Y-88670000D03*
X140173250Y-87870000D03*
X140173250Y-87070000D03*
X140173250Y-86270000D03*
X140173250Y-85470000D03*
X140173250Y-84670000D03*
X140173250Y-83870000D03*
X140173250Y-83070000D03*
X140173250Y-82270000D03*
D31*
X139273250Y-81170000D03*
X138473250Y-81170000D03*
X137673250Y-81170000D03*
X136873250Y-81170000D03*
X136073250Y-81170000D03*
X135273250Y-81170000D03*
X134473250Y-81170000D03*
X133673250Y-81170000D03*
X132873250Y-81170000D03*
X132073250Y-81170000D03*
X131273250Y-81170000D03*
D32*
X130373250Y-82270000D03*
X130373250Y-83070000D03*
X130373250Y-83870000D03*
X130373250Y-84670000D03*
X130373250Y-85470000D03*
X130373250Y-86270000D03*
X130373250Y-87070000D03*
X130373250Y-87870000D03*
X130373250Y-88670000D03*
X130373250Y-89470000D03*
X130373250Y-90270000D03*
X130373250Y-91070000D03*
X130373250Y-91870000D03*
D33*
X133298250Y-89045000D03*
D34*
X137248250Y-87070000D03*
X137248250Y-89045000D03*
X133298250Y-87070000D03*
X137248250Y-85095000D03*
X135273250Y-87070000D03*
X133298250Y-85095000D03*
X135273250Y-85095000D03*
X135273250Y-89045000D03*
D35*
X130323250Y-81120000D03*
X140223250Y-81120000D03*
X140223250Y-93020000D03*
X130323250Y-93020000D03*
%TD*%
D36*
%TO.C,R6*%
X155535000Y-83375000D03*
X155535000Y-81725000D03*
%TD*%
D37*
%TO.C,D2*%
X161290000Y-92840000D03*
X161290000Y-90040000D03*
%TD*%
D21*
%TO.C,R10*%
X134730000Y-68263000D03*
X134730000Y-69913000D03*
%TD*%
D30*
%TO.C,R8*%
X157758000Y-72260000D03*
X159408000Y-72260000D03*
%TD*%
D36*
%TO.C,R4*%
X163322000Y-84825000D03*
X163322000Y-83175000D03*
%TD*%
D21*
%TO.C,R3*%
X163300000Y-87875000D03*
X163300000Y-89525000D03*
%TD*%
%TO.C,R12*%
X136000000Y-68263000D03*
X136000000Y-69913000D03*
%TD*%
D38*
%TO.C,M1*%
X135890000Y-101600000D03*
D39*
X138430000Y-101600000D03*
X140970000Y-101600000D03*
X143510000Y-101600000D03*
X146050000Y-101600000D03*
X148590000Y-101600000D03*
X151130000Y-101600000D03*
X153670000Y-101600000D03*
X156210000Y-101600000D03*
X158750000Y-101600000D03*
X161290000Y-101600000D03*
X163830000Y-101600000D03*
X166370000Y-101600000D03*
%TD*%
D40*
%TO.C,D3*%
X131055000Y-69963000D03*
X131055000Y-68213000D03*
X132055000Y-68213000D03*
X132055000Y-69963000D03*
%TD*%
D30*
%TO.C,R2*%
X137906000Y-69596000D03*
X139556000Y-69596000D03*
%TD*%
D36*
%TO.C,R5*%
X156805000Y-83375000D03*
X156805000Y-81725000D03*
%TD*%
M02*
