%TF.GenerationSoftware,KiCad,Pcbnew,(6.0.2-0)*%
%TF.CreationDate,2022-03-18T09:55:37+00:00*%
%TF.ProjectId,Epaper213,45706170-6572-4323-9133-2e6b69636164,1*%
%TF.SameCoordinates,Original*%
%TF.FileFunction,Paste,Top*%
%TF.FilePolarity,Positive*%
%FSLAX46Y46*%
G04 Gerber Fmt 4.6, Leading zero omitted, Abs format (unit mm)*
G04 Created by KiCad (PCBNEW (6.0.2-0)) date 2022-03-18 09:55:37*
%MOMM*%
%LPD*%
G01*
G04 APERTURE LIST*
G04 Aperture macros list*
%AMRoundRect*
0 Rectangle with rounded corners*
0 $1 Rounding radius*
0 $2 $3 $4 $5 $6 $7 $8 $9 X,Y pos of 4 corners*
0 Add a 4 corners polygon primitive as box body*
4,1,4,$2,$3,$4,$5,$6,$7,$8,$9,$2,$3,0*
0 Add four circle primitives for the rounded corners*
1,1,$1+$1,$2,$3*
1,1,$1+$1,$4,$5*
1,1,$1+$1,$6,$7*
1,1,$1+$1,$8,$9*
0 Add four rect primitives between the rounded corners*
20,1,$1+$1,$2,$3,$4,$5,0*
20,1,$1+$1,$4,$5,$6,$7,0*
20,1,$1+$1,$6,$7,$8,$9,0*
20,1,$1+$1,$8,$9,$2,$3,0*%
%AMFreePoly0*
4,1,6,0.696000,-0.696000,-0.696000,-0.696000,-0.696000,0.118488,-0.118488,0.696000,0.696000,0.696000,0.696000,-0.696000,0.696000,-0.696000,$1*%
G04 Aperture macros list end*
%ADD10RoundRect,0.186000X-0.189000X-0.189000X0.189000X-0.189000X0.189000X0.189000X-0.189000X0.189000X0*%
%ADD11RoundRect,0.048500X-0.287500X-0.071500X0.287500X-0.071500X0.287500X0.071500X-0.287500X0.071500X0*%
%ADD12RoundRect,0.057500X-0.062500X-0.278500X0.062500X-0.278500X0.062500X0.278500X-0.062500X0.278500X0*%
%ADD13RoundRect,0.232500X0.232500X-0.232500X0.232500X0.232500X-0.232500X0.232500X-0.232500X-0.232500X0*%
%ADD14R,0.798000X0.420000*%
%ADD15RoundRect,0.069000X0.478200X-0.075000X0.478200X0.075000X-0.478200X0.075000X-0.478200X-0.075000X0*%
%ADD16RoundRect,0.184000X-0.272000X0.200000X-0.272000X-0.200000X0.272000X-0.200000X0.272000X0.200000X0*%
%ADD17RoundRect,0.184000X0.200000X0.272000X-0.200000X0.272000X-0.200000X-0.272000X0.200000X-0.272000X0*%
%ADD18RoundRect,0.207000X0.249000X-0.225000X0.249000X0.225000X-0.249000X0.225000X-0.249000X-0.225000X0*%
%ADD19R,0.576000X1.056000*%
%ADD20RoundRect,0.250000X-0.350000X-0.250000X0.350000X-0.250000X0.350000X0.250000X-0.350000X0.250000X0*%
%ADD21RoundRect,0.220875X-0.463125X-0.619125X0.463125X-0.619125X0.463125X0.619125X-0.463125X0.619125X0*%
%ADD22RoundRect,0.230000X-0.466000X0.250000X-0.466000X-0.250000X0.466000X-0.250000X0.466000X0.250000X0*%
%ADD23RoundRect,0.184000X-0.200000X-0.272000X0.200000X-0.272000X0.200000X0.272000X-0.200000X0.272000X0*%
%ADD24R,0.384000X0.768000*%
%ADD25R,0.768000X0.384000*%
%ADD26FreePoly0,90.000000*%
%ADD27R,1.392000X1.392000*%
%ADD28R,0.672000X0.672000*%
%ADD29RoundRect,0.184000X0.272000X-0.200000X0.272000X0.200000X-0.272000X0.200000X-0.272000X-0.200000X0*%
%ADD30RoundRect,0.225000X0.615000X-0.375000X0.615000X0.375000X-0.615000X0.375000X-0.615000X-0.375000X0*%
%ADD31R,0.480000X0.816000*%
G04 APERTURE END LIST*
D10*
%TO.C,U2*%
X156035000Y-78605000D03*
X155035000Y-77605000D03*
X156035000Y-77605000D03*
X155035000Y-78605000D03*
D11*
X153635000Y-77105000D03*
X153635000Y-77605000D03*
X153635000Y-78105000D03*
X153635000Y-78605000D03*
X153635000Y-79105000D03*
D12*
X154535000Y-80005000D03*
X155035000Y-80005000D03*
X155535000Y-80005000D03*
X156035000Y-80005000D03*
X156535000Y-80005000D03*
D11*
X157435000Y-79105000D03*
X157435000Y-78605000D03*
X157435000Y-78105000D03*
X157435000Y-77605000D03*
X157435000Y-77105000D03*
D12*
X156535000Y-76205000D03*
X156035000Y-76205000D03*
X155535000Y-76205000D03*
X155035000Y-76205000D03*
X154535000Y-76205000D03*
%TD*%
D13*
%TO.C,J1*%
X168165000Y-88095000D03*
X167015000Y-84645000D03*
X169315000Y-85795000D03*
X169315000Y-84645000D03*
X167015000Y-86945000D03*
X169315000Y-86945000D03*
X168165000Y-85795000D03*
X168165000Y-84645000D03*
X169315000Y-88095000D03*
X168165000Y-86945000D03*
X167015000Y-85795000D03*
X167015000Y-88095000D03*
D14*
X164590000Y-89560000D03*
X164590000Y-88760000D03*
D15*
X164590000Y-87610000D03*
X164590000Y-86610000D03*
X164590000Y-86110000D03*
X164590000Y-85110000D03*
D14*
X164590000Y-83160000D03*
X164590000Y-83960000D03*
D15*
X164590000Y-84610000D03*
X164590000Y-85610000D03*
X164590000Y-87110000D03*
X164590000Y-88110000D03*
%TD*%
D16*
%TO.C,C4*%
X160528000Y-72110000D03*
X160528000Y-73660000D03*
%TD*%
D17*
%TO.C,R7*%
X159408000Y-73530000D03*
X157758000Y-73530000D03*
%TD*%
D18*
%TO.C,U1*%
X141090000Y-71145000D03*
D19*
X144140000Y-68770000D03*
X144140000Y-71470000D03*
D20*
X148590000Y-69020000D03*
X145590000Y-70170000D03*
D21*
X143987500Y-73290000D03*
D18*
X141090000Y-69595000D03*
D20*
X148590000Y-71320000D03*
X145590000Y-71320000D03*
X145590000Y-69020000D03*
X148590000Y-70170000D03*
D19*
X142240000Y-71470000D03*
X143190000Y-71470000D03*
D22*
X142340000Y-72720000D03*
X142340000Y-74620000D03*
X148590000Y-74620000D03*
D19*
X143190000Y-68770000D03*
D21*
X146952500Y-73290000D03*
D22*
X148590000Y-72720000D03*
D19*
X142240000Y-68770000D03*
%TD*%
D16*
%TO.C,R11*%
X133460000Y-68263000D03*
X133460000Y-69913000D03*
%TD*%
D23*
%TO.C,R9*%
X133033000Y-94742000D03*
X134683000Y-94742000D03*
%TD*%
D17*
%TO.C,R1*%
X139556000Y-68326000D03*
X137906000Y-68326000D03*
%TD*%
D24*
%TO.C,U3*%
X131273250Y-92970000D03*
X132073250Y-92970000D03*
X132873250Y-92970000D03*
X133673250Y-92970000D03*
X134473250Y-92970000D03*
X135273250Y-92970000D03*
X136073250Y-92970000D03*
X136873250Y-92970000D03*
X137673250Y-92970000D03*
X138473250Y-92970000D03*
X139273250Y-92970000D03*
D25*
X140173250Y-91870000D03*
X140173250Y-91070000D03*
X140173250Y-90270000D03*
X140173250Y-89470000D03*
X140173250Y-88670000D03*
X140173250Y-87870000D03*
X140173250Y-87070000D03*
X140173250Y-86270000D03*
X140173250Y-85470000D03*
X140173250Y-84670000D03*
X140173250Y-83870000D03*
X140173250Y-83070000D03*
X140173250Y-82270000D03*
D24*
X139273250Y-81170000D03*
X138473250Y-81170000D03*
X137673250Y-81170000D03*
X136873250Y-81170000D03*
X136073250Y-81170000D03*
X135273250Y-81170000D03*
X134473250Y-81170000D03*
X133673250Y-81170000D03*
X132873250Y-81170000D03*
X132073250Y-81170000D03*
X131273250Y-81170000D03*
D25*
X130373250Y-82270000D03*
X130373250Y-83070000D03*
X130373250Y-83870000D03*
X130373250Y-84670000D03*
X130373250Y-85470000D03*
X130373250Y-86270000D03*
X130373250Y-87070000D03*
X130373250Y-87870000D03*
X130373250Y-88670000D03*
X130373250Y-89470000D03*
X130373250Y-90270000D03*
X130373250Y-91070000D03*
X130373250Y-91870000D03*
D26*
X133298250Y-89045000D03*
D27*
X137248250Y-87070000D03*
X137248250Y-89045000D03*
X133298250Y-87070000D03*
X137248250Y-85095000D03*
X135273250Y-87070000D03*
X133298250Y-85095000D03*
X135273250Y-85095000D03*
X135273250Y-89045000D03*
D28*
X130323250Y-81120000D03*
X140223250Y-81120000D03*
X140223250Y-93020000D03*
X130323250Y-93020000D03*
%TD*%
D29*
%TO.C,R6*%
X155535000Y-83375000D03*
X155535000Y-81725000D03*
%TD*%
D30*
%TO.C,D2*%
X161290000Y-92840000D03*
X161290000Y-90040000D03*
%TD*%
D16*
%TO.C,R10*%
X134730000Y-68263000D03*
X134730000Y-69913000D03*
%TD*%
D23*
%TO.C,R8*%
X157758000Y-72260000D03*
X159408000Y-72260000D03*
%TD*%
D29*
%TO.C,R4*%
X163322000Y-84825000D03*
X163322000Y-83175000D03*
%TD*%
D16*
%TO.C,R3*%
X163300000Y-87875000D03*
X163300000Y-89525000D03*
%TD*%
%TO.C,R12*%
X136000000Y-68263000D03*
X136000000Y-69913000D03*
%TD*%
D31*
%TO.C,D3*%
X131055000Y-69963000D03*
X131055000Y-68213000D03*
X132055000Y-68213000D03*
X132055000Y-69963000D03*
%TD*%
D23*
%TO.C,R2*%
X137906000Y-69596000D03*
X139556000Y-69596000D03*
%TD*%
D29*
%TO.C,R5*%
X156805000Y-83375000D03*
X156805000Y-81725000D03*
%TD*%
M02*
