%TF.GenerationSoftware,KiCad,Pcbnew,(6.0.2-0)*%
%TF.CreationDate,2022-03-18T09:55:37+00:00*%
%TF.ProjectId,Epaper213,45706170-6572-4323-9133-2e6b69636164,1*%
%TF.SameCoordinates,Original*%
%TF.FileFunction,Legend,Top*%
%TF.FilePolarity,Positive*%
%FSLAX46Y46*%
G04 Gerber Fmt 4.6, Leading zero omitted, Abs format (unit mm)*
G04 Created by KiCad (PCBNEW (6.0.2-0)) date 2022-03-18 09:55:37*
%MOMM*%
%LPD*%
G01*
G04 APERTURE LIST*
%ADD10C,0.150000*%
%ADD11C,0.100000*%
%ADD12C,0.120000*%
G04 APERTURE END LIST*
D10*
X145892571Y-93749523D02*
X145892571Y-93416190D01*
X146416380Y-93273333D02*
X146416380Y-93749523D01*
X145416380Y-93749523D01*
X145416380Y-93273333D01*
X145749714Y-92844761D02*
X146749714Y-92844761D01*
X145797333Y-92844761D02*
X145749714Y-92749523D01*
X145749714Y-92559047D01*
X145797333Y-92463809D01*
X145844952Y-92416190D01*
X145940190Y-92368571D01*
X146225904Y-92368571D01*
X146321142Y-92416190D01*
X146368761Y-92463809D01*
X146416380Y-92559047D01*
X146416380Y-92749523D01*
X146368761Y-92844761D01*
X146416380Y-91511428D02*
X145892571Y-91511428D01*
X145797333Y-91559047D01*
X145749714Y-91654285D01*
X145749714Y-91844761D01*
X145797333Y-91940000D01*
X146368761Y-91511428D02*
X146416380Y-91606666D01*
X146416380Y-91844761D01*
X146368761Y-91940000D01*
X146273523Y-91987619D01*
X146178285Y-91987619D01*
X146083047Y-91940000D01*
X146035428Y-91844761D01*
X146035428Y-91606666D01*
X145987809Y-91511428D01*
X145749714Y-91035238D02*
X146749714Y-91035238D01*
X145797333Y-91035238D02*
X145749714Y-90940000D01*
X145749714Y-90749523D01*
X145797333Y-90654285D01*
X145844952Y-90606666D01*
X145940190Y-90559047D01*
X146225904Y-90559047D01*
X146321142Y-90606666D01*
X146368761Y-90654285D01*
X146416380Y-90749523D01*
X146416380Y-90940000D01*
X146368761Y-91035238D01*
X146368761Y-89749523D02*
X146416380Y-89844761D01*
X146416380Y-90035238D01*
X146368761Y-90130476D01*
X146273523Y-90178095D01*
X145892571Y-90178095D01*
X145797333Y-90130476D01*
X145749714Y-90035238D01*
X145749714Y-89844761D01*
X145797333Y-89749523D01*
X145892571Y-89701904D01*
X145987809Y-89701904D01*
X146083047Y-90178095D01*
X146416380Y-89273333D02*
X145749714Y-89273333D01*
X145940190Y-89273333D02*
X145844952Y-89225714D01*
X145797333Y-89178095D01*
X145749714Y-89082857D01*
X145749714Y-88987619D01*
X148026380Y-93892380D02*
X147026380Y-93892380D01*
X147026380Y-93654285D01*
X147074000Y-93511428D01*
X147169238Y-93416190D01*
X147264476Y-93368571D01*
X147454952Y-93320952D01*
X147597809Y-93320952D01*
X147788285Y-93368571D01*
X147883523Y-93416190D01*
X147978761Y-93511428D01*
X148026380Y-93654285D01*
X148026380Y-93892380D01*
X148026380Y-92892380D02*
X147359714Y-92892380D01*
X147026380Y-92892380D02*
X147074000Y-92940000D01*
X147121619Y-92892380D01*
X147074000Y-92844761D01*
X147026380Y-92892380D01*
X147121619Y-92892380D01*
X147978761Y-92463809D02*
X148026380Y-92368571D01*
X148026380Y-92178095D01*
X147978761Y-92082857D01*
X147883523Y-92035238D01*
X147835904Y-92035238D01*
X147740666Y-92082857D01*
X147693047Y-92178095D01*
X147693047Y-92320952D01*
X147645428Y-92416190D01*
X147550190Y-92463809D01*
X147502571Y-92463809D01*
X147407333Y-92416190D01*
X147359714Y-92320952D01*
X147359714Y-92178095D01*
X147407333Y-92082857D01*
X147359714Y-91606666D02*
X148359714Y-91606666D01*
X147407333Y-91606666D02*
X147359714Y-91511428D01*
X147359714Y-91320952D01*
X147407333Y-91225714D01*
X147454952Y-91178095D01*
X147550190Y-91130476D01*
X147835904Y-91130476D01*
X147931142Y-91178095D01*
X147978761Y-91225714D01*
X148026380Y-91320952D01*
X148026380Y-91511428D01*
X147978761Y-91606666D01*
X148026380Y-90559047D02*
X147978761Y-90654285D01*
X147883523Y-90701904D01*
X147026380Y-90701904D01*
X148026380Y-89749523D02*
X147502571Y-89749523D01*
X147407333Y-89797142D01*
X147359714Y-89892380D01*
X147359714Y-90082857D01*
X147407333Y-90178095D01*
X147978761Y-89749523D02*
X148026380Y-89844761D01*
X148026380Y-90082857D01*
X147978761Y-90178095D01*
X147883523Y-90225714D01*
X147788285Y-90225714D01*
X147693047Y-90178095D01*
X147645428Y-90082857D01*
X147645428Y-89844761D01*
X147597809Y-89749523D01*
X147359714Y-89368571D02*
X148026380Y-89130476D01*
X147359714Y-88892380D02*
X148026380Y-89130476D01*
X148264476Y-89225714D01*
X148312095Y-89273333D01*
X148359714Y-89368571D01*
X149112571Y-93035238D02*
X149160190Y-92892380D01*
X149207809Y-92844761D01*
X149303047Y-92797142D01*
X149445904Y-92797142D01*
X149541142Y-92844761D01*
X149588761Y-92892380D01*
X149636380Y-92987619D01*
X149636380Y-93368571D01*
X148636380Y-93368571D01*
X148636380Y-93035238D01*
X148684000Y-92940000D01*
X148731619Y-92892380D01*
X148826857Y-92844761D01*
X148922095Y-92844761D01*
X149017333Y-92892380D01*
X149064952Y-92940000D01*
X149112571Y-93035238D01*
X149112571Y-93368571D01*
X149636380Y-92225714D02*
X149588761Y-92320952D01*
X149541142Y-92368571D01*
X149445904Y-92416190D01*
X149160190Y-92416190D01*
X149064952Y-92368571D01*
X149017333Y-92320952D01*
X148969714Y-92225714D01*
X148969714Y-92082857D01*
X149017333Y-91987619D01*
X149064952Y-91940000D01*
X149160190Y-91892380D01*
X149445904Y-91892380D01*
X149541142Y-91940000D01*
X149588761Y-91987619D01*
X149636380Y-92082857D01*
X149636380Y-92225714D01*
X149636380Y-91035238D02*
X149112571Y-91035238D01*
X149017333Y-91082857D01*
X148969714Y-91178095D01*
X148969714Y-91368571D01*
X149017333Y-91463809D01*
X149588761Y-91035238D02*
X149636380Y-91130476D01*
X149636380Y-91368571D01*
X149588761Y-91463809D01*
X149493523Y-91511428D01*
X149398285Y-91511428D01*
X149303047Y-91463809D01*
X149255428Y-91368571D01*
X149255428Y-91130476D01*
X149207809Y-91035238D01*
X149636380Y-90559047D02*
X148969714Y-90559047D01*
X149160190Y-90559047D02*
X149064952Y-90511428D01*
X149017333Y-90463809D01*
X148969714Y-90368571D01*
X148969714Y-90273333D01*
X149636380Y-89511428D02*
X148636380Y-89511428D01*
X149588761Y-89511428D02*
X149636380Y-89606666D01*
X149636380Y-89797142D01*
X149588761Y-89892380D01*
X149541142Y-89940000D01*
X149445904Y-89987619D01*
X149160190Y-89987619D01*
X149064952Y-89940000D01*
X149017333Y-89892380D01*
X148969714Y-89797142D01*
X148969714Y-89606666D01*
X149017333Y-89511428D01*
D11*
%TO.C,Logo1*%
X157921714Y-93927142D02*
X158355047Y-93803333D01*
X158045523Y-93679523D01*
X158355047Y-93555714D01*
X157921714Y-93431904D01*
X157921714Y-93246190D02*
X158355047Y-93122380D01*
X158045523Y-92998571D01*
X158355047Y-92874761D01*
X157921714Y-92750952D01*
X157921714Y-92565238D02*
X158355047Y-92441428D01*
X158045523Y-92317619D01*
X158355047Y-92193809D01*
X157921714Y-92070000D01*
X158293142Y-91822380D02*
X158324095Y-91791428D01*
X158355047Y-91822380D01*
X158324095Y-91853333D01*
X158293142Y-91822380D01*
X158355047Y-91822380D01*
X158355047Y-91512857D02*
X157921714Y-91512857D01*
X157983619Y-91512857D02*
X157952666Y-91481904D01*
X157921714Y-91420000D01*
X157921714Y-91327142D01*
X157952666Y-91265238D01*
X158014571Y-91234285D01*
X158355047Y-91234285D01*
X158014571Y-91234285D02*
X157952666Y-91203333D01*
X157921714Y-91141428D01*
X157921714Y-91048571D01*
X157952666Y-90986666D01*
X158014571Y-90955714D01*
X158355047Y-90955714D01*
X158324095Y-90398571D02*
X158355047Y-90460476D01*
X158355047Y-90584285D01*
X158324095Y-90646190D01*
X158262190Y-90677142D01*
X158014571Y-90677142D01*
X157952666Y-90646190D01*
X157921714Y-90584285D01*
X157921714Y-90460476D01*
X157952666Y-90398571D01*
X158014571Y-90367619D01*
X158076476Y-90367619D01*
X158138380Y-90677142D01*
X158293142Y-90089047D02*
X158324095Y-90058095D01*
X158355047Y-90089047D01*
X158324095Y-90120000D01*
X158293142Y-90089047D01*
X158355047Y-90089047D01*
X157921714Y-89500952D02*
X158355047Y-89500952D01*
X157921714Y-89779523D02*
X158262190Y-89779523D01*
X158324095Y-89748571D01*
X158355047Y-89686666D01*
X158355047Y-89593809D01*
X158324095Y-89531904D01*
X158293142Y-89500952D01*
X158355047Y-89191428D02*
X157705047Y-89191428D01*
X158107428Y-89129523D02*
X158355047Y-88943809D01*
X157921714Y-88943809D02*
X158169333Y-89191428D01*
%TO.C,U3*%
X131333964Y-90712857D02*
X131298250Y-90677142D01*
X131262535Y-90605714D01*
X131262535Y-90427142D01*
X131298250Y-90355714D01*
X131333964Y-90320000D01*
X131405392Y-90284285D01*
X131476821Y-90284285D01*
X131583964Y-90320000D01*
X132012535Y-90748571D01*
X132012535Y-90284285D01*
X131262535Y-89820000D02*
X131262535Y-89748571D01*
X131298250Y-89677142D01*
X131333964Y-89641428D01*
X131405392Y-89605714D01*
X131548250Y-89570000D01*
X131726821Y-89570000D01*
X131869678Y-89605714D01*
X131941107Y-89641428D01*
X131976821Y-89677142D01*
X132012535Y-89748571D01*
X132012535Y-89820000D01*
X131976821Y-89891428D01*
X131941107Y-89927142D01*
X131869678Y-89962857D01*
X131726821Y-89998571D01*
X131548250Y-89998571D01*
X131405392Y-89962857D01*
X131333964Y-89927142D01*
X131298250Y-89891428D01*
X131262535Y-89820000D01*
X131333964Y-89284285D02*
X131298250Y-89248571D01*
X131262535Y-89177142D01*
X131262535Y-88998571D01*
X131298250Y-88927142D01*
X131333964Y-88891428D01*
X131405392Y-88855714D01*
X131476821Y-88855714D01*
X131583964Y-88891428D01*
X132012535Y-89320000D01*
X132012535Y-88855714D01*
X131333964Y-88570000D02*
X131298250Y-88534285D01*
X131262535Y-88462857D01*
X131262535Y-88284285D01*
X131298250Y-88212857D01*
X131333964Y-88177142D01*
X131405392Y-88141428D01*
X131476821Y-88141428D01*
X131583964Y-88177142D01*
X132012535Y-88605714D01*
X132012535Y-88141428D01*
X131726821Y-87820000D02*
X131726821Y-87248571D01*
X131262535Y-86748571D02*
X131262535Y-86677142D01*
X131298250Y-86605714D01*
X131333964Y-86570000D01*
X131405392Y-86534285D01*
X131548250Y-86498571D01*
X131726821Y-86498571D01*
X131869678Y-86534285D01*
X131941107Y-86570000D01*
X131976821Y-86605714D01*
X132012535Y-86677142D01*
X132012535Y-86748571D01*
X131976821Y-86820000D01*
X131941107Y-86855714D01*
X131869678Y-86891428D01*
X131726821Y-86927142D01*
X131548250Y-86927142D01*
X131405392Y-86891428D01*
X131333964Y-86855714D01*
X131298250Y-86820000D01*
X131262535Y-86748571D01*
X131262535Y-86248571D02*
X131262535Y-85784285D01*
X131548250Y-86034285D01*
X131548250Y-85927142D01*
X131583964Y-85855714D01*
X131619678Y-85820000D01*
X131691107Y-85784285D01*
X131869678Y-85784285D01*
X131941107Y-85820000D01*
X131976821Y-85855714D01*
X132012535Y-85927142D01*
X132012535Y-86141428D01*
X131976821Y-86212857D01*
X131941107Y-86248571D01*
X131726821Y-85462857D02*
X131726821Y-84891428D01*
X132012535Y-84141428D02*
X132012535Y-84570000D01*
X132012535Y-84355714D02*
X131262535Y-84355714D01*
X131369678Y-84427142D01*
X131441107Y-84498571D01*
X131476821Y-84570000D01*
X131262535Y-83891428D02*
X131262535Y-83391428D01*
X132012535Y-83712857D01*
D12*
%TO.C,U2*%
X157645000Y-75995000D02*
X157645000Y-76720000D01*
X153425000Y-80215000D02*
X153425000Y-79490000D01*
X156920000Y-75995000D02*
X157645000Y-75995000D01*
X154150000Y-80215000D02*
X153425000Y-80215000D01*
X156920000Y-80215000D02*
X157645000Y-80215000D01*
X157645000Y-80215000D02*
X157645000Y-79490000D01*
X154017843Y-76305000D02*
G75*
G03*
X154017843Y-76305000I-282843J0D01*
G01*
%TO.C,C4*%
X161028000Y-72585000D02*
X161028000Y-73185000D01*
X160028000Y-72585000D02*
X160028000Y-73185000D01*
%TO.C,R7*%
X158883000Y-73030000D02*
X158283000Y-73030000D01*
X158883000Y-74030000D02*
X158283000Y-74030000D01*
%TO.C,U1*%
X141640000Y-69445000D02*
X144740000Y-69445000D01*
X144915000Y-72495000D02*
X144915000Y-74095000D01*
%TO.C,R11*%
X132960000Y-68788000D02*
X132960000Y-69388000D01*
X133960000Y-68788000D02*
X133960000Y-69388000D01*
%TO.C,R9*%
X133558000Y-94242000D02*
X134158000Y-94242000D01*
X133558000Y-95242000D02*
X134158000Y-95242000D01*
%TO.C,R1*%
X139031000Y-67826000D02*
X138431000Y-67826000D01*
X139031000Y-68826000D02*
X138431000Y-68826000D01*
%TO.C,R6*%
X155035000Y-82850000D02*
X155035000Y-82250000D01*
X156035000Y-82850000D02*
X156035000Y-82250000D01*
%TO.C,D2*%
X160540000Y-91940000D02*
X162040000Y-91940000D01*
%TO.C,R10*%
X134230000Y-68788000D02*
X134230000Y-69388000D01*
X135230000Y-68788000D02*
X135230000Y-69388000D01*
%TO.C,R8*%
X158283000Y-71760000D02*
X158883000Y-71760000D01*
X158283000Y-72760000D02*
X158883000Y-72760000D01*
%TO.C,R4*%
X162822000Y-84300000D02*
X162822000Y-83700000D01*
X163822000Y-84300000D02*
X163822000Y-83700000D01*
%TO.C,R3*%
X162800000Y-88400000D02*
X162800000Y-89000000D01*
X163800000Y-88400000D02*
X163800000Y-89000000D01*
%TO.C,R12*%
X136500000Y-68788000D02*
X136500000Y-69388000D01*
X135500000Y-68788000D02*
X135500000Y-69388000D01*
%TO.C,M1*%
X137160000Y-102930000D02*
X167700000Y-102930000D01*
X137160000Y-102930000D02*
X137160000Y-100270000D01*
X134560000Y-102930000D02*
X134560000Y-101600000D01*
X137160000Y-100270000D02*
X167700000Y-100270000D01*
X135890000Y-102930000D02*
X134560000Y-102930000D01*
X167700000Y-102930000D02*
X167700000Y-100270000D01*
%TO.C,D3*%
X131555000Y-70188000D02*
X131555000Y-69088000D01*
X131555000Y-69088000D02*
X130555000Y-69088000D01*
%TO.C,R2*%
X138431000Y-69096000D02*
X139031000Y-69096000D01*
X138431000Y-70096000D02*
X139031000Y-70096000D01*
%TO.C,R5*%
X157305000Y-82850000D02*
X157305000Y-82250000D01*
X156305000Y-82850000D02*
X156305000Y-82250000D01*
%TD*%
M02*
