%TF.GenerationSoftware,KiCad,Pcbnew,(6.0.2-0)*%
%TF.CreationDate,2022-03-18T09:48:19+00:00*%
%TF.ProjectId,Epaper213,45706170-6572-4323-9133-2e6b69636164,1*%
%TF.SameCoordinates,Original*%
%TF.FileFunction,Soldermask,Bot*%
%TF.FilePolarity,Negative*%
%FSLAX46Y46*%
G04 Gerber Fmt 4.6, Leading zero omitted, Abs format (unit mm)*
G04 Created by KiCad (PCBNEW (6.0.2-0)) date 2022-03-18 09:48:19*
%MOMM*%
%LPD*%
G01*
G04 APERTURE LIST*
G04 Aperture macros list*
%AMRoundRect*
0 Rectangle with rounded corners*
0 $1 Rounding radius*
0 $2 $3 $4 $5 $6 $7 $8 $9 X,Y pos of 4 corners*
0 Add a 4 corners polygon primitive as box body*
4,1,4,$2,$3,$4,$5,$6,$7,$8,$9,$2,$3,0*
0 Add four circle primitives for the rounded corners*
1,1,$1+$1,$2,$3*
1,1,$1+$1,$4,$5*
1,1,$1+$1,$6,$7*
1,1,$1+$1,$8,$9*
0 Add four rect primitives between the rounded corners*
20,1,$1+$1,$2,$3,$4,$5,0*
20,1,$1+$1,$4,$5,$6,$7,0*
20,1,$1+$1,$6,$7,$8,$9,0*
20,1,$1+$1,$8,$9,$2,$3,0*%
G04 Aperture macros list end*
%ADD10C,0.450000*%
%ADD11C,2.720000*%
%ADD12C,0.870000*%
%ADD13C,1.270000*%
%ADD14C,1.520000*%
%ADD15RoundRect,0.260000X0.675000X-0.600000X0.675000X0.600000X-0.675000X0.600000X-0.675000X-0.600000X0*%
%ADD16O,1.870000X1.720000*%
%ADD17RoundRect,0.010000X0.850000X-0.850000X0.850000X0.850000X-0.850000X0.850000X-0.850000X-0.850000X0*%
%ADD18O,1.720000X1.720000*%
G04 APERTURE END LIST*
D10*
%TO.C,Logo2*%
X154311000Y-92040000D02*
X156411000Y-93840000D01*
X152211000Y-92040000D02*
X156411000Y-89040000D01*
X152211000Y-92040000D02*
X156411000Y-92040000D01*
X152311000Y-93840000D02*
X154311000Y-92040000D01*
X154311000Y-92040000D02*
X154311000Y-90540000D01*
X156411000Y-92040000D02*
G75*
G03*
X156411000Y-90540000I0J750000D01*
G01*
%TO.C,U4*%
G36*
X171175000Y-89260000D02*
G01*
X165375000Y-89260000D01*
X165375000Y-83460000D01*
X171175000Y-83460000D01*
X171175000Y-89260000D01*
G37*
%TD*%
D11*
%TO.C,H2*%
X124460000Y-67680000D03*
%TD*%
D12*
%TO.C,J1*%
X165660000Y-83470000D03*
D13*
X169340000Y-90680000D03*
D14*
X165170000Y-90680000D03*
D12*
X165660000Y-89250000D03*
D13*
X169340000Y-82040000D03*
D14*
X165170000Y-82040000D03*
%TD*%
D11*
%TO.C,H4*%
X177800000Y-101600000D03*
%TD*%
%TO.C,H3*%
X124460000Y-101600000D03*
%TD*%
D15*
%TO.C,J3*%
X164355000Y-78065000D03*
D16*
X164355000Y-75565000D03*
X164355000Y-73065000D03*
%TD*%
D15*
%TO.C,J2*%
X164355000Y-96500000D03*
D16*
X164355000Y-94000000D03*
%TD*%
D11*
%TO.C,H1*%
X177800000Y-67680000D03*
%TD*%
D17*
%TO.C,M1*%
X135890000Y-101600000D03*
D18*
X138430000Y-101600000D03*
X140970000Y-101600000D03*
X143510000Y-101600000D03*
X146050000Y-101600000D03*
X148590000Y-101600000D03*
X151130000Y-101600000D03*
X153670000Y-101600000D03*
X156210000Y-101600000D03*
X158750000Y-101600000D03*
X161290000Y-101600000D03*
X163830000Y-101600000D03*
X166370000Y-101600000D03*
%TD*%
M02*
